<svg xmlns="http://www.w3.org/2000/svg" viewBox="0 0 590 200" width="590" height="200" role="img" aria-labelledby="t d"><title id="t">Expert Connect</title><desc id="d">Team. Connects users with domain experts. I lead the system architecture and UML design. Built with TypeScript, Next.js, Supabase.</desc><rect x="1" y="1" width="588" height="198" rx="12" fill="#0d1117" stroke="#30363d" stroke-width="2"/><path transform="translate(28 32) scale(1.0)" d="M2 2.5A2.5 2.5 0 0 1 4.5 0h8.75a.75.75 0 0 1 .75.75v12.5a.75.75 0 0 1-.75.75h-2.5a.75.75 0 0 1 0-1.5h1.75v-2h-8a1 1 0 0 0-.714 1.7.75.75 0 1 1-1.072 1.05A2.495 2.495 0 0 1 2 11.5Zm10.5-1h-8a1 1 0 0 0-1 1v6.708A2.486 2.486 0 0 1 4.5 9h8ZM5 12.25a.25.25 0 0 1 .25-.25h3.5a.25.25 0 0 1 .25.25v3.25a.25.25 0 0 1-.4.2l-1.45-1.087a.249.249 0 0 0-.3 0L5.4 15.7a.25.25 0 0 1-.4-.2Z" fill="#9198a1"/><path d="M55.6 46.0V30.7H66.5V33.1H57.7L58.3 32.5V44.2L57.7 43.6H66.5V46.0ZM57.7 39.3V37.1H65.4V39.3Z M67.6 46.0 71.8 40.2 68.0 34.8H71.1L73.3 38.2L73.6 38.6H73.7L73.9 38.2L76.2 34.8H79.2L75.4 40.2L79.6 46.0H76.5L73.9 42.2L73.6 41.7H73.5L73.2 42.2L70.5 46.0Z M81.3 49.5V34.8H83.8L83.9 36.9H84.0Q84.4 35.9 85.3 35.2Q86.3 34.6 87.6 34.6Q88.7 34.6 89.5 35.0Q90.3 35.4 90.9 36.2Q91.5 36.9 91.9 38.0Q92.2 39.0 92.2 40.4Q92.2 42.2 91.6 43.5Q91.0 44.8 90.0 45.5Q89.0 46.2 87.6 46.2Q86.7 46.2 86.0 45.9Q85.3 45.6 84.8 45.1Q84.2 44.6 84.0 44.0H83.9V49.5ZM86.6 44.1Q87.6 44.1 88.2 43.6Q88.9 43.2 89.2 42.4Q89.5 41.5 89.5 40.4Q89.5 39.3 89.2 38.5Q88.9 37.6 88.3 37.2Q87.6 36.8 86.7 36.8Q85.8 36.8 85.1 37.2Q84.5 37.6 84.2 38.3Q83.9 39.0 83.9 39.8V41.0Q83.9 41.9 84.2 42.6Q84.6 43.2 85.2 43.7Q85.8 44.1 86.6 44.1Z M99.4 46.2Q97.7 46.2 96.6 45.5Q95.4 44.8 94.7 43.5Q94.1 42.2 94.1 40.5Q94.1 38.7 94.7 37.4Q95.4 36.1 96.5 35.4Q97.7 34.6 99.3 34.6Q101.2 34.6 102.4 35.4Q103.6 36.3 104.1 37.7Q104.6 39.1 104.4 41.0H96.7Q96.7 42.0 97.0 42.8Q97.4 43.5 98.0 43.8Q98.6 44.2 99.4 44.2Q100.4 44.2 101.1 43.8Q101.7 43.4 101.9 42.7H104.4Q104.2 43.8 103.5 44.6Q102.8 45.3 101.8 45.8Q100.7 46.2 99.4 46.2ZM96.7 39.6 96.4 39.3H102.1L101.9 39.6Q101.9 38.5 101.6 37.9Q101.3 37.2 100.7 36.9Q100.1 36.6 99.3 36.6Q98.5 36.6 98.0 36.9Q97.4 37.3 97.0 37.9Q96.7 38.6 96.7 39.6Z M106.5 46.0V34.8H108.9L109.0 36.7H109.1Q109.5 35.6 110.4 35.2Q111.2 34.7 112.3 34.7Q112.5 34.7 112.6 34.7Q112.8 34.7 112.9 34.7V37.2Q112.8 37.2 112.6 37.1Q112.5 37.1 112.3 37.1Q111.2 37.1 110.6 37.5Q109.9 37.8 109.6 38.4Q109.2 39.0 109.2 39.9V46.0Z M118.7 46.0Q117.4 46.0 116.7 45.4Q116.1 44.7 116.1 43.3V36.9H114.0V34.8H116.1V31.7L118.7 31.4V34.8H121.1V36.9H118.7V42.8Q118.7 43.4 119.0 43.6Q119.2 43.8 119.7 43.8H121.1V46.0Z M134.8 46.2Q133.1 46.2 131.7 45.7Q130.3 45.1 129.3 44.1Q128.3 43.1 127.7 41.6Q127.2 40.2 127.2 38.3Q127.2 36.5 127.7 35.0Q128.3 33.6 129.3 32.6Q130.3 31.6 131.7 31.0Q133.1 30.5 134.8 30.5Q136.7 30.5 138.3 31.2Q139.8 31.8 140.7 33.1Q141.7 34.3 141.9 35.9H139.0Q138.8 35.0 138.3 34.3Q137.7 33.7 136.8 33.3Q135.9 32.9 134.8 32.9Q133.4 32.9 132.3 33.5Q131.2 34.1 130.7 35.4Q130.1 36.6 130.1 38.3Q130.1 39.7 130.4 40.7Q130.7 41.7 131.4 42.4Q132.0 43.1 132.8 43.4Q133.7 43.8 134.8 43.8Q135.9 43.8 136.8 43.4Q137.7 43.0 138.3 42.4Q138.9 41.7 139.0 40.8H141.9Q141.7 42.4 140.7 43.6Q139.8 44.8 138.3 45.5Q136.7 46.2 134.8 46.2Z M148.9 46.2Q147.6 46.2 146.6 45.8Q145.6 45.4 144.8 44.7Q144.1 43.9 143.7 42.8Q143.3 41.8 143.3 40.4Q143.3 38.7 144.0 37.4Q144.6 36.1 145.9 35.4Q147.1 34.6 148.9 34.6Q150.1 34.6 151.1 35.0Q152.1 35.4 152.8 36.2Q153.6 36.9 154.0 38.0Q154.4 39.0 154.4 40.4Q154.4 42.1 153.7 43.4Q153.0 44.7 151.8 45.5Q150.6 46.2 148.9 46.2ZM148.8 44.0Q149.7 44.0 150.3 43.6Q151.0 43.2 151.4 42.4Q151.7 41.6 151.7 40.4Q151.7 39.5 151.5 38.8Q151.3 38.2 150.9 37.7Q150.6 37.2 150.0 37.0Q149.5 36.8 148.9 36.8Q148.0 36.8 147.3 37.2Q146.7 37.6 146.3 38.4Q146.0 39.2 146.0 40.4Q146.0 41.3 146.2 42.0Q146.4 42.7 146.7 43.1Q147.1 43.6 147.6 43.8Q148.2 44.0 148.8 44.0Z M156.5 46.0V34.8H159.1L159.2 36.9H159.3Q159.8 35.8 160.8 35.2Q161.8 34.6 163.0 34.6Q163.8 34.6 164.5 34.9Q165.3 35.1 165.8 35.7Q166.3 36.3 166.6 37.1Q166.9 38.0 166.9 39.3V46.0H164.3V39.9Q164.3 38.8 164.1 38.1Q163.8 37.5 163.3 37.1Q162.8 36.8 162.0 36.8Q161.1 36.8 160.5 37.2Q159.8 37.6 159.5 38.3Q159.2 39.0 159.2 39.8V46.0Z M169.6 46.0V34.8H172.1L172.2 36.9H172.3Q172.8 35.8 173.8 35.2Q174.8 34.6 176.0 34.6Q176.8 34.6 177.6 34.9Q178.3 35.1 178.8 35.7Q179.3 36.3 179.7 37.1Q180.0 38.0 180.0 39.3V46.0H177.3V39.9Q177.3 38.8 177.1 38.1Q176.8 37.5 176.3 37.1Q175.8 36.8 175.0 36.8Q174.1 36.8 173.5 37.2Q172.9 37.6 172.5 38.3Q172.2 39.0 172.2 39.8V46.0Z M187.4 46.2Q185.7 46.2 184.5 45.5Q183.3 44.8 182.7 43.5Q182.1 42.2 182.1 40.5Q182.1 38.7 182.7 37.4Q183.3 36.1 184.5 35.4Q185.7 34.6 187.3 34.6Q189.1 34.6 190.3 35.4Q191.5 36.3 192.0 37.7Q192.6 39.1 192.4 41.0H184.6Q184.6 42.0 185.0 42.8Q185.3 43.5 185.9 43.8Q186.6 44.2 187.4 44.2Q188.4 44.2 189.0 43.8Q189.6 43.4 189.8 42.7H192.3Q192.1 43.8 191.5 44.6Q190.8 45.3 189.7 45.8Q188.7 46.2 187.4 46.2ZM184.6 39.6 184.4 39.3H190.1L189.8 39.6Q189.9 38.5 189.6 37.9Q189.2 37.2 188.7 36.9Q188.1 36.6 187.3 36.6Q186.5 36.6 185.9 36.9Q185.3 37.3 185.0 37.9Q184.6 38.6 184.6 39.6Z M199.6 46.2Q198.3 46.2 197.3 45.8Q196.3 45.4 195.6 44.6Q194.8 43.8 194.4 42.8Q194.1 41.7 194.1 40.4Q194.1 39.1 194.5 38.0Q194.8 37.0 195.6 36.2Q196.3 35.4 197.3 35.0Q198.4 34.6 199.6 34.6Q201.0 34.6 202.1 35.1Q203.2 35.6 203.8 36.6Q204.5 37.5 204.6 38.7H202.0Q201.9 38.1 201.6 37.6Q201.2 37.2 200.7 37.0Q200.2 36.8 199.6 36.8Q198.9 36.8 198.4 37.0Q197.8 37.3 197.5 37.8Q197.1 38.3 196.9 38.9Q196.7 39.6 196.7 40.4Q196.7 41.6 197.1 42.4Q197.4 43.2 198.1 43.6Q198.7 44.0 199.6 44.0Q200.3 44.0 200.8 43.8Q201.3 43.5 201.7 43.1Q202.0 42.6 202.1 42.0H204.6Q204.5 43.3 203.9 44.2Q203.2 45.2 202.1 45.7Q201.0 46.2 199.6 46.2Z M210.4 46.0Q209.1 46.0 208.4 45.4Q207.7 44.7 207.7 43.3V36.9H205.7V34.8H207.7V31.7L210.4 31.4V34.8H212.7V36.9H210.4V42.8Q210.4 43.4 210.6 43.6Q210.9 43.8 211.4 43.8H212.7V46.0Z" fill="#58a6ff"/><rect x="506" y="28" width="56" height="24" rx="12" fill="none" stroke="#30363d" stroke-width="1.5"/><path d="M519.9 45.0V36.6H521.3V45.0ZM516.9 36.8V35.5H524.3V36.8Z M526.8 45.1Q525.8 45.1 525.1 44.7Q524.4 44.2 524.0 43.5Q523.6 42.7 523.6 41.6Q523.6 40.5 524.0 39.7Q524.4 38.9 525.1 38.5Q525.8 38.0 526.8 38.0Q527.9 38.0 528.6 38.5Q529.3 39.0 529.6 39.9Q529.9 40.7 529.8 41.8H525.0Q525.0 42.6 525.2 43.1Q525.4 43.6 525.9 43.8Q526.3 44.1 526.8 44.1Q527.5 44.1 527.9 43.8Q528.4 43.5 528.5 43.0H529.8Q529.7 43.7 529.3 44.1Q528.9 44.6 528.2 44.9Q527.6 45.1 526.8 45.1ZM525.0 41.1 524.8 40.9H528.7L528.5 41.1Q528.5 40.4 528.3 39.9Q528.1 39.5 527.7 39.3Q527.3 39.0 526.8 39.0Q526.3 39.0 525.9 39.3Q525.5 39.5 525.2 40.0Q525.0 40.4 525.0 41.1Z M533.8 45.1Q533.2 45.1 532.7 44.9Q532.1 44.6 531.7 44.2Q531.4 43.7 531.2 43.1Q531.0 42.4 531.0 41.6Q531.0 40.4 531.3 39.6Q531.7 38.9 532.3 38.4Q533.0 38.0 533.8 38.0Q534.4 38.0 534.8 38.2Q535.3 38.4 535.6 38.7Q536.0 39.0 536.1 39.4H536.2L536.2 38.1H537.5V45.0H536.2L536.2 43.7H536.1Q535.9 44.3 535.3 44.7Q534.7 45.1 533.8 45.1ZM534.3 44.0Q534.9 44.0 535.3 43.7Q535.7 43.4 536.0 43.0Q536.2 42.5 536.2 41.9V41.2Q536.2 40.6 536.0 40.1Q535.7 39.7 535.3 39.4Q534.9 39.1 534.3 39.1Q533.7 39.1 533.2 39.4Q532.8 39.7 532.6 40.2Q532.3 40.8 532.3 41.6Q532.3 42.3 532.6 42.9Q532.8 43.4 533.2 43.7Q533.6 44.0 534.3 44.0Z M539.4 45.0V38.1H540.7L540.7 39.5H540.8Q541.1 38.8 541.7 38.4Q542.3 38.0 543.1 38.0Q543.8 38.0 544.4 38.4Q545.0 38.7 545.3 39.6H545.4Q545.7 38.8 546.3 38.4Q547.0 38.0 547.8 38.0Q548.5 38.0 549.0 38.3Q549.6 38.6 549.9 39.2Q550.2 39.9 550.2 40.9V45.0H548.9V41.2Q548.9 40.5 548.7 40.0Q548.5 39.6 548.2 39.3Q547.9 39.1 547.3 39.1Q546.7 39.1 546.3 39.4Q545.9 39.7 545.7 40.2Q545.5 40.6 545.5 41.2V45.0H544.1V41.2Q544.1 40.5 544.0 40.0Q543.8 39.6 543.4 39.3Q543.1 39.1 542.6 39.1Q542.0 39.1 541.6 39.4Q541.2 39.7 540.9 40.2Q540.7 40.6 540.7 41.2V45.0Z" fill="#9198a1"/><path d="M34.5 86.1Q33.2 86.1 32.1 85.7Q31.1 85.3 30.3 84.5Q29.6 83.7 29.2 82.6Q28.8 81.5 28.8 80.2Q28.8 78.8 29.2 77.7Q29.6 76.6 30.3 75.8Q31.1 75.0 32.1 74.6Q33.2 74.2 34.5 74.2Q35.9 74.2 37.0 74.7Q38.1 75.2 38.8 76.1Q39.5 77.0 39.7 78.2H38.3Q38.1 77.4 37.6 76.8Q37.1 76.1 36.3 75.8Q35.5 75.4 34.5 75.4Q33.1 75.4 32.2 76.0Q31.2 76.6 30.7 77.6Q30.2 78.7 30.2 80.2Q30.2 81.3 30.5 82.2Q30.8 83.1 31.3 83.7Q31.9 84.3 32.7 84.6Q33.5 84.9 34.5 84.9Q35.5 84.9 36.3 84.6Q37.1 84.2 37.6 83.6Q38.2 83.0 38.3 82.1H39.7Q39.5 83.3 38.8 84.2Q38.1 85.2 37.0 85.6Q35.9 86.1 34.5 86.1Z M45.1 86.1Q44.2 86.1 43.4 85.8Q42.7 85.5 42.2 85.0Q41.6 84.4 41.3 83.6Q41.0 82.8 41.0 81.8Q41.0 80.5 41.5 79.6Q42.0 78.6 43.0 78.0Q43.9 77.5 45.1 77.5Q46.0 77.5 46.8 77.8Q47.5 78.1 48.0 78.6Q48.6 79.2 48.8 80.0Q49.1 80.8 49.1 81.8Q49.1 83.1 48.6 84.1Q48.2 85.0 47.2 85.6Q46.3 86.1 45.1 86.1ZM45.1 85.0Q45.9 85.0 46.5 84.6Q47.1 84.3 47.5 83.5Q47.8 82.8 47.8 81.8Q47.8 81.1 47.6 80.5Q47.4 79.9 47.1 79.4Q46.7 79.0 46.2 78.8Q45.7 78.6 45.1 78.6Q44.3 78.6 43.7 79.0Q43.1 79.3 42.7 80.1Q42.4 80.8 42.4 81.8Q42.4 82.6 42.6 83.2Q42.7 83.8 43.1 84.2Q43.5 84.6 44.0 84.8Q44.5 85.0 45.1 85.0Z M51.1 86.0V77.6H52.3L52.3 79.3H52.4Q52.8 78.4 53.6 77.9Q54.4 77.5 55.4 77.5Q56.0 77.5 56.6 77.7Q57.1 77.9 57.5 78.3Q57.9 78.7 58.2 79.4Q58.4 80.1 58.4 81.1V86.0H57.1V81.3Q57.1 80.4 56.9 79.8Q56.6 79.2 56.2 78.9Q55.7 78.6 54.9 78.6Q54.2 78.6 53.6 78.9Q53.0 79.3 52.7 80.0Q52.3 80.6 52.3 81.5V86.0Z M60.7 86.0V77.6H61.9L61.9 79.3H62.0Q62.4 78.4 63.2 77.9Q64.0 77.5 65.0 77.5Q65.6 77.5 66.2 77.7Q66.7 77.9 67.1 78.3Q67.5 78.7 67.8 79.4Q68.0 80.1 68.0 81.1V86.0H66.7V81.3Q66.7 80.4 66.5 79.8Q66.2 79.2 65.8 78.9Q65.3 78.6 64.5 78.6Q63.8 78.6 63.2 78.9Q62.6 79.3 62.3 80.0Q61.9 80.6 61.9 81.5V86.0Z M73.6 86.1Q72.4 86.1 71.6 85.6Q70.7 85.1 70.3 84.1Q69.8 83.1 69.8 81.8Q69.8 80.5 70.3 79.5Q70.7 78.5 71.5 78.0Q72.4 77.5 73.6 77.5Q74.8 77.5 75.7 78.0Q76.5 78.6 76.9 79.6Q77.3 80.7 77.2 82.0H71.1Q71.1 83.1 71.4 83.8Q71.7 84.4 72.3 84.8Q72.8 85.1 73.6 85.1Q74.5 85.1 75.1 84.7Q75.7 84.3 75.9 83.6H77.1Q77.0 84.4 76.5 85.0Q76.0 85.6 75.2 85.8Q74.5 86.1 73.6 86.1ZM71.1 81.3 70.9 81.1H76.0L75.9 81.3Q75.9 80.3 75.6 79.7Q75.3 79.1 74.8 78.8Q74.3 78.5 73.6 78.5Q72.8 78.5 72.3 78.8Q71.7 79.1 71.4 79.7Q71.1 80.4 71.1 81.3Z M82.6 86.1Q81.7 86.1 81.0 85.8Q80.2 85.5 79.7 85.0Q79.2 84.4 78.9 83.6Q78.6 82.8 78.6 81.8Q78.6 80.8 78.9 80.0Q79.2 79.2 79.7 78.7Q80.3 78.1 81.0 77.8Q81.8 77.5 82.7 77.5Q83.7 77.5 84.4 77.8Q85.2 78.2 85.7 78.8Q86.2 79.5 86.3 80.3H85.0Q84.9 79.7 84.5 79.3Q84.2 79.0 83.7 78.8Q83.2 78.6 82.7 78.6Q82.0 78.6 81.5 78.8Q81.0 79.0 80.6 79.5Q80.3 79.9 80.1 80.5Q79.9 81.1 79.9 81.8Q79.9 82.8 80.3 83.6Q80.6 84.3 81.2 84.7Q81.8 85.0 82.6 85.0Q83.3 85.0 83.8 84.8Q84.3 84.6 84.6 84.2Q84.9 83.7 85.0 83.2H86.3Q86.2 84.1 85.7 84.7Q85.2 85.4 84.4 85.8Q83.6 86.1 82.6 86.1Z M90.6 86.0Q89.7 86.0 89.3 85.6Q88.8 85.2 88.8 84.2V78.7H87.2V77.6H88.8V75.1L90.1 74.9V77.6H92.1V78.7H90.1V84.0Q90.1 84.5 90.4 84.7Q90.6 84.9 91.0 84.9H92.1V86.0Z M96.7 86.2Q95.9 86.2 95.3 86.0Q94.7 85.8 94.2 85.4Q93.8 85.1 93.5 84.6Q93.3 84.1 93.3 83.5H94.6Q94.6 84.1 94.9 84.5Q95.2 84.8 95.6 85.0Q96.1 85.2 96.7 85.2Q97.7 85.2 98.2 84.8Q98.8 84.4 98.8 83.8Q98.8 83.3 98.5 83.0Q98.3 82.7 97.8 82.5Q97.4 82.4 96.6 82.3Q95.6 82.1 94.9 81.9Q94.2 81.6 93.9 81.1Q93.5 80.7 93.5 79.9Q93.5 79.2 93.9 78.6Q94.3 78.1 95.0 77.8Q95.7 77.4 96.7 77.4Q97.7 77.4 98.4 77.8Q99.1 78.1 99.5 78.6Q99.9 79.2 99.9 80.0H98.6Q98.6 79.4 98.4 79.1Q98.1 78.7 97.7 78.6Q97.3 78.4 96.7 78.4Q95.8 78.4 95.3 78.8Q94.8 79.2 94.8 79.8Q94.8 80.2 95.0 80.5Q95.3 80.8 95.8 81.0Q96.3 81.1 97.1 81.2Q98.0 81.3 98.7 81.6Q99.4 81.9 99.7 82.3Q100.1 82.8 100.1 83.7Q100.1 84.5 99.6 85.0Q99.2 85.6 98.5 85.9Q97.7 86.2 96.7 86.2Z M108.5 86.1Q107.6 86.1 106.9 85.8Q106.2 85.4 105.9 84.6Q105.5 83.9 105.5 82.8V77.6H106.8V82.4Q106.8 83.3 107.0 83.8Q107.2 84.4 107.7 84.7Q108.2 85.0 109.0 85.0Q109.7 85.0 110.3 84.7Q110.9 84.3 111.2 83.6Q111.5 83.0 111.5 82.1V77.6H112.8V86.0H111.6L111.5 84.2H111.4Q111.1 85.1 110.3 85.6Q109.6 86.1 108.5 86.1Z M118.1 86.2Q117.3 86.2 116.7 86.0Q116.1 85.8 115.6 85.4Q115.2 85.1 115.0 84.6Q114.7 84.1 114.7 83.5H116.0Q116.0 84.1 116.3 84.5Q116.6 84.8 117.1 85.0Q117.6 85.2 118.2 85.2Q119.1 85.2 119.7 84.8Q120.2 84.4 120.2 83.8Q120.2 83.3 120.0 83.0Q119.7 82.7 119.3 82.5Q118.8 82.4 118.0 82.3Q117.0 82.1 116.3 81.9Q115.6 81.6 115.3 81.1Q114.9 80.7 114.9 79.9Q114.9 79.2 115.3 78.6Q115.7 78.1 116.4 77.8Q117.2 77.4 118.1 77.4Q119.1 77.4 119.8 77.8Q120.5 78.1 120.9 78.6Q121.3 79.2 121.3 80.0H120.1Q120.0 79.4 119.8 79.1Q119.5 78.7 119.1 78.6Q118.7 78.4 118.1 78.4Q117.2 78.4 116.7 78.8Q116.2 79.2 116.2 79.8Q116.2 80.2 116.5 80.5Q116.7 80.8 117.2 81.0Q117.7 81.1 118.5 81.2Q119.4 81.3 120.1 81.6Q120.8 81.9 121.1 82.3Q121.5 82.8 121.5 83.7Q121.5 84.5 121.1 85.0Q120.7 85.6 119.9 85.9Q119.1 86.2 118.1 86.2Z M126.7 86.1Q125.5 86.1 124.7 85.6Q123.8 85.1 123.4 84.1Q122.9 83.1 122.9 81.8Q122.9 80.5 123.4 79.5Q123.8 78.5 124.6 78.0Q125.5 77.5 126.7 77.5Q128.0 77.5 128.8 78.0Q129.6 78.6 130.0 79.6Q130.4 80.7 130.3 82.0H124.2Q124.2 83.1 124.5 83.8Q124.8 84.4 125.4 84.8Q126.0 85.1 126.7 85.1Q127.6 85.1 128.2 84.7Q128.8 84.3 129.0 83.6H130.2Q130.1 84.4 129.6 85.0Q129.1 85.6 128.4 85.8Q127.6 86.1 126.7 86.1ZM124.2 81.3 124.0 81.1H129.2L129.0 81.3Q129.0 80.3 128.7 79.7Q128.4 79.1 127.9 78.8Q127.4 78.5 126.7 78.5Q125.9 78.5 125.4 78.8Q124.8 79.1 124.5 79.7Q124.2 80.4 124.2 81.3Z M132.1 86.0V77.6H133.2L133.3 79.2H133.4Q133.6 78.4 134.3 77.9Q135.0 77.5 135.9 77.5Q136.0 77.5 136.1 77.5Q136.3 77.5 136.4 77.5V78.8Q136.3 78.7 136.1 78.7Q136.0 78.7 135.9 78.7Q135.1 78.7 134.6 79.0Q134.0 79.3 133.7 79.8Q133.4 80.3 133.4 81.0V86.0Z M140.6 86.2Q139.8 86.2 139.2 86.0Q138.5 85.8 138.1 85.4Q137.6 85.1 137.4 84.6Q137.2 84.1 137.2 83.5H138.4Q138.5 84.1 138.7 84.5Q139.0 84.8 139.5 85.0Q140.0 85.2 140.6 85.2Q141.6 85.2 142.1 84.8Q142.6 84.4 142.6 83.8Q142.6 83.3 142.4 83.0Q142.2 82.7 141.7 82.5Q141.2 82.4 140.5 82.3Q139.5 82.1 138.8 81.9Q138.1 81.6 137.7 81.1Q137.4 80.7 137.4 79.9Q137.4 79.2 137.8 78.6Q138.2 78.1 138.9 77.8Q139.6 77.4 140.6 77.4Q141.6 77.4 142.3 77.8Q143.0 78.1 143.4 78.6Q143.8 79.2 143.8 80.0H142.5Q142.5 79.4 142.2 79.1Q142.0 78.7 141.6 78.6Q141.1 78.4 140.6 78.4Q139.7 78.4 139.2 78.8Q138.7 79.2 138.7 79.8Q138.7 80.2 138.9 80.5Q139.2 80.8 139.7 81.0Q140.2 81.1 140.9 81.2Q141.9 81.3 142.6 81.6Q143.2 81.9 143.6 82.3Q143.9 82.8 143.9 83.7Q143.9 84.5 143.5 85.0Q143.1 85.6 142.3 85.9Q141.6 86.2 140.6 86.2Z M150.6 86.0 148.4 77.6H149.7L151.0 82.6L151.5 84.8H151.6L152.1 82.6L153.2 77.6H154.8L156.0 82.6L156.5 84.9H156.5L157.0 82.6L158.3 77.6H159.5L157.4 86.0H155.6L154.5 81.3L154.0 79.1H153.9L153.5 81.3L152.4 86.0Z M160.9 86.0V77.6H162.2V86.0ZM161.6 76.2Q161.2 76.2 161.0 76.0Q160.8 75.8 160.8 75.4Q160.8 75.1 161.0 74.9Q161.2 74.7 161.6 74.7Q161.9 74.7 162.1 74.9Q162.4 75.1 162.4 75.4Q162.4 75.8 162.1 76.0Q161.9 76.2 161.6 76.2Z M167.2 86.0Q166.3 86.0 165.8 85.6Q165.4 85.2 165.4 84.2V78.7H163.7V77.6H165.4V75.1L166.7 74.9V77.6H168.6V78.7H166.7V84.0Q166.7 84.5 166.9 84.7Q167.1 84.9 167.6 84.9H168.6V86.0Z M170.4 86.0V74.3H171.6V79.3H171.7Q172.1 78.4 172.9 77.9Q173.7 77.5 174.7 77.5Q175.3 77.5 175.9 77.7Q176.4 77.9 176.8 78.3Q177.2 78.7 177.5 79.4Q177.7 80.1 177.7 81.1V86.0H176.4V81.3Q176.4 80.4 176.2 79.8Q175.9 79.2 175.5 78.9Q175.0 78.6 174.3 78.6Q173.5 78.6 172.9 78.9Q172.3 79.3 172.0 80.0Q171.6 80.6 171.6 81.5V86.0Z M186.7 86.1Q185.9 86.1 185.2 85.8Q184.6 85.5 184.1 85.0Q183.7 84.4 183.4 83.6Q183.2 82.8 183.2 81.8Q183.2 80.4 183.6 79.5Q184.0 78.5 184.8 78.0Q185.6 77.5 186.7 77.5Q187.4 77.5 188.0 77.7Q188.6 77.9 189.0 78.3Q189.4 78.8 189.6 79.3H189.7V74.3H191.0V86.0H189.7L189.7 84.3H189.6Q189.3 85.1 188.5 85.6Q187.7 86.1 186.7 86.1ZM187.1 85.1Q187.9 85.1 188.5 84.7Q189.1 84.3 189.4 83.6Q189.7 83.0 189.7 82.3V81.3Q189.7 80.5 189.4 79.9Q189.0 79.3 188.5 78.9Q187.9 78.5 187.1 78.5Q186.3 78.5 185.7 78.9Q185.1 79.3 184.8 80.0Q184.5 80.8 184.5 81.8Q184.5 82.8 184.8 83.5Q185.1 84.3 185.7 84.7Q186.3 85.1 187.1 85.1Z M196.9 86.1Q196.0 86.1 195.3 85.8Q194.5 85.5 194.0 85.0Q193.5 84.4 193.2 83.6Q192.9 82.8 192.9 81.8Q192.9 80.5 193.4 79.6Q193.9 78.6 194.8 78.0Q195.7 77.5 196.9 77.5Q197.9 77.5 198.6 77.8Q199.3 78.1 199.9 78.6Q200.4 79.2 200.7 80.0Q201.0 80.8 201.0 81.8Q201.0 83.1 200.5 84.1Q200.0 85.0 199.1 85.6Q198.2 86.1 196.9 86.1ZM196.9 85.0Q197.8 85.0 198.4 84.6Q199.0 84.3 199.3 83.5Q199.7 82.8 199.7 81.8Q199.7 81.1 199.5 80.5Q199.3 79.9 198.9 79.4Q198.6 79.0 198.1 78.8Q197.6 78.6 196.9 78.6Q196.1 78.6 195.5 79.0Q194.9 79.3 194.6 80.1Q194.2 80.8 194.2 81.8Q194.2 82.6 194.4 83.2Q194.6 83.8 194.9 84.2Q195.3 84.6 195.8 84.8Q196.3 85.0 196.9 85.0Z M202.9 86.0V77.6H204.1L204.2 79.3H204.3Q204.6 78.4 205.4 77.9Q206.2 77.5 207.2 77.5Q208.1 77.5 208.8 77.9Q209.6 78.4 209.9 79.5H210.0Q210.4 78.5 211.2 78.0Q212.0 77.5 213.1 77.5Q213.9 77.5 214.6 77.8Q215.2 78.2 215.6 79.0Q216.0 79.8 216.0 81.1V86.0H214.7V81.3Q214.7 80.4 214.5 79.8Q214.3 79.2 213.8 78.9Q213.4 78.6 212.6 78.6Q211.9 78.6 211.3 78.9Q210.7 79.3 210.4 80.0Q210.1 80.6 210.1 81.5V86.0H208.8V81.3Q208.8 80.4 208.6 79.8Q208.4 79.2 207.9 78.9Q207.4 78.6 206.7 78.6Q206.0 78.6 205.4 78.9Q204.8 79.3 204.5 80.0Q204.2 80.6 204.2 81.5V86.0Z M221.4 86.1Q220.7 86.1 220.0 85.8Q219.4 85.5 218.9 85.0Q218.4 84.4 218.2 83.6Q217.9 82.8 217.9 81.8Q217.9 80.4 218.4 79.5Q218.8 78.5 219.6 78.0Q220.4 77.5 221.4 77.5Q222.1 77.5 222.7 77.7Q223.3 77.9 223.8 78.3Q224.2 78.8 224.4 79.3H224.4L224.5 77.6H225.7V86.0H224.5L224.4 84.3H224.4Q224.1 85.1 223.3 85.6Q222.5 86.1 221.4 86.1ZM221.8 85.1Q222.7 85.1 223.2 84.7Q223.8 84.3 224.1 83.6Q224.4 83.0 224.4 82.3V81.3Q224.4 80.5 224.1 79.9Q223.8 79.3 223.2 78.9Q222.7 78.5 221.9 78.5Q221.1 78.5 220.5 78.9Q219.9 79.3 219.6 80.0Q219.3 80.8 219.3 81.8Q219.3 82.8 219.6 83.5Q219.9 84.3 220.5 84.7Q221.0 85.1 221.8 85.1Z M228.2 86.0V77.6H229.5V86.0ZM228.8 76.2Q228.5 76.2 228.2 76.0Q228.0 75.8 228.0 75.4Q228.0 75.1 228.2 74.9Q228.5 74.7 228.8 74.7Q229.2 74.7 229.4 74.9Q229.6 75.1 229.6 75.4Q229.6 75.8 229.4 76.0Q229.2 76.2 228.8 76.2Z M231.9 86.0V77.6H233.1L233.2 79.3H233.3Q233.6 78.4 234.4 77.9Q235.2 77.5 236.2 77.5Q236.8 77.5 237.4 77.7Q238.0 77.9 238.4 78.3Q238.8 78.7 239.0 79.4Q239.2 80.1 239.2 81.1V86.0H237.9V81.3Q237.9 80.4 237.7 79.8Q237.5 79.2 237.0 78.9Q236.5 78.6 235.8 78.6Q235.0 78.6 234.4 78.9Q233.8 79.3 233.5 80.0Q233.2 80.6 233.2 81.5V86.0Z M248.4 86.1Q247.2 86.1 246.3 85.6Q245.5 85.1 245.0 84.1Q244.6 83.1 244.6 81.8Q244.6 80.5 245.0 79.5Q245.5 78.5 246.3 78.0Q247.1 77.5 248.3 77.5Q249.6 77.5 250.4 78.0Q251.3 78.6 251.6 79.6Q252.0 80.7 251.9 82.0H245.8Q245.8 83.1 246.2 83.8Q246.5 84.4 247.0 84.8Q247.6 85.1 248.4 85.1Q249.3 85.1 249.8 84.7Q250.4 84.3 250.6 83.6H251.9Q251.7 84.4 251.2 85.0Q250.7 85.6 250.0 85.8Q249.3 86.1 248.4 86.1ZM245.8 81.3 245.7 81.1H250.8L250.7 81.3Q250.7 80.3 250.4 79.7Q250.1 79.1 249.6 78.8Q249.0 78.5 248.3 78.5Q247.6 78.5 247.0 78.8Q246.5 79.1 246.2 79.7Q245.9 80.4 245.8 81.3Z M252.6 86.0 255.9 81.6 252.9 77.6H254.4L256.5 80.5L256.7 80.8H256.8L257.0 80.5L259.1 77.6H260.5L257.6 81.6L260.9 86.0H259.3L257.0 82.7L256.8 82.4H256.7L256.5 82.7L254.0 86.0Z M262.4 88.7V77.6H263.6L263.7 79.3H263.7Q264.0 78.5 264.8 78.0Q265.6 77.5 266.7 77.5Q267.5 77.5 268.1 77.8Q268.7 78.1 269.2 78.6Q269.7 79.2 269.9 80.0Q270.2 80.8 270.2 81.8Q270.2 83.2 269.7 84.1Q269.3 85.1 268.5 85.6Q267.7 86.1 266.7 86.1Q266.0 86.1 265.4 85.9Q264.8 85.7 264.4 85.3Q264.0 84.8 263.7 84.3H263.7V88.7ZM266.2 85.1Q267.1 85.1 267.6 84.7Q268.2 84.3 268.5 83.6Q268.8 82.8 268.8 81.8Q268.8 80.8 268.5 80.1Q268.2 79.3 267.6 78.9Q267.1 78.6 266.3 78.6Q265.4 78.6 264.9 78.9Q264.3 79.3 264.0 79.9Q263.7 80.6 263.7 81.3V82.3Q263.7 83.1 264.0 83.7Q264.3 84.3 264.9 84.7Q265.4 85.1 266.2 85.1Z M275.7 86.1Q274.5 86.1 273.6 85.6Q272.8 85.1 272.3 84.1Q271.9 83.1 271.9 81.8Q271.9 80.5 272.3 79.5Q272.8 78.5 273.6 78.0Q274.4 77.5 275.6 77.5Q276.9 77.5 277.7 78.0Q278.6 78.6 279.0 79.6Q279.3 80.7 279.2 82.0H273.1Q273.2 83.1 273.5 83.8Q273.8 84.4 274.3 84.8Q274.9 85.1 275.7 85.1Q276.6 85.1 277.2 84.7Q277.7 84.3 277.9 83.6H279.2Q279.0 84.4 278.5 85.0Q278.0 85.6 277.3 85.8Q276.6 86.1 275.7 86.1ZM273.2 81.3 273.0 81.1H278.1L278.0 81.3Q278.0 80.3 277.7 79.7Q277.4 79.1 276.9 78.8Q276.3 78.5 275.6 78.5Q274.9 78.5 274.4 78.8Q273.8 79.1 273.5 79.7Q273.2 80.4 273.2 81.3Z M281.0 86.0V77.6H282.2L282.3 79.2H282.3Q282.6 78.4 283.3 77.9Q284.0 77.5 284.8 77.5Q285.0 77.5 285.1 77.5Q285.2 77.5 285.3 77.5V78.8Q285.2 78.7 285.1 78.7Q285.0 78.7 284.8 78.7Q284.1 78.7 283.6 79.0Q283.0 79.3 282.7 79.8Q282.4 80.3 282.3 81.0V86.0Z M289.6 86.0Q288.7 86.0 288.2 85.6Q287.8 85.2 287.8 84.2V78.7H286.2V77.6H287.8V75.1L289.1 74.9V77.6H291.0V78.7H289.1V84.0Q289.1 84.5 289.3 84.7Q289.5 84.9 290.0 84.9H291.1V86.0Z M295.7 86.2Q294.9 86.2 294.3 86.0Q293.6 85.8 293.2 85.4Q292.7 85.1 292.5 84.6Q292.3 84.1 292.2 83.5H293.5Q293.6 84.1 293.8 84.5Q294.1 84.8 294.6 85.0Q295.1 85.2 295.7 85.2Q296.7 85.2 297.2 84.8Q297.7 84.4 297.7 83.8Q297.7 83.3 297.5 83.0Q297.3 82.7 296.8 82.5Q296.3 82.4 295.6 82.3Q294.5 82.1 293.9 81.9Q293.2 81.6 292.8 81.1Q292.5 80.7 292.5 79.9Q292.5 79.2 292.9 78.6Q293.3 78.1 294.0 77.8Q294.7 77.4 295.7 77.4Q296.6 77.4 297.3 77.8Q298.0 78.1 298.4 78.6Q298.8 79.2 298.9 80.0H297.6Q297.6 79.4 297.3 79.1Q297.1 78.7 296.6 78.6Q296.2 78.4 295.6 78.4Q294.8 78.4 294.3 78.8Q293.8 79.2 293.8 79.8Q293.8 80.2 294.0 80.5Q294.2 80.8 294.7 81.0Q295.2 81.1 296.0 81.2Q297.0 81.3 297.6 81.6Q298.3 81.9 298.7 82.3Q299.0 82.8 299.0 83.7Q299.0 84.5 298.6 85.0Q298.2 85.6 297.4 85.9Q296.7 86.2 295.7 86.2Z M301.2 86.1Q300.9 86.1 300.7 85.9Q300.5 85.7 300.5 85.4Q300.5 85.1 300.7 84.9Q300.9 84.7 301.2 84.7Q301.6 84.7 301.8 84.9Q302.0 85.1 302.0 85.4Q302.0 85.7 301.8 85.9Q301.6 86.1 301.2 86.1Z M307.7 86.0V74.3H309.1V86.0Z M315.3 86.0V74.3H316.6V86.0Z M322.3 86.1Q321.1 86.1 320.2 85.6Q319.4 85.1 318.9 84.1Q318.5 83.1 318.5 81.8Q318.5 80.5 318.9 79.5Q319.4 78.5 320.2 78.0Q321.0 77.5 322.2 77.5Q323.5 77.5 324.3 78.0Q325.2 78.6 325.5 79.6Q325.9 80.7 325.8 82.0H319.7Q319.7 83.1 320.1 83.8Q320.4 84.4 320.9 84.8Q321.5 85.1 322.3 85.1Q323.2 85.1 323.7 84.7Q324.3 84.3 324.5 83.6H325.8Q325.6 84.4 325.1 85.0Q324.6 85.6 323.9 85.8Q323.2 86.1 322.3 86.1ZM319.7 81.3 319.6 81.1H324.7L324.6 81.3Q324.6 80.3 324.3 79.7Q324.0 79.1 323.5 78.8Q322.9 78.5 322.2 78.5Q321.5 78.5 320.9 78.8Q320.4 79.1 320.1 79.7Q319.8 80.4 319.7 81.3Z M330.8 86.1Q330.0 86.1 329.4 85.8Q328.7 85.5 328.2 85.0Q327.8 84.4 327.5 83.6Q327.3 82.8 327.3 81.8Q327.3 80.4 327.7 79.5Q328.2 78.5 328.9 78.0Q329.7 77.5 330.8 77.5Q331.5 77.5 332.1 77.7Q332.7 77.9 333.1 78.3Q333.5 78.8 333.7 79.3H333.8L333.8 77.6H335.1V86.0H333.8L333.8 84.3H333.7Q333.4 85.1 332.6 85.6Q331.9 86.1 330.8 86.1ZM331.2 85.1Q332.0 85.1 332.6 84.7Q333.2 84.3 333.5 83.6Q333.8 83.0 333.8 82.3V81.3Q333.8 80.5 333.5 79.9Q333.2 79.3 332.6 78.9Q332.0 78.5 331.2 78.5Q330.4 78.5 329.8 78.9Q329.2 79.3 328.9 80.0Q328.6 80.8 328.6 81.8Q328.6 82.8 328.9 83.5Q329.2 84.3 329.8 84.7Q330.4 85.1 331.2 85.1Z M340.5 86.1Q339.8 86.1 339.1 85.8Q338.5 85.5 338.0 85.0Q337.5 84.4 337.3 83.6Q337.0 82.8 337.0 81.8Q337.0 80.4 337.5 79.5Q337.9 78.5 338.7 78.0Q339.5 77.5 340.5 77.5Q341.2 77.5 341.8 77.7Q342.4 77.9 342.9 78.3Q343.3 78.8 343.5 79.3H343.5V74.3H344.8V86.0H343.6L343.6 84.3H343.5Q343.2 85.1 342.4 85.6Q341.6 86.1 340.5 86.1ZM340.9 85.1Q341.8 85.1 342.4 84.7Q342.9 84.3 343.2 83.6Q343.5 83.0 343.5 82.3V81.3Q343.5 80.5 343.2 79.9Q342.9 79.3 342.3 78.9Q341.8 78.5 341.0 78.5Q340.2 78.5 339.6 78.9Q339.0 79.3 338.7 80.0Q338.4 80.8 338.4 81.8Q338.4 82.8 338.7 83.5Q339.0 84.3 339.6 84.7Q340.1 85.1 340.9 85.1Z M353.5 86.0Q352.6 86.0 352.1 85.6Q351.7 85.2 351.7 84.2V78.7H350.0V77.6H351.7V75.1L353.0 74.9V77.6H354.9V78.7H353.0V84.0Q353.0 84.5 353.2 84.7Q353.4 84.9 353.9 84.9H354.9V86.0Z M356.7 86.0V74.3H358.0V79.3H358.0Q358.4 78.4 359.2 77.9Q360.0 77.5 361.0 77.5Q361.6 77.5 362.2 77.7Q362.7 77.9 363.1 78.3Q363.6 78.7 363.8 79.4Q364.0 80.1 364.0 81.1V86.0H362.7V81.3Q362.7 80.4 362.5 79.8Q362.2 79.2 361.8 78.9Q361.3 78.6 360.6 78.6Q359.8 78.6 359.2 78.9Q358.6 79.3 358.3 80.0Q358.0 80.6 358.0 81.5V86.0Z M369.6 86.1Q368.4 86.1 367.6 85.6Q366.7 85.1 366.3 84.1Q365.8 83.1 365.8 81.8Q365.8 80.5 366.3 79.5Q366.7 78.5 367.6 78.0Q368.4 77.5 369.6 77.5Q370.9 77.5 371.7 78.0Q372.5 78.6 372.9 79.6Q373.3 80.7 373.2 82.0H367.1Q367.1 83.1 367.4 83.8Q367.7 84.4 368.3 84.8Q368.9 85.1 369.6 85.1Q370.5 85.1 371.1 84.7Q371.7 84.3 371.9 83.6H373.1Q373.0 84.4 372.5 85.0Q372.0 85.6 371.3 85.8Q370.5 86.1 369.6 86.1ZM367.1 81.3 367.0 81.1H372.1L371.9 81.3Q371.9 80.3 371.6 79.7Q371.4 79.1 370.8 78.8Q370.3 78.5 369.6 78.5Q368.8 78.5 368.3 78.8Q367.8 79.1 367.4 79.7Q367.1 80.4 367.1 81.3Z M381.6 86.2Q380.8 86.2 380.1 86.0Q379.5 85.8 379.1 85.4Q378.6 85.1 378.4 84.6Q378.1 84.1 378.1 83.5H379.4Q379.4 84.1 379.7 84.5Q380.0 84.8 380.5 85.0Q381.0 85.2 381.6 85.2Q382.6 85.2 383.1 84.8Q383.6 84.4 383.6 83.8Q383.6 83.3 383.4 83.0Q383.2 82.7 382.7 82.5Q382.2 82.4 381.5 82.3Q380.4 82.1 379.7 81.9Q379.1 81.6 378.7 81.1Q378.4 80.7 378.4 79.9Q378.4 79.2 378.8 78.6Q379.2 78.1 379.9 77.8Q380.6 77.4 381.6 77.4Q382.5 77.4 383.2 77.8Q383.9 78.1 384.3 78.6Q384.7 79.2 384.8 80.0H383.5Q383.5 79.4 383.2 79.1Q383.0 78.7 382.5 78.6Q382.1 78.4 381.5 78.4Q380.6 78.4 380.1 78.8Q379.6 79.2 379.6 79.8Q379.6 80.2 379.9 80.5Q380.1 80.8 380.6 81.0Q381.1 81.1 381.9 81.2Q382.8 81.3 383.5 81.6Q384.2 81.9 384.6 82.3Q384.9 82.8 384.9 83.7Q384.9 84.5 384.5 85.0Q384.1 85.6 383.3 85.9Q382.6 86.2 381.6 86.2Z M386.4 88.7V87.6H387.3Q387.7 87.6 388.0 87.5Q388.2 87.4 388.4 87.2Q388.6 86.9 388.8 86.6L389.3 85.2V85.7L385.9 77.6H387.3L389.0 82.2L389.8 84.2H389.9L390.6 82.2L392.2 77.6H393.6L390.0 86.9Q389.7 87.5 389.4 87.9Q389.1 88.3 388.6 88.5Q388.1 88.7 387.5 88.7Z M398.0 86.2Q397.2 86.2 396.6 86.0Q395.9 85.8 395.5 85.4Q395.0 85.1 394.8 84.6Q394.6 84.1 394.5 83.5H395.8Q395.9 84.1 396.1 84.5Q396.4 84.8 396.9 85.0Q397.4 85.2 398.0 85.2Q399.0 85.2 399.5 84.8Q400.0 84.4 400.0 83.8Q400.0 83.3 399.8 83.0Q399.6 82.7 399.1 82.5Q398.6 82.4 397.9 82.3Q396.8 82.1 396.2 81.9Q395.5 81.6 395.1 81.1Q394.8 80.7 394.8 79.9Q394.8 79.2 395.2 78.6Q395.6 78.1 396.3 77.8Q397.0 77.4 398.0 77.4Q398.9 77.4 399.6 77.8Q400.4 78.1 400.8 78.6Q401.2 79.2 401.2 80.0H399.9Q399.9 79.4 399.6 79.1Q399.4 78.7 399.0 78.6Q398.5 78.4 398.0 78.4Q397.1 78.4 396.6 78.8Q396.1 79.2 396.1 79.8Q396.1 80.2 396.3 80.5Q396.5 80.8 397.0 81.0Q397.6 81.1 398.3 81.2Q399.3 81.3 399.9 81.6Q400.6 81.9 401.0 82.3Q401.3 82.8 401.3 83.7Q401.3 84.5 400.9 85.0Q400.5 85.6 399.7 85.9Q399.0 86.2 398.0 86.2Z M405.8 86.0Q404.9 86.0 404.4 85.6Q404.0 85.2 404.0 84.2V78.7H402.4V77.6H404.0V75.1L405.3 74.9V77.6H407.2V78.7H405.3V84.0Q405.3 84.5 405.5 84.7Q405.7 84.9 406.2 84.9H407.2V86.0Z M412.0 86.1Q410.8 86.1 409.9 85.6Q409.1 85.1 408.6 84.1Q408.2 83.1 408.2 81.8Q408.2 80.5 408.6 79.5Q409.1 78.5 409.9 78.0Q410.7 77.5 411.9 77.5Q413.2 77.5 414.0 78.0Q414.9 78.6 415.2 79.6Q415.6 80.7 415.5 82.0H409.4Q409.4 83.1 409.8 83.8Q410.1 84.4 410.6 84.8Q411.2 85.1 412.0 85.1Q412.9 85.1 413.4 84.7Q414.0 84.3 414.2 83.6H415.5Q415.3 84.4 414.8 85.0Q414.3 85.6 413.6 85.8Q412.9 86.1 412.0 86.1ZM409.4 81.3 409.3 81.1H414.4L414.3 81.3Q414.3 80.3 414.0 79.7Q413.7 79.1 413.2 78.8Q412.6 78.5 411.9 78.5Q411.2 78.5 410.6 78.8Q410.1 79.1 409.8 79.7Q409.5 80.4 409.4 81.3Z M417.3 86.0V77.6H418.6L418.6 79.3H418.7Q419.1 78.4 419.9 77.9Q420.6 77.5 421.6 77.5Q422.5 77.5 423.3 77.9Q424.0 78.4 424.3 79.5H424.5Q424.8 78.5 425.7 78.0Q426.5 77.5 427.5 77.5Q428.4 77.5 429.0 77.8Q429.7 78.2 430.1 79.0Q430.4 79.8 430.4 81.1V86.0H429.2V81.3Q429.2 80.4 428.9 79.8Q428.7 79.2 428.2 78.9Q427.8 78.6 427.1 78.6Q426.3 78.6 425.7 78.9Q425.2 79.3 424.9 80.0Q424.5 80.6 424.5 81.5V86.0H423.2V81.3Q423.2 80.4 423.0 79.8Q422.8 79.2 422.3 78.9Q421.9 78.6 421.2 78.6Q420.4 78.6 419.8 78.9Q419.2 79.3 418.9 80.0Q418.6 80.6 418.6 81.5V86.0Z M439.4 86.1Q438.6 86.1 438.0 85.8Q437.3 85.5 436.9 85.0Q436.4 84.4 436.2 83.6Q435.9 82.8 435.9 81.8Q435.9 80.4 436.4 79.5Q436.8 78.5 437.6 78.0Q438.4 77.5 439.4 77.5Q440.1 77.5 440.7 77.7Q441.3 77.9 441.7 78.3Q442.2 78.8 442.4 79.3H442.4L442.5 77.6H443.7V86.0H442.5L442.4 84.3H442.4Q442.0 85.1 441.3 85.6Q440.5 86.1 439.4 86.1ZM439.8 85.1Q440.7 85.1 441.2 84.7Q441.8 84.3 442.1 83.6Q442.4 83.0 442.4 82.3V81.3Q442.4 80.5 442.1 79.9Q441.8 79.3 441.2 78.9Q440.7 78.5 439.8 78.5Q439.0 78.5 438.5 78.9Q437.9 79.3 437.6 80.0Q437.2 80.8 437.2 81.8Q437.2 82.8 437.6 83.5Q437.9 84.3 438.4 84.7Q439.0 85.1 439.8 85.1Z M446.1 86.0V77.6H447.3L447.4 79.2H447.4Q447.7 78.4 448.4 77.9Q449.1 77.5 449.9 77.5Q450.1 77.5 450.2 77.5Q450.3 77.5 450.4 77.5V78.8Q450.3 78.7 450.2 78.7Q450.1 78.7 449.9 78.7Q449.2 78.7 448.7 79.0Q448.1 79.3 447.8 79.8Q447.5 80.3 447.4 81.0V86.0Z M455.1 86.1Q454.2 86.1 453.4 85.8Q452.7 85.5 452.2 85.0Q451.6 84.4 451.4 83.6Q451.1 82.8 451.1 81.8Q451.1 80.8 451.4 80.0Q451.6 79.2 452.2 78.7Q452.7 78.1 453.5 77.8Q454.2 77.5 455.2 77.5Q456.1 77.5 456.9 77.8Q457.7 78.2 458.1 78.8Q458.6 79.5 458.7 80.3H457.5Q457.3 79.7 457.0 79.3Q456.7 79.0 456.2 78.8Q455.7 78.6 455.1 78.6Q454.5 78.6 454.0 78.8Q453.5 79.0 453.1 79.5Q452.8 79.9 452.6 80.5Q452.4 81.1 452.4 81.8Q452.4 82.8 452.7 83.6Q453.1 84.3 453.7 84.7Q454.3 85.0 455.1 85.0Q455.8 85.0 456.3 84.8Q456.8 84.6 457.1 84.2Q457.4 83.7 457.5 83.2H458.8Q458.7 84.1 458.2 84.7Q457.7 85.4 456.9 85.8Q456.1 86.1 455.1 86.1Z M460.6 86.0V74.3H461.9V79.3H462.0Q462.3 78.4 463.1 77.9Q463.9 77.5 464.9 77.5Q465.5 77.5 466.1 77.7Q466.6 77.9 467.0 78.3Q467.5 78.7 467.7 79.4Q467.9 80.1 467.9 81.1V86.0H466.6V81.3Q466.6 80.4 466.4 79.8Q466.1 79.2 465.7 78.9Q465.2 78.6 464.5 78.6Q463.7 78.6 463.1 78.9Q462.5 79.3 462.2 80.0Q461.9 80.6 461.9 81.5V86.0Z M470.2 86.0V77.6H471.5V86.0ZM470.8 76.2Q470.5 76.2 470.3 76.0Q470.0 75.8 470.0 75.4Q470.0 75.1 470.3 74.9Q470.5 74.7 470.8 74.7Q471.2 74.7 471.4 74.9Q471.6 75.1 471.6 75.4Q471.6 75.8 471.4 76.0Q471.2 76.2 470.8 76.2Z M476.4 86.0Q475.6 86.0 475.1 85.6Q474.7 85.2 474.7 84.2V78.7H473.0V77.6H474.7V75.1L475.9 74.9V77.6H477.9V78.7H476.0V84.0Q476.0 84.5 476.2 84.7Q476.4 84.9 476.8 84.9H477.9V86.0Z M482.6 86.1Q481.4 86.1 480.6 85.6Q479.7 85.1 479.3 84.1Q478.8 83.1 478.8 81.8Q478.8 80.5 479.3 79.5Q479.7 78.5 480.6 78.0Q481.4 77.5 482.6 77.5Q483.9 77.5 484.7 78.0Q485.5 78.6 485.9 79.6Q486.3 80.7 486.2 82.0H480.1Q480.1 83.1 480.4 83.8Q480.7 84.4 481.3 84.8Q481.9 85.1 482.6 85.1Q483.5 85.1 484.1 84.7Q484.7 84.3 484.9 83.6H486.1Q486.0 84.4 485.5 85.0Q485.0 85.6 484.3 85.8Q483.5 86.1 482.6 86.1ZM480.1 81.3 480.0 81.1H485.1L484.9 81.3Q484.9 80.3 484.7 79.7Q484.4 79.1 483.8 78.8Q483.3 78.5 482.6 78.5Q481.9 78.5 481.3 78.8Q480.8 79.1 480.5 79.7Q480.1 80.4 480.1 81.3Z M491.7 86.1Q490.8 86.1 490.0 85.8Q489.3 85.5 488.7 85.0Q488.2 84.4 487.9 83.6Q487.6 82.8 487.6 81.8Q487.6 80.8 487.9 80.0Q488.2 79.2 488.8 78.7Q489.3 78.1 490.0 77.8Q490.8 77.5 491.7 77.5Q492.7 77.5 493.5 77.8Q494.2 78.2 494.7 78.8Q495.2 79.5 495.3 80.3H494.0Q493.9 79.7 493.6 79.3Q493.2 79.0 492.7 78.8Q492.3 78.6 491.7 78.6Q491.0 78.6 490.5 78.8Q490.0 79.0 489.7 79.5Q489.3 79.9 489.1 80.5Q488.9 81.1 488.9 81.8Q488.9 82.8 489.3 83.6Q489.6 84.3 490.2 84.7Q490.8 85.0 491.7 85.0Q492.3 85.0 492.8 84.8Q493.3 84.6 493.6 84.2Q494.0 83.7 494.1 83.2H495.3Q495.2 84.1 494.7 84.7Q494.2 85.4 493.4 85.8Q492.7 86.1 491.7 86.1Z M499.6 86.0Q498.8 86.0 498.3 85.6Q497.9 85.2 497.9 84.2V78.7H496.2V77.6H497.9V75.1L499.1 74.9V77.6H501.1V78.7H499.2V84.0Q499.2 84.5 499.4 84.7Q499.6 84.9 500.0 84.9H501.1V86.0Z M505.7 86.1Q504.8 86.1 504.1 85.8Q503.4 85.4 503.1 84.6Q502.7 83.9 502.7 82.8V77.6H504.0V82.4Q504.0 83.3 504.2 83.8Q504.4 84.4 504.9 84.7Q505.4 85.0 506.2 85.0Q506.9 85.0 507.5 84.7Q508.1 84.3 508.4 83.6Q508.7 83.0 508.7 82.1V77.6H510.0V86.0H508.8L508.7 84.2H508.6Q508.3 85.1 507.5 85.6Q506.8 86.1 505.7 86.1Z M512.5 86.0V77.6H513.6L513.7 79.2H513.8Q514.0 78.4 514.7 77.9Q515.4 77.5 516.3 77.5Q516.4 77.5 516.5 77.5Q516.7 77.5 516.8 77.5V78.8Q516.7 78.7 516.5 78.7Q516.4 78.7 516.3 78.7Q515.5 78.7 515.0 79.0Q514.4 79.3 514.1 79.8Q513.8 80.3 513.7 81.0V86.0Z M521.1 86.1Q519.9 86.1 519.1 85.6Q518.2 85.1 517.8 84.1Q517.3 83.1 517.3 81.8Q517.3 80.5 517.8 79.5Q518.2 78.5 519.0 78.0Q519.9 77.5 521.1 77.5Q522.4 77.5 523.2 78.0Q524.0 78.6 524.4 79.6Q524.8 80.7 524.7 82.0H518.6Q518.6 83.1 518.9 83.8Q519.2 84.4 519.8 84.8Q520.4 85.1 521.1 85.1Q522.0 85.1 522.6 84.7Q523.2 84.3 523.4 83.6H524.6Q524.5 84.4 524.0 85.0Q523.5 85.6 522.8 85.8Q522.0 86.1 521.1 86.1ZM518.6 81.3 518.4 81.1H523.6L523.4 81.3Q523.4 80.3 523.1 79.7Q522.8 79.1 522.3 78.8Q521.8 78.5 521.1 78.5Q520.3 78.5 519.8 78.8Q519.2 79.1 518.9 79.7Q518.6 80.4 518.6 81.3Z M533.2 86.1Q532.4 86.1 531.8 85.8Q531.1 85.5 530.7 85.0Q530.2 84.4 530.0 83.6Q529.7 82.8 529.7 81.8Q529.7 80.4 530.2 79.5Q530.6 78.5 531.4 78.0Q532.2 77.5 533.2 77.5Q533.9 77.5 534.5 77.7Q535.1 77.9 535.5 78.3Q536.0 78.8 536.1 79.3H536.2L536.3 77.6H537.5V86.0H536.3L536.2 84.3H536.1Q535.8 85.1 535.1 85.6Q534.3 86.1 533.2 86.1ZM533.6 85.1Q534.4 85.1 535.0 84.7Q535.6 84.3 535.9 83.6Q536.2 83.0 536.2 82.3V81.3Q536.2 80.5 535.9 79.9Q535.6 79.3 535.0 78.9Q534.4 78.5 533.6 78.5Q532.8 78.5 532.2 78.9Q531.7 79.3 531.4 80.0Q531.0 80.8 531.0 81.8Q531.0 82.8 531.4 83.5Q531.7 84.3 532.2 84.7Q532.8 85.1 533.6 85.1Z M539.9 86.0V77.6H541.2L541.2 79.3H541.3Q541.7 78.4 542.5 77.9Q543.3 77.5 544.2 77.5Q544.9 77.5 545.4 77.7Q546.0 77.9 546.4 78.3Q546.8 78.7 547.0 79.4Q547.3 80.1 547.3 81.1V86.0H546.0V81.3Q546.0 80.4 545.7 79.8Q545.5 79.2 545.0 78.9Q544.6 78.6 543.8 78.6Q543.0 78.6 542.4 78.9Q541.9 79.3 541.5 80.0Q541.2 80.6 541.2 81.5V86.0Z M552.7 86.1Q551.9 86.1 551.3 85.8Q550.6 85.5 550.1 85.0Q549.7 84.4 549.4 83.6Q549.2 82.8 549.2 81.8Q549.2 80.4 549.6 79.5Q550.1 78.5 550.8 78.0Q551.6 77.5 552.7 77.5Q553.4 77.5 554.0 77.7Q554.6 77.9 555.0 78.3Q555.4 78.8 555.6 79.3H555.7V74.3H557.0V86.0H555.7L555.7 84.3H555.6Q555.3 85.1 554.5 85.6Q553.8 86.1 552.7 86.1ZM553.1 85.1Q553.9 85.1 554.5 84.7Q555.1 84.3 555.4 83.6Q555.7 83.0 555.7 82.3V81.3Q555.7 80.5 555.4 79.9Q555.1 79.3 554.5 78.9Q553.9 78.5 553.1 78.5Q552.3 78.5 551.7 78.9Q551.1 79.3 550.8 80.0Q550.5 80.8 550.5 81.8Q550.5 82.8 550.8 83.5Q551.1 84.3 551.7 84.7Q552.3 85.1 553.1 85.1Z" fill="#9198a1"/><path d="M33.8 110.1Q32.4 110.1 31.3 109.6Q30.3 109.1 29.7 108.1Q29.2 107.1 29.2 105.7V98.3H30.5V105.7Q30.5 106.8 30.9 107.5Q31.3 108.2 32.1 108.5Q32.8 108.9 33.8 108.9Q35.0 108.9 35.7 108.5Q36.4 108.1 36.8 107.4Q37.2 106.7 37.2 105.7V98.3H38.5V105.7Q38.5 107.1 37.9 108.1Q37.4 109.1 36.4 109.6Q35.3 110.1 33.8 110.1Z M41.0 110.0V98.3H43.2L45.8 105.2L46.8 108.3H46.9L47.9 105.2L50.4 98.3H52.6V110.0H51.3V103.9L51.4 99.6H51.2L49.8 103.6L47.5 110.0H46.2L43.9 103.6L42.4 99.6H42.3L42.4 103.9V110.0Z M55.3 110.0V98.3H56.7V109.1L56.4 108.8H62.4V110.0Z M70.8 110.1Q70.0 110.1 69.4 109.8Q68.7 109.5 68.2 109.0Q67.8 108.4 67.5 107.6Q67.3 106.8 67.3 105.8Q67.3 104.4 67.7 103.5Q68.2 102.5 68.9 102.0Q69.7 101.5 70.8 101.5Q71.5 101.5 72.1 101.7Q72.7 101.9 73.1 102.3Q73.5 102.8 73.7 103.3H73.8V98.3H75.1V110.0H73.8L73.8 108.3H73.7Q73.4 109.1 72.6 109.6Q71.9 110.1 70.8 110.1ZM71.2 109.1Q72.0 109.1 72.6 108.7Q73.2 108.3 73.5 107.6Q73.8 107.0 73.8 106.3V105.3Q73.8 104.5 73.5 103.9Q73.2 103.3 72.6 102.9Q72.0 102.5 71.2 102.5Q70.4 102.5 69.8 102.9Q69.2 103.3 68.9 104.0Q68.6 104.8 68.6 105.8Q68.6 106.8 68.9 107.5Q69.2 108.3 69.8 108.7Q70.4 109.1 71.2 109.1Z M80.7 110.1Q79.5 110.1 78.7 109.6Q77.8 109.1 77.4 108.1Q76.9 107.1 76.9 105.8Q76.9 104.5 77.4 103.5Q77.8 102.5 78.6 102.0Q79.5 101.5 80.7 101.5Q82.0 101.5 82.8 102.0Q83.6 102.6 84.0 103.6Q84.4 104.7 84.3 106.0H78.2Q78.2 107.1 78.5 107.8Q78.8 108.4 79.4 108.8Q80.0 109.1 80.7 109.1Q81.6 109.1 82.2 108.7Q82.8 108.3 83.0 107.6H84.2Q84.1 108.4 83.6 109.0Q83.1 109.6 82.4 109.8Q81.6 110.1 80.7 110.1ZM78.2 105.3 78.0 105.1H83.2L83.0 105.3Q83.0 104.3 82.7 103.7Q82.4 103.1 81.9 102.8Q81.4 102.5 80.7 102.5Q79.9 102.5 79.4 102.8Q78.8 103.1 78.5 103.7Q78.2 104.4 78.2 105.3Z M89.1 110.2Q88.3 110.2 87.7 110.0Q87.1 109.8 86.6 109.4Q86.2 109.1 85.9 108.6Q85.7 108.1 85.7 107.5H86.9Q87.0 108.1 87.3 108.5Q87.5 108.8 88.0 109.0Q88.5 109.2 89.1 109.2Q90.1 109.2 90.6 108.8Q91.1 108.4 91.1 107.8Q91.1 107.3 90.9 107.0Q90.7 106.7 90.2 106.5Q89.8 106.4 89.0 106.3Q88.0 106.1 87.3 105.9Q86.6 105.6 86.2 105.1Q85.9 104.7 85.9 103.9Q85.9 103.2 86.3 102.6Q86.7 102.1 87.4 101.8Q88.1 101.4 89.1 101.4Q90.1 101.4 90.8 101.8Q91.5 102.1 91.9 102.6Q92.3 103.2 92.3 104.0H91.0Q91.0 103.4 90.7 103.1Q90.5 102.7 90.1 102.6Q89.6 102.4 89.1 102.4Q88.2 102.4 87.7 102.8Q87.2 103.2 87.2 103.8Q87.2 104.2 87.4 104.5Q87.7 104.8 88.2 105.0Q88.7 105.1 89.4 105.2Q90.4 105.3 91.1 105.6Q91.7 105.9 92.1 106.3Q92.4 106.8 92.4 107.7Q92.4 108.5 92.0 109.0Q91.6 109.6 90.9 109.9Q90.1 110.2 89.1 110.2Z M94.4 110.0V101.6H95.7V110.0ZM95.0 100.2Q94.7 100.2 94.4 100.0Q94.2 99.8 94.2 99.4Q94.2 99.1 94.4 98.9Q94.7 98.7 95.0 98.7Q95.4 98.7 95.6 98.9Q95.8 99.1 95.8 99.4Q95.8 99.8 95.6 100.0Q95.4 100.2 95.0 100.2Z M101.3 112.8Q100.4 112.8 99.6 112.6Q98.9 112.3 98.5 111.7Q98.0 111.2 97.9 110.5H99.2Q99.3 110.9 99.6 111.2Q99.8 111.5 100.3 111.7Q100.7 111.8 101.3 111.8Q102.2 111.8 102.7 111.6Q103.3 111.3 103.6 110.8Q103.8 110.3 103.8 109.5V107.9H103.8Q103.5 108.7 102.8 109.2Q102.0 109.7 101.0 109.7Q100.2 109.7 99.6 109.4Q99.0 109.2 98.5 108.6Q98.1 108.1 97.9 107.3Q97.6 106.5 97.6 105.6Q97.6 104.3 98.0 103.4Q98.5 102.4 99.2 101.9Q100.0 101.4 101.0 101.4Q102.0 101.4 102.7 101.9Q103.5 102.4 103.8 103.2H103.9L103.9 101.6H105.1V109.3Q105.1 110.6 104.7 111.3Q104.2 112.1 103.4 112.5Q102.5 112.8 101.3 112.8ZM101.4 108.6Q102.2 108.6 102.7 108.3Q103.3 107.9 103.6 107.3Q103.8 106.7 103.8 106.0V105.1Q103.8 104.4 103.6 103.8Q103.3 103.2 102.7 102.9Q102.2 102.5 101.4 102.5Q100.7 102.5 100.1 102.9Q99.5 103.2 99.2 103.9Q98.9 104.6 98.9 105.6Q98.9 106.5 99.2 107.2Q99.5 107.9 100.1 108.3Q100.6 108.6 101.4 108.6Z M107.6 110.0V101.6H108.8L108.8 103.3H108.9Q109.3 102.4 110.1 101.9Q110.9 101.5 111.9 101.5Q112.5 101.5 113.1 101.7Q113.6 101.9 114.0 102.3Q114.4 102.7 114.7 103.4Q114.9 104.1 114.9 105.1V110.0H113.6V105.3Q113.6 104.4 113.4 103.8Q113.1 103.2 112.7 102.9Q112.2 102.6 111.5 102.6Q110.7 102.6 110.1 102.9Q109.5 103.3 109.2 104.0Q108.8 104.6 108.8 105.5V110.0Z M117.6 110.1Q117.3 110.1 117.1 109.9Q116.8 109.7 116.8 109.4Q116.8 109.1 117.1 108.9Q117.3 108.7 117.6 108.7Q118.0 108.7 118.2 108.9Q118.4 109.1 118.4 109.4Q118.4 109.7 118.2 109.9Q118.0 110.1 117.6 110.1Z" fill="#9198a1"/><circle cx="35" cy="166" r="7" fill="#3178c6"/><path d="M53.7 171.0V161.7H54.9V171.0ZM50.4 161.8V160.8H58.2V161.8Z M58.2 173.3V172.4H59.0Q59.3 172.4 59.6 172.3Q59.8 172.2 60.0 172.0Q60.2 171.8 60.3 171.5L60.8 170.3V170.7L57.7 163.7H59.0L60.5 167.7L61.2 169.4H61.2L61.8 167.7L63.3 163.7H64.5L61.3 171.8Q61.1 172.3 60.8 172.7Q60.5 173.0 60.1 173.2Q59.7 173.3 59.2 173.3Z M65.8 173.3V163.7H66.9L67.0 165.2H67.0Q67.3 164.4 68.0 164.0Q68.7 163.5 69.6 163.5Q70.3 163.5 70.8 163.8Q71.4 164.1 71.8 164.5Q72.2 165.0 72.4 165.7Q72.7 166.4 72.7 167.3Q72.7 168.5 72.3 169.4Q71.9 170.2 71.2 170.7Q70.5 171.1 69.6 171.1Q69.0 171.1 68.5 170.9Q67.9 170.7 67.6 170.3Q67.2 170.0 67.0 169.5H67.0V173.3ZM69.2 170.2Q69.9 170.2 70.4 169.9Q70.9 169.5 71.2 168.9Q71.5 168.2 71.5 167.3Q71.5 166.4 71.2 165.8Q71.0 165.2 70.5 164.8Q70.0 164.5 69.2 164.5Q68.5 164.5 68.0 164.8Q67.5 165.1 67.2 165.7Q67.0 166.3 67.0 166.9V167.8Q67.0 168.4 67.2 169.0Q67.5 169.5 68.0 169.9Q68.5 170.2 69.2 170.2Z M77.5 171.1Q76.4 171.1 75.7 170.7Q74.9 170.2 74.5 169.3Q74.2 168.5 74.2 167.4Q74.2 166.2 74.5 165.3Q74.9 164.5 75.7 164.0Q76.4 163.5 77.4 163.5Q78.6 163.5 79.3 164.0Q80.0 164.5 80.3 165.4Q80.7 166.3 80.6 167.5H75.3Q75.3 168.4 75.5 169.0Q75.8 169.6 76.3 169.9Q76.8 170.2 77.5 170.2Q78.3 170.2 78.8 169.9Q79.3 169.5 79.4 168.9H80.5Q80.4 169.6 80.0 170.1Q79.6 170.6 78.9 170.9Q78.3 171.1 77.5 171.1ZM75.3 166.9 75.1 166.7H79.6L79.5 166.9Q79.5 166.0 79.2 165.5Q79.0 164.9 78.5 164.7Q78.1 164.4 77.4 164.4Q76.8 164.4 76.3 164.7Q75.8 165.0 75.6 165.5Q75.3 166.1 75.3 166.9Z M85.7 171.1Q84.4 171.1 83.5 170.7Q82.6 170.3 82.2 169.5Q81.8 168.8 81.8 167.8H83.0Q83.0 168.5 83.3 169.1Q83.6 169.6 84.2 169.9Q84.8 170.2 85.7 170.2Q86.5 170.2 87.1 170.0Q87.7 169.8 88.0 169.4Q88.4 169.0 88.4 168.3Q88.4 167.8 88.2 167.5Q88.1 167.2 87.7 167.0Q87.4 166.7 86.9 166.6Q86.3 166.4 85.5 166.3Q84.7 166.1 84.0 165.9Q83.3 165.7 82.9 165.4Q82.5 165.1 82.2 164.6Q82.0 164.1 82.0 163.5Q82.0 162.6 82.4 162.0Q82.9 161.4 83.7 161.0Q84.5 160.7 85.6 160.7Q86.8 160.7 87.6 161.1Q88.4 161.4 88.8 162.1Q89.3 162.7 89.3 163.6H88.1Q88.0 163.0 87.7 162.5Q87.4 162.1 86.9 161.8Q86.3 161.6 85.6 161.6Q84.8 161.6 84.3 161.8Q83.8 162.0 83.5 162.4Q83.2 162.8 83.2 163.3Q83.2 163.9 83.5 164.3Q83.8 164.6 84.4 164.8Q85.0 165.0 86.1 165.2Q86.8 165.3 87.4 165.5Q88.1 165.7 88.6 166.0Q89.0 166.3 89.3 166.9Q89.6 167.4 89.6 168.3Q89.6 169.1 89.2 169.8Q88.7 170.4 87.9 170.8Q87.0 171.1 85.7 171.1Z M94.6 171.1Q93.8 171.1 93.2 170.9Q92.5 170.6 92.0 170.1Q91.6 169.6 91.3 168.9Q91.1 168.2 91.1 167.3Q91.1 166.5 91.3 165.8Q91.6 165.1 92.1 164.6Q92.5 164.1 93.2 163.8Q93.8 163.5 94.6 163.5Q95.5 163.5 96.2 163.8Q96.8 164.2 97.3 164.7Q97.7 165.3 97.8 166.0H96.7Q96.6 165.5 96.3 165.2Q96.0 164.8 95.5 164.7Q95.1 164.5 94.6 164.5Q94.0 164.5 93.6 164.7Q93.2 164.9 92.9 165.3Q92.5 165.7 92.4 166.2Q92.2 166.7 92.2 167.3Q92.2 168.2 92.5 168.9Q92.8 169.5 93.4 169.8Q93.9 170.2 94.6 170.2Q95.2 170.2 95.6 169.9Q96.0 169.7 96.3 169.4Q96.6 169.0 96.7 168.5H97.8Q97.7 169.3 97.3 169.9Q96.9 170.5 96.2 170.8Q95.5 171.1 94.6 171.1Z M99.4 171.0V163.7H100.4L100.5 165.0H100.5Q100.8 164.3 101.4 163.9Q102.0 163.6 102.7 163.6Q102.8 163.6 102.9 163.6Q103.1 163.6 103.2 163.6V164.7Q103.1 164.6 102.9 164.6Q102.8 164.6 102.7 164.6Q102.1 164.6 101.6 164.9Q101.1 165.1 100.8 165.5Q100.6 166.0 100.5 166.6V171.0Z M104.5 171.0V163.7H105.6V171.0ZM105.1 162.4Q104.8 162.4 104.6 162.2Q104.4 162.0 104.4 161.7Q104.4 161.5 104.6 161.3Q104.8 161.1 105.1 161.1Q105.4 161.1 105.6 161.3Q105.8 161.5 105.8 161.7Q105.8 162.0 105.6 162.2Q105.4 162.4 105.1 162.4Z M107.8 173.3V163.7H108.8L108.9 165.2H109.0Q109.2 164.4 109.9 164.0Q110.6 163.5 111.5 163.5Q112.2 163.5 112.8 163.8Q113.3 164.1 113.7 164.5Q114.1 165.0 114.4 165.7Q114.6 166.4 114.6 167.3Q114.6 168.5 114.2 169.4Q113.8 170.2 113.1 170.7Q112.5 171.1 111.5 171.1Q110.9 171.1 110.4 170.9Q109.9 170.7 109.5 170.3Q109.2 170.0 109.0 169.5H108.9V173.3ZM111.2 170.2Q111.9 170.2 112.4 169.9Q112.9 169.5 113.2 168.9Q113.4 168.2 113.4 167.3Q113.4 166.4 113.2 165.8Q112.9 165.2 112.4 164.8Q111.9 164.5 111.2 164.5Q110.5 164.5 109.9 164.8Q109.4 165.1 109.2 165.7Q108.9 166.3 108.9 166.9V167.8Q108.9 168.4 109.2 169.0Q109.4 169.5 109.9 169.9Q110.5 170.2 111.2 170.2Z M118.5 171.0Q117.7 171.0 117.3 170.6Q116.9 170.3 116.9 169.4V164.6H115.5V163.7H116.9V161.5L118.0 161.3V163.7H119.7V164.6H118.0V169.2Q118.0 169.7 118.2 169.8Q118.4 170.0 118.8 170.0H119.8V171.0Z" fill="#9198a1"/><path d="M145.4 171.0V160.8H146.9L152.7 169.4H152.7L152.7 166.0V160.8H153.8V171.0H152.4L146.6 162.4H146.5L146.6 165.7V171.0Z M158.9 171.1Q157.8 171.1 157.1 170.7Q156.3 170.2 155.9 169.3Q155.5 168.5 155.5 167.4Q155.5 166.2 155.9 165.3Q156.3 164.5 157.1 164.0Q157.8 163.5 158.8 163.5Q160.0 163.5 160.7 164.0Q161.4 164.5 161.7 165.4Q162.1 166.3 162.0 167.5H156.7Q156.7 168.4 156.9 169.0Q157.2 169.6 157.7 169.9Q158.2 170.2 158.9 170.2Q159.7 170.2 160.2 169.9Q160.7 169.5 160.8 168.9H161.9Q161.8 169.6 161.4 170.1Q161.0 170.6 160.3 170.9Q159.7 171.1 158.9 171.1ZM156.7 166.9 156.5 166.7H161.0L160.9 166.9Q160.9 166.0 160.6 165.5Q160.4 164.9 159.9 164.7Q159.5 164.4 158.8 164.4Q158.2 164.4 157.7 164.7Q157.2 165.0 157.0 165.5Q156.7 166.1 156.7 166.9Z M162.6 171.0 165.5 167.2 162.9 163.7H164.2L166.0 166.2L166.2 166.5H166.3L166.4 166.2L168.2 163.7H169.5L167.0 167.2L169.8 171.0H168.5L166.4 168.1L166.2 167.8H166.2L166.0 168.1L163.8 171.0Z M173.4 171.0Q172.6 171.0 172.2 170.6Q171.8 170.3 171.8 169.4V164.6H170.4V163.7H171.8V161.5L173.0 161.3V163.7H174.7V164.6H173.0V169.2Q173.0 169.7 173.2 169.8Q173.4 170.0 173.7 170.0H174.7V171.0Z M176.6 171.1Q176.4 171.1 176.2 170.9Q176.0 170.7 176.0 170.5Q176.0 170.2 176.2 170.0Q176.4 169.8 176.6 169.8Q176.9 169.8 177.1 170.0Q177.3 170.2 177.3 170.5Q177.3 170.7 177.1 170.9Q176.9 171.1 176.6 171.1Z M177.6 173.3V172.5H178.2Q178.7 172.5 178.9 172.3Q179.1 172.0 179.1 171.5V163.7H180.2V171.6Q180.2 172.1 180.0 172.5Q179.9 172.9 179.5 173.1Q179.2 173.3 178.6 173.3ZM179.6 162.4Q179.3 162.4 179.1 162.2Q178.9 162.0 178.9 161.7Q178.9 161.5 179.1 161.3Q179.3 161.1 179.6 161.1Q180.0 161.1 180.1 161.3Q180.3 161.5 180.3 161.7Q180.3 162.0 180.1 162.2Q180.0 162.4 179.6 162.4Z M184.8 171.1Q184.2 171.1 183.6 171.0Q183.1 170.8 182.7 170.5Q182.3 170.2 182.1 169.8Q181.9 169.3 181.8 168.8H183.0Q183.0 169.3 183.2 169.6Q183.5 170.0 183.9 170.1Q184.3 170.3 184.9 170.3Q185.7 170.3 186.2 170.0Q186.6 169.6 186.6 169.1Q186.6 168.6 186.4 168.4Q186.2 168.1 185.8 168.0Q185.4 167.8 184.8 167.7Q183.9 167.6 183.3 167.4Q182.7 167.2 182.3 166.8Q182.0 166.3 182.0 165.7Q182.0 165.0 182.4 164.5Q182.7 164.1 183.4 163.8Q184.0 163.5 184.8 163.5Q185.7 163.5 186.3 163.8Q186.9 164.1 187.3 164.6Q187.6 165.1 187.6 165.7H186.5Q186.5 165.2 186.3 164.9Q186.1 164.6 185.7 164.5Q185.3 164.4 184.8 164.4Q184.0 164.4 183.6 164.7Q183.2 165.0 183.2 165.6Q183.2 166.0 183.4 166.2Q183.6 166.4 184.0 166.6Q184.5 166.7 185.1 166.8Q186.0 166.9 186.6 167.1Q187.2 167.4 187.5 167.8Q187.8 168.2 187.8 169.0Q187.8 169.7 187.4 170.1Q187.0 170.6 186.4 170.9Q185.7 171.1 184.8 171.1Z M188.8 172.9Q189.3 172.4 189.6 171.8Q189.9 171.3 189.9 170.9L190.0 170.9Q190.0 171.0 189.9 171.0Q189.8 171.1 189.7 171.1Q189.4 171.1 189.2 170.9Q189.1 170.7 189.1 170.5Q189.1 170.2 189.3 170.0Q189.5 169.8 189.8 169.8Q190.1 169.8 190.3 170.0Q190.5 170.2 190.5 170.6Q190.5 170.9 190.4 171.3Q190.3 171.6 190.1 171.9Q190.0 172.2 189.8 172.5Q189.6 172.8 189.4 172.9Z M198.9 171.1Q197.6 171.1 196.7 170.7Q195.8 170.3 195.4 169.5Q195.0 168.8 194.9 167.8H196.2Q196.2 168.5 196.5 169.1Q196.8 169.6 197.4 169.9Q198.0 170.2 198.9 170.2Q199.7 170.2 200.3 170.0Q200.9 169.8 201.2 169.4Q201.6 169.0 201.6 168.3Q201.6 167.8 201.4 167.5Q201.2 167.2 200.9 167.0Q200.6 166.7 200.0 166.6Q199.5 166.4 198.7 166.3Q197.8 166.1 197.2 165.9Q196.5 165.7 196.1 165.4Q195.6 165.1 195.4 164.6Q195.2 164.1 195.2 163.5Q195.2 162.6 195.6 162.0Q196.1 161.4 196.9 161.0Q197.7 160.7 198.8 160.7Q200.0 160.7 200.8 161.1Q201.6 161.4 202.0 162.1Q202.4 162.7 202.5 163.6H201.2Q201.2 163.0 200.9 162.5Q200.6 162.1 200.1 161.8Q199.5 161.6 198.8 161.6Q198.0 161.6 197.5 161.8Q197.0 162.0 196.7 162.4Q196.4 162.8 196.4 163.3Q196.4 163.9 196.7 164.3Q197.0 164.6 197.6 164.8Q198.2 165.0 199.3 165.2Q200.0 165.3 200.6 165.5Q201.2 165.7 201.7 166.0Q202.2 166.3 202.5 166.9Q202.8 167.4 202.8 168.3Q202.8 169.1 202.4 169.8Q201.9 170.4 201.0 170.8Q200.2 171.1 198.9 171.1Z M207.1 171.1Q206.3 171.1 205.7 170.8Q205.1 170.5 204.8 169.8Q204.5 169.1 204.5 168.2V163.7H205.6V167.9Q205.6 168.6 205.8 169.1Q206.0 169.6 206.4 169.9Q206.8 170.2 207.5 170.2Q208.2 170.2 208.7 169.8Q209.2 169.5 209.5 168.9Q209.7 168.3 209.7 167.6V163.7H210.9V171.0H209.8L209.7 169.4H209.7Q209.4 170.2 208.7 170.7Q208.0 171.1 207.1 171.1Z M213.0 173.3V163.7H214.1L214.1 165.2H214.2Q214.4 164.4 215.1 164.0Q215.8 163.5 216.8 163.5Q217.4 163.5 218.0 163.8Q218.6 164.1 219.0 164.5Q219.4 165.0 219.6 165.7Q219.8 166.4 219.8 167.3Q219.8 168.5 219.4 169.4Q219.1 170.2 218.4 170.7Q217.7 171.1 216.8 171.1Q216.1 171.1 215.6 170.9Q215.1 170.7 214.7 170.3Q214.4 170.0 214.2 169.5H214.1V173.3ZM216.4 170.2Q217.1 170.2 217.6 169.9Q218.1 169.5 218.4 168.9Q218.7 168.2 218.7 167.3Q218.7 166.4 218.4 165.8Q218.1 165.2 217.6 164.8Q217.1 164.5 216.4 164.5Q215.7 164.5 215.2 164.8Q214.7 165.1 214.4 165.7Q214.1 166.3 214.1 166.9V167.8Q214.1 168.4 214.4 169.0Q214.7 169.5 215.2 169.9Q215.7 170.2 216.4 170.2Z M224.4 171.1Q223.8 171.1 223.2 170.9Q222.6 170.6 222.2 170.1Q221.8 169.6 221.6 168.9Q221.4 168.2 221.4 167.3Q221.4 166.1 221.8 165.3Q222.2 164.4 222.8 164.0Q223.5 163.5 224.4 163.5Q225.1 163.5 225.6 163.7Q226.1 163.9 226.5 164.3Q226.9 164.7 227.0 165.2H227.1L227.1 163.7H228.2V171.0H227.1L227.1 169.5H227.0Q226.8 170.2 226.1 170.7Q225.4 171.1 224.4 171.1ZM224.8 170.2Q225.5 170.2 226.0 169.8Q226.5 169.5 226.8 168.9Q227.1 168.4 227.1 167.8V166.9Q227.1 166.2 226.8 165.7Q226.5 165.1 226.0 164.8Q225.5 164.5 224.8 164.5Q224.1 164.5 223.6 164.8Q223.1 165.1 222.8 165.8Q222.6 166.4 222.6 167.3Q222.6 168.2 222.8 168.8Q223.1 169.5 223.6 169.8Q224.1 170.2 224.8 170.2Z M234.1 171.1Q233.5 171.1 232.9 170.9Q232.4 170.7 232.1 170.3Q231.7 170.0 231.5 169.5H231.5L231.4 171.0H230.3V160.8H231.5V165.2H231.5Q231.8 164.4 232.5 164.0Q233.2 163.5 234.1 163.5Q234.8 163.5 235.3 163.8Q235.9 164.1 236.3 164.5Q236.7 165.0 236.9 165.7Q237.1 166.4 237.1 167.3Q237.1 168.5 236.8 169.4Q236.4 170.2 235.7 170.7Q235.0 171.1 234.1 171.1ZM233.7 170.2Q234.4 170.2 234.9 169.9Q235.4 169.5 235.7 168.9Q236.0 168.2 236.0 167.3Q236.0 166.7 235.8 166.1Q235.7 165.6 235.4 165.2Q235.1 164.9 234.7 164.7Q234.3 164.5 233.7 164.5Q233.0 164.5 232.5 164.8Q232.0 165.1 231.7 165.7Q231.5 166.3 231.5 166.9V167.8Q231.5 168.4 231.7 169.0Q232.0 169.5 232.5 169.9Q233.0 170.2 233.7 170.2Z M241.8 171.1Q241.1 171.1 240.5 170.9Q240.0 170.6 239.6 170.1Q239.2 169.6 238.9 168.9Q238.7 168.2 238.7 167.3Q238.7 166.1 239.1 165.3Q239.5 164.4 240.2 164.0Q240.9 163.5 241.8 163.5Q242.4 163.5 242.9 163.7Q243.5 163.9 243.8 164.3Q244.2 164.7 244.4 165.2H244.4L244.5 163.7H245.5V171.0H244.5L244.4 169.5H244.4Q244.1 170.2 243.4 170.7Q242.7 171.1 241.8 171.1ZM242.1 170.2Q242.9 170.2 243.4 169.8Q243.9 169.5 244.1 168.9Q244.4 168.4 244.4 167.8V166.9Q244.4 166.2 244.1 165.7Q243.9 165.1 243.4 164.8Q242.9 164.5 242.2 164.5Q241.5 164.5 240.9 164.8Q240.4 165.1 240.2 165.8Q239.9 166.4 239.9 167.3Q239.9 168.2 240.2 168.8Q240.4 169.5 240.9 169.8Q241.4 170.2 242.1 170.2Z M250.2 171.1Q249.5 171.1 248.9 171.0Q248.4 170.8 248.0 170.5Q247.6 170.2 247.4 169.8Q247.2 169.3 247.2 168.8H248.3Q248.3 169.3 248.6 169.6Q248.8 170.0 249.2 170.1Q249.7 170.3 250.2 170.3Q251.1 170.3 251.5 170.0Q252.0 169.6 252.0 169.1Q252.0 168.6 251.8 168.4Q251.6 168.1 251.2 168.0Q250.8 167.8 250.1 167.7Q249.2 167.6 248.6 167.4Q248.0 167.2 247.7 166.8Q247.4 166.3 247.4 165.7Q247.4 165.0 247.7 164.5Q248.1 164.1 248.7 163.8Q249.3 163.5 250.2 163.5Q251.0 163.5 251.6 163.8Q252.3 164.1 252.6 164.6Q253.0 165.1 253.0 165.7H251.9Q251.8 165.2 251.6 164.9Q251.4 164.6 251.0 164.5Q250.7 164.4 250.2 164.4Q249.4 164.4 248.9 164.7Q248.5 165.0 248.5 165.6Q248.5 166.0 248.7 166.2Q248.9 166.4 249.4 166.6Q249.8 166.7 250.5 166.8Q251.3 166.9 251.9 167.1Q252.5 167.4 252.8 167.8Q253.1 168.2 253.1 169.0Q253.1 169.7 252.8 170.1Q252.4 170.6 251.7 170.9Q251.1 171.1 250.2 171.1Z M257.7 171.1Q256.6 171.1 255.9 170.7Q255.1 170.2 254.8 169.3Q254.4 168.5 254.4 167.4Q254.4 166.2 254.8 165.3Q255.1 164.5 255.9 164.0Q256.6 163.5 257.7 163.5Q258.8 163.5 259.5 164.0Q260.2 164.5 260.6 165.4Q260.9 166.3 260.8 167.5H255.5Q255.5 168.4 255.8 169.0Q256.0 169.6 256.5 169.9Q257.0 170.2 257.7 170.2Q258.5 170.2 259.0 169.9Q259.5 169.5 259.7 168.9H260.7Q260.6 169.6 260.2 170.1Q259.8 170.6 259.1 170.9Q258.5 171.1 257.7 171.1ZM255.5 166.9 255.4 166.7H259.8L259.7 166.9Q259.7 166.0 259.5 165.5Q259.2 164.9 258.7 164.7Q258.3 164.4 257.7 164.4Q257.0 164.4 256.5 164.7Q256.1 165.0 255.8 165.5Q255.5 166.1 255.5 166.9Z" fill="#9198a1"/></svg>