<svg xmlns="http://www.w3.org/2000/svg" viewBox="0 0 590 200" width="590" height="200" role="img" aria-labelledby="t d"><title id="t">MOH survey digitisation</title><desc id="d">Team. A 13-page paper survey for RDHS Galle, turned into an app with offline sync and instant PDF reports. Built with TypeScript, Next.js, FastAPI, MongoDB.</desc><rect x="1" y="1" width="588" height="198" rx="12" fill="#0d1117" stroke="#30363d" stroke-width="2"/><path transform="translate(28 32) scale(1.0)" d="M2 2.5A2.5 2.5 0 0 1 4.5 0h8.75a.75.75 0 0 1 .75.75v12.5a.75.75 0 0 1-.75.75h-2.5a.75.75 0 0 1 0-1.5h1.75v-2h-8a1 1 0 0 0-.714 1.7.75.75 0 1 1-1.072 1.05A2.495 2.495 0 0 1 2 11.5Zm10.5-1h-8a1 1 0 0 0-1 1v6.708A2.486 2.486 0 0 1 4.5 9h8ZM5 12.25a.25.25 0 0 1 .25-.25h3.5a.25.25 0 0 1 .25.25v3.25a.25.25 0 0 1-.4.2l-1.45-1.087a.249.249 0 0 0-.3 0L5.4 15.7a.25.25 0 0 1-.4-.2Z" fill="#9198a1"/><path d="M55.6 46.0V30.7H59.9L62.4 38.3L63.5 42.2H63.6L64.6 38.3L67.1 30.7H71.5V46.0H68.8V38.6L68.9 33.3H68.7L67.3 38.2L64.7 46.0H62.4L59.9 38.2L58.3 33.3H58.2L58.3 38.6V46.0Z M81.5 46.2Q79.8 46.2 78.4 45.7Q77.0 45.1 76.0 44.1Q75.0 43.1 74.4 41.6Q73.9 40.2 73.9 38.3Q73.9 36.5 74.4 35.0Q75.0 33.6 76.0 32.6Q77.0 31.6 78.4 31.0Q79.8 30.5 81.5 30.5Q83.2 30.5 84.6 31.0Q86.0 31.6 87.1 32.6Q88.1 33.6 88.6 35.0Q89.1 36.5 89.1 38.3Q89.1 40.2 88.6 41.6Q88.1 43.1 87.0 44.1Q86.0 45.1 84.6 45.7Q83.2 46.2 81.5 46.2ZM81.5 43.8Q83.0 43.8 84.1 43.2Q85.1 42.5 85.7 41.3Q86.3 40.1 86.3 38.3Q86.3 37.0 85.9 36.0Q85.6 35.0 85.0 34.3Q84.4 33.6 83.5 33.3Q82.6 32.9 81.5 32.9Q80.1 32.9 79.0 33.5Q77.9 34.1 77.4 35.4Q76.8 36.6 76.8 38.3Q76.8 39.7 77.1 40.7Q77.4 41.7 78.1 42.4Q78.7 43.1 79.5 43.4Q80.4 43.8 81.5 43.8Z M91.5 46.0V30.7H94.3V46.0ZM102.2 46.0V30.7H105.0V46.0ZM93.7 39.3V36.9H102.8V39.3Z M116.6 46.2Q115.5 46.2 114.6 45.9Q113.7 45.7 113.1 45.2Q112.5 44.7 112.2 44.1Q111.8 43.4 111.8 42.6H114.4Q114.4 43.2 114.7 43.6Q115.0 44.0 115.5 44.1Q116.0 44.3 116.7 44.3Q117.7 44.3 118.2 44.0Q118.7 43.6 118.7 42.9Q118.7 42.4 118.5 42.1Q118.2 41.8 117.7 41.7Q117.2 41.5 116.3 41.4Q114.9 41.2 114.0 40.8Q113.0 40.5 112.5 39.8Q112.1 39.2 112.1 38.1Q112.1 37.0 112.7 36.3Q113.2 35.5 114.3 35.0Q115.3 34.6 116.7 34.6Q118.0 34.6 119.0 35.0Q120.0 35.5 120.5 36.2Q121.1 37.0 121.1 38.0H118.6Q118.6 37.5 118.3 37.2Q118.0 36.8 117.6 36.7Q117.2 36.5 116.6 36.5Q115.7 36.5 115.2 36.9Q114.7 37.2 114.7 37.9Q114.7 38.3 115.0 38.6Q115.2 38.9 115.8 39.0Q116.4 39.2 117.3 39.3Q118.7 39.5 119.6 39.9Q120.5 40.2 120.9 40.9Q121.4 41.6 121.4 42.7Q121.4 43.8 120.8 44.6Q120.2 45.4 119.1 45.8Q118.0 46.2 116.6 46.2Z M127.4 46.2Q126.1 46.2 125.2 45.7Q124.3 45.2 123.9 44.2Q123.4 43.2 123.4 41.8V34.8H126.0V41.1Q126.0 42.0 126.3 42.7Q126.5 43.3 127.0 43.7Q127.6 44.0 128.4 44.0Q129.2 44.0 129.9 43.6Q130.5 43.2 130.8 42.5Q131.2 41.8 131.2 40.9V34.8H133.8V46.0H131.3L131.2 43.8H131.0Q130.6 45.0 129.6 45.6Q128.7 46.2 127.4 46.2Z M136.6 46.0V34.8H139.0L139.1 36.7H139.2Q139.6 35.6 140.4 35.2Q141.3 34.7 142.3 34.7Q142.5 34.7 142.7 34.7Q142.9 34.7 143.0 34.7V37.2Q142.9 37.2 142.7 37.1Q142.5 37.1 142.3 37.1Q141.3 37.1 140.6 37.5Q140.0 37.8 139.6 38.4Q139.3 39.0 139.2 39.9V46.0Z M147.8 46.0 144.0 34.8H146.8L148.6 41.3L149.4 44.0H149.5L150.3 41.3L152.2 34.8H155.0L151.1 46.0Z M161.2 46.2Q159.5 46.2 158.3 45.5Q157.1 44.8 156.5 43.5Q155.8 42.2 155.8 40.5Q155.8 38.7 156.5 37.4Q157.1 36.1 158.3 35.4Q159.4 34.6 161.1 34.6Q162.9 34.6 164.1 35.4Q165.3 36.3 165.8 37.7Q166.3 39.1 166.2 41.0H158.4Q158.4 42.0 158.7 42.8Q159.1 43.5 159.7 43.8Q160.3 44.2 161.2 44.2Q162.2 44.2 162.8 43.8Q163.4 43.4 163.6 42.7H166.1Q165.9 43.8 165.2 44.6Q164.6 45.3 163.5 45.8Q162.5 46.2 161.2 46.2ZM158.4 39.6 158.2 39.3H163.9L163.6 39.6Q163.6 38.5 163.3 37.9Q163.0 37.2 162.4 36.9Q161.8 36.6 161.1 36.6Q160.3 36.6 159.7 36.9Q159.1 37.3 158.7 37.9Q158.4 38.6 158.4 39.6Z M167.8 49.5V47.3H169.1Q169.6 47.3 169.9 47.2Q170.3 47.1 170.5 46.8Q170.7 46.5 170.9 46.1L171.5 44.6V45.7L166.9 34.8H169.8L171.8 40.6L172.5 42.7H172.6L173.3 40.6L175.1 34.8H177.9L173.4 46.7Q173.0 47.8 172.5 48.4Q171.9 49.0 171.2 49.3Q170.5 49.5 169.6 49.5Z M188.3 46.2Q187.2 46.2 186.4 45.8Q185.5 45.4 184.9 44.7Q184.3 43.9 184.0 42.8Q183.7 41.8 183.7 40.4Q183.7 38.6 184.3 37.3Q184.8 36.0 185.9 35.3Q186.9 34.6 188.3 34.6Q189.1 34.6 189.9 34.9Q190.6 35.2 191.1 35.7Q191.6 36.2 191.9 36.8H192.0V30.7H194.6V46.0H192.1L192.0 44.0H191.9Q191.5 45.0 190.5 45.6Q189.6 46.2 188.3 46.2ZM189.2 44.0Q190.1 44.0 190.7 43.6Q191.3 43.2 191.7 42.5Q192.0 41.8 192.0 41.0V39.8Q192.0 38.9 191.6 38.3Q191.3 37.6 190.7 37.2Q190.1 36.8 189.2 36.8Q188.3 36.8 187.7 37.2Q187.0 37.6 186.7 38.4Q186.3 39.3 186.3 40.4Q186.3 41.5 186.7 42.3Q187.0 43.2 187.6 43.6Q188.3 44.0 189.2 44.0Z M197.4 46.0V34.8H200.0V46.0ZM198.7 33.3Q198.1 33.3 197.7 33.0Q197.3 32.6 197.3 32.0Q197.3 31.4 197.7 31.1Q198.1 30.8 198.7 30.8Q199.4 30.8 199.8 31.1Q200.2 31.4 200.2 32.0Q200.2 32.6 199.8 33.0Q199.4 33.3 198.7 33.3Z M207.4 49.7Q206.0 49.7 204.9 49.3Q203.9 48.9 203.3 48.2Q202.7 47.4 202.6 46.4H205.1Q205.2 46.8 205.5 47.2Q205.8 47.5 206.3 47.6Q206.8 47.8 207.4 47.8Q208.4 47.8 209.0 47.5Q209.7 47.3 209.9 46.7Q210.2 46.1 210.2 45.3V43.5H210.1Q209.8 44.4 208.8 45.0Q207.9 45.5 206.6 45.5Q205.7 45.5 204.9 45.2Q204.1 44.8 203.5 44.1Q202.9 43.4 202.6 42.4Q202.3 41.4 202.3 40.1Q202.3 38.4 202.8 37.1Q203.4 35.9 204.4 35.3Q205.3 34.6 206.6 34.6Q207.9 34.6 208.8 35.2Q209.7 35.7 210.1 36.7H210.2L210.3 34.8H212.8V44.8Q212.8 46.6 212.2 47.7Q211.5 48.8 210.3 49.2Q209.0 49.7 207.4 49.7ZM207.6 43.4Q208.5 43.4 209.0 43.0Q209.6 42.6 209.9 42.0Q210.2 41.4 210.2 40.6V39.5Q210.2 38.7 209.9 38.1Q209.6 37.5 209.0 37.1Q208.5 36.7 207.7 36.7Q206.8 36.7 206.2 37.1Q205.6 37.6 205.3 38.3Q204.9 39.0 204.9 40.1Q204.9 41.1 205.3 41.8Q205.6 42.6 206.1 43.0Q206.7 43.4 207.6 43.4Z M215.7 46.0V34.8H218.3V46.0ZM217.0 33.3Q216.4 33.3 215.9 33.0Q215.5 32.6 215.5 32.0Q215.5 31.4 215.9 31.1Q216.4 30.8 217.0 30.8Q217.6 30.8 218.0 31.1Q218.4 31.4 218.4 32.0Q218.4 32.6 218.0 33.0Q217.6 33.3 217.0 33.3Z M224.8 46.0Q223.8 46.0 223.2 45.7Q222.6 45.4 222.4 44.8Q222.2 44.3 222.2 43.5V36.9H220.1V34.8H222.2V31.7L224.8 31.4V34.8H231.8V46.0H229.2V36.9H224.8V43.0Q224.8 43.5 225.0 43.7Q225.2 43.9 225.7 43.9H227.1V46.0ZM230.5 33.3Q229.9 33.3 229.4 33.0Q229.0 32.6 229.0 32.0Q229.0 31.4 229.4 31.1Q229.9 30.8 230.5 30.8Q231.1 30.8 231.5 31.1Q232.0 31.4 232.0 32.0Q232.0 32.6 231.5 33.0Q231.1 33.3 230.5 33.3Z M238.7 46.2Q237.6 46.2 236.7 45.9Q235.9 45.7 235.2 45.2Q234.6 44.7 234.3 44.1Q233.9 43.4 233.9 42.6H236.5Q236.6 43.2 236.8 43.6Q237.1 44.0 237.6 44.1Q238.1 44.3 238.8 44.3Q239.8 44.3 240.3 44.0Q240.8 43.6 240.8 42.9Q240.8 42.4 240.6 42.1Q240.3 41.8 239.8 41.7Q239.3 41.5 238.4 41.4Q237.0 41.2 236.1 40.8Q235.1 40.5 234.7 39.8Q234.2 39.2 234.2 38.1Q234.2 37.0 234.8 36.3Q235.4 35.5 236.4 35.0Q237.4 34.6 238.8 34.6Q240.1 34.6 241.1 35.0Q242.1 35.5 242.7 36.2Q243.2 37.0 243.3 38.0H240.7Q240.7 37.5 240.4 37.2Q240.1 36.8 239.7 36.7Q239.3 36.5 238.7 36.5Q237.8 36.5 237.3 36.9Q236.8 37.2 236.8 37.9Q236.8 38.3 237.1 38.6Q237.4 38.9 237.9 39.0Q238.5 39.2 239.5 39.3Q240.8 39.5 241.7 39.9Q242.6 40.2 243.0 40.9Q243.5 41.6 243.5 42.7Q243.5 43.8 242.9 44.6Q242.3 45.4 241.2 45.8Q240.1 46.2 238.7 46.2Z M249.8 46.2Q248.8 46.2 248.0 45.8Q247.1 45.4 246.5 44.7Q245.9 43.9 245.6 42.8Q245.2 41.8 245.2 40.4Q245.2 38.6 245.8 37.3Q246.4 36.0 247.4 35.3Q248.5 34.6 249.8 34.6Q250.7 34.6 251.4 34.9Q252.2 35.2 252.7 35.7Q253.2 36.2 253.4 36.8H253.6L253.7 34.8H256.2V46.0H253.7L253.6 44.0H253.4Q253.1 45.0 252.1 45.6Q251.1 46.2 249.8 46.2ZM250.7 44.0Q251.7 44.0 252.3 43.6Q252.9 43.2 253.2 42.5Q253.5 41.8 253.5 41.0V39.8Q253.5 38.9 253.2 38.3Q252.9 37.6 252.3 37.2Q251.7 36.8 250.8 36.8Q249.9 36.8 249.2 37.2Q248.6 37.6 248.2 38.4Q247.9 39.3 247.9 40.4Q247.9 41.5 248.2 42.3Q248.6 43.2 249.2 43.6Q249.8 44.0 250.7 44.0Z M262.7 46.0Q261.6 46.0 261.1 45.7Q260.5 45.4 260.3 44.8Q260.0 44.3 260.0 43.5V36.9H258.0V34.8H260.0V31.7L262.7 31.4V34.8H269.6V46.0H267.0V36.9H262.7V43.0Q262.7 43.5 262.9 43.7Q263.1 43.9 263.6 43.9H265.0V46.0ZM268.3 33.3Q267.7 33.3 267.3 33.0Q266.9 32.6 266.9 32.0Q266.9 31.4 267.3 31.1Q267.7 30.8 268.3 30.8Q269.0 30.8 269.4 31.1Q269.8 31.4 269.8 32.0Q269.8 32.6 269.4 33.0Q269.0 33.3 268.3 33.3Z M277.4 46.2Q276.1 46.2 275.1 45.8Q274.1 45.4 273.4 44.7Q272.6 43.9 272.2 42.8Q271.9 41.8 271.9 40.4Q271.9 38.7 272.5 37.4Q273.2 36.1 274.4 35.4Q275.7 34.6 277.4 34.6Q278.6 34.6 279.6 35.0Q280.7 35.4 281.4 36.2Q282.1 36.9 282.5 38.0Q282.9 39.0 282.9 40.4Q282.9 42.1 282.2 43.4Q281.6 44.7 280.3 45.5Q279.1 46.2 277.4 46.2ZM277.4 44.0Q278.2 44.0 278.9 43.6Q279.5 43.2 279.9 42.4Q280.3 41.6 280.3 40.4Q280.3 39.5 280.1 38.8Q279.9 38.2 279.5 37.7Q279.1 37.2 278.6 37.0Q278.0 36.8 277.4 36.8Q276.5 36.8 275.9 37.2Q275.2 37.6 274.9 38.4Q274.5 39.2 274.5 40.4Q274.5 41.3 274.7 42.0Q274.9 42.7 275.3 43.1Q275.7 43.6 276.2 43.8Q276.7 44.0 277.4 44.0Z M285.1 46.0V34.8H287.6L287.7 36.9H287.8Q288.3 35.8 289.3 35.2Q290.3 34.6 291.5 34.6Q292.4 34.6 293.1 34.9Q293.8 35.1 294.3 35.7Q294.9 36.3 295.2 37.1Q295.5 38.0 295.5 39.3V46.0H292.9V39.9Q292.9 38.8 292.6 38.1Q292.4 37.5 291.8 37.1Q291.3 36.8 290.5 36.8Q289.6 36.8 289.0 37.2Q288.4 37.6 288.0 38.3Q287.7 39.0 287.7 39.8V46.0Z" fill="#58a6ff"/><rect x="506" y="28" width="56" height="24" rx="12" fill="none" stroke="#30363d" stroke-width="1.5"/><path d="M519.9 45.0V36.6H521.3V45.0ZM516.9 36.8V35.5H524.3V36.8Z M526.8 45.1Q525.8 45.1 525.1 44.7Q524.4 44.2 524.0 43.5Q523.6 42.7 523.6 41.6Q523.6 40.5 524.0 39.7Q524.4 38.9 525.1 38.5Q525.8 38.0 526.8 38.0Q527.9 38.0 528.6 38.5Q529.3 39.0 529.6 39.9Q529.9 40.7 529.8 41.8H525.0Q525.0 42.6 525.2 43.1Q525.4 43.6 525.9 43.8Q526.3 44.1 526.8 44.1Q527.5 44.1 527.9 43.8Q528.4 43.5 528.5 43.0H529.8Q529.7 43.7 529.3 44.1Q528.9 44.6 528.2 44.9Q527.6 45.1 526.8 45.1ZM525.0 41.1 524.8 40.9H528.7L528.5 41.1Q528.5 40.4 528.3 39.9Q528.1 39.5 527.7 39.3Q527.3 39.0 526.8 39.0Q526.3 39.0 525.9 39.3Q525.5 39.5 525.2 40.0Q525.0 40.4 525.0 41.1Z M533.8 45.1Q533.2 45.1 532.7 44.9Q532.1 44.6 531.7 44.2Q531.4 43.7 531.2 43.1Q531.0 42.4 531.0 41.6Q531.0 40.4 531.3 39.6Q531.7 38.9 532.3 38.4Q533.0 38.0 533.8 38.0Q534.4 38.0 534.8 38.2Q535.3 38.4 535.6 38.7Q536.0 39.0 536.1 39.4H536.2L536.2 38.1H537.5V45.0H536.2L536.2 43.7H536.1Q535.9 44.3 535.3 44.7Q534.7 45.1 533.8 45.1ZM534.3 44.0Q534.9 44.0 535.3 43.7Q535.7 43.4 536.0 43.0Q536.2 42.5 536.2 41.9V41.2Q536.2 40.6 536.0 40.1Q535.7 39.7 535.3 39.4Q534.9 39.1 534.3 39.1Q533.7 39.1 533.2 39.4Q532.8 39.7 532.6 40.2Q532.3 40.8 532.3 41.6Q532.3 42.3 532.6 42.9Q532.8 43.4 533.2 43.7Q533.6 44.0 534.3 44.0Z M539.4 45.0V38.1H540.7L540.7 39.5H540.8Q541.1 38.8 541.7 38.4Q542.3 38.0 543.1 38.0Q543.8 38.0 544.4 38.4Q545.0 38.7 545.3 39.6H545.4Q545.7 38.8 546.3 38.4Q547.0 38.0 547.8 38.0Q548.5 38.0 549.0 38.3Q549.6 38.6 549.9 39.2Q550.2 39.9 550.2 40.9V45.0H548.9V41.2Q548.9 40.5 548.7 40.0Q548.5 39.6 548.2 39.3Q547.9 39.1 547.3 39.1Q546.7 39.1 546.3 39.4Q545.9 39.7 545.7 40.2Q545.5 40.6 545.5 41.2V45.0H544.1V41.2Q544.1 40.5 544.0 40.0Q543.8 39.6 543.4 39.3Q543.1 39.1 542.6 39.1Q542.0 39.1 541.6 39.4Q541.2 39.7 540.9 40.2Q540.7 40.6 540.7 41.2V45.0Z" fill="#9198a1"/><path d="M28.4 86.0 32.7 74.3H34.6L38.8 86.0H37.4L34.2 76.9L33.7 75.4H33.6L33.1 76.9L29.8 86.0ZM30.7 83.1 30.9 82.0H36.3L36.5 83.1Z M46.1 86.0V77.3H43.4V76.4H43.8Q44.9 76.4 45.5 75.8Q46.0 75.3 46.1 74.5H47.4V86.0Z M53.1 86.1Q52.0 86.1 51.2 85.7Q50.3 85.3 49.8 84.6Q49.4 83.8 49.3 82.8H50.6Q50.6 83.5 51.0 84.0Q51.3 84.5 51.8 84.8Q52.4 85.0 53.1 85.0Q54.3 85.0 55.0 84.4Q55.7 83.8 55.7 82.7Q55.7 82.0 55.4 81.5Q55.2 81.0 54.6 80.8Q54.1 80.5 53.4 80.5H52.2V79.5H53.2Q54.0 79.5 54.5 79.3Q55.1 79.0 55.4 78.5Q55.7 78.1 55.7 77.4Q55.7 76.8 55.4 76.4Q55.1 75.9 54.6 75.7Q54.0 75.4 53.3 75.4Q52.6 75.4 52.0 75.7Q51.5 76.0 51.2 76.5Q50.9 76.9 50.8 77.6H49.6Q49.6 76.6 50.1 75.9Q50.6 75.1 51.4 74.7Q52.2 74.3 53.3 74.3Q54.4 74.3 55.3 74.7Q56.1 75.1 56.5 75.7Q57.0 76.4 57.0 77.3Q57.0 78.0 56.7 78.5Q56.5 79.0 56.0 79.4Q55.6 79.8 55.0 80.0V80.0Q55.6 80.2 56.1 80.6Q56.6 81.0 56.8 81.5Q57.1 82.1 57.1 82.8Q57.1 83.8 56.6 84.6Q56.1 85.3 55.2 85.7Q54.3 86.1 53.1 86.1Z M59.1 82.4V81.2H63.7V82.4Z M65.7 88.7V77.6H67.0L67.0 79.3H67.1Q67.4 78.5 68.2 78.0Q69.0 77.5 70.0 77.5Q70.8 77.5 71.5 77.8Q72.1 78.1 72.6 78.6Q73.0 79.2 73.3 80.0Q73.5 80.8 73.5 81.8Q73.5 83.2 73.1 84.1Q72.7 85.1 71.9 85.6Q71.1 86.1 70.0 86.1Q69.3 86.1 68.7 85.9Q68.1 85.7 67.7 85.3Q67.3 84.8 67.1 84.3H67.0V88.7ZM69.6 85.1Q70.4 85.1 71.0 84.7Q71.6 84.3 71.9 83.6Q72.2 82.8 72.2 81.8Q72.2 80.8 71.9 80.1Q71.6 79.3 71.0 78.9Q70.4 78.6 69.6 78.6Q68.8 78.6 68.2 78.9Q67.6 79.3 67.3 79.9Q67.0 80.6 67.0 81.3V82.3Q67.0 83.1 67.3 83.7Q67.6 84.3 68.2 84.7Q68.8 85.1 69.6 85.1Z M78.8 86.1Q78.0 86.1 77.4 85.8Q76.8 85.5 76.3 85.0Q75.8 84.4 75.6 83.6Q75.3 82.8 75.3 81.8Q75.3 80.4 75.8 79.5Q76.2 78.5 77.0 78.0Q77.8 77.5 78.8 77.5Q79.5 77.5 80.1 77.7Q80.7 77.9 81.2 78.3Q81.6 78.8 81.8 79.3H81.8L81.9 77.6H83.1V86.0H81.9L81.8 84.3H81.8Q81.5 85.1 80.7 85.6Q79.9 86.1 78.8 86.1ZM79.2 85.1Q80.1 85.1 80.6 84.7Q81.2 84.3 81.5 83.6Q81.8 83.0 81.8 82.3V81.3Q81.8 80.5 81.5 79.9Q81.2 79.3 80.6 78.9Q80.1 78.5 79.2 78.5Q78.4 78.5 77.9 78.9Q77.3 79.3 77.0 80.0Q76.7 80.8 76.7 81.8Q76.7 82.8 77.0 83.5Q77.3 84.3 77.9 84.7Q78.4 85.1 79.2 85.1Z M88.8 88.8Q87.8 88.8 87.1 88.6Q86.4 88.3 85.9 87.7Q85.5 87.2 85.4 86.5H86.7Q86.7 86.9 87.0 87.2Q87.3 87.5 87.7 87.7Q88.2 87.8 88.8 87.8Q89.6 87.8 90.2 87.6Q90.8 87.3 91.0 86.8Q91.3 86.3 91.3 85.5V83.9H91.2Q91.0 84.7 90.2 85.2Q89.5 85.7 88.4 85.7Q87.7 85.7 87.1 85.4Q86.4 85.2 86.0 84.6Q85.6 84.1 85.3 83.3Q85.1 82.5 85.1 81.6Q85.1 80.3 85.5 79.4Q85.9 78.4 86.7 77.9Q87.4 77.4 88.4 77.4Q89.4 77.4 90.2 77.9Q90.9 78.4 91.2 79.2H91.3L91.4 77.6H92.6V85.3Q92.6 86.6 92.1 87.3Q91.7 88.1 90.8 88.5Q90.0 88.8 88.8 88.8ZM88.8 84.6Q89.6 84.6 90.2 84.3Q90.7 83.9 91.0 83.3Q91.3 82.7 91.3 82.0V81.1Q91.3 80.4 91.0 79.8Q90.7 79.2 90.2 78.9Q89.6 78.5 88.9 78.5Q88.1 78.5 87.6 78.9Q87.0 79.2 86.7 79.9Q86.4 80.6 86.4 81.6Q86.4 82.5 86.7 83.2Q87.0 83.9 87.5 84.3Q88.1 84.6 88.8 84.6Z M98.2 86.1Q97.0 86.1 96.2 85.6Q95.3 85.1 94.9 84.1Q94.4 83.1 94.4 81.8Q94.4 80.5 94.9 79.5Q95.3 78.5 96.2 78.0Q97.0 77.5 98.2 77.5Q99.5 77.5 100.3 78.0Q101.1 78.6 101.5 79.6Q101.9 80.7 101.8 82.0H95.7Q95.7 83.1 96.0 83.8Q96.3 84.4 96.9 84.8Q97.5 85.1 98.2 85.1Q99.1 85.1 99.7 84.7Q100.3 84.3 100.5 83.6H101.7Q101.6 84.4 101.1 85.0Q100.6 85.6 99.9 85.8Q99.1 86.1 98.2 86.1ZM95.7 81.3 95.6 81.1H100.7L100.5 81.3Q100.5 80.3 100.3 79.7Q100.0 79.1 99.4 78.8Q98.9 78.5 98.2 78.5Q97.5 78.5 96.9 78.8Q96.4 79.1 96.1 79.7Q95.7 80.4 95.7 81.3Z M107.3 88.7V77.6H108.5L108.6 79.3H108.7Q108.9 78.5 109.7 78.0Q110.5 77.5 111.6 77.5Q112.4 77.5 113.0 77.8Q113.6 78.1 114.1 78.6Q114.6 79.2 114.8 80.0Q115.1 80.8 115.1 81.8Q115.1 83.2 114.6 84.1Q114.2 85.1 113.4 85.6Q112.6 86.1 111.6 86.1Q110.9 86.1 110.3 85.9Q109.7 85.7 109.3 85.3Q108.9 84.8 108.7 84.3H108.6V88.7ZM111.2 85.1Q112.0 85.1 112.5 84.7Q113.1 84.3 113.4 83.6Q113.8 82.8 113.8 81.8Q113.8 80.8 113.4 80.1Q113.1 79.3 112.6 78.9Q112.0 78.6 111.2 78.6Q110.4 78.6 109.8 78.9Q109.2 79.3 108.9 79.9Q108.6 80.6 108.6 81.3V82.3Q108.6 83.1 108.9 83.7Q109.2 84.3 109.8 84.7Q110.4 85.1 111.2 85.1Z M120.4 86.1Q119.6 86.1 119.0 85.8Q118.3 85.5 117.8 85.0Q117.4 84.4 117.1 83.6Q116.9 82.8 116.9 81.8Q116.9 80.4 117.3 79.5Q117.8 78.5 118.5 78.0Q119.3 77.5 120.4 77.5Q121.1 77.5 121.7 77.7Q122.3 77.9 122.7 78.3Q123.1 78.8 123.3 79.3H123.4L123.4 77.6H124.7V86.0H123.4L123.4 84.3H123.3Q123.0 85.1 122.2 85.6Q121.5 86.1 120.4 86.1ZM120.8 85.1Q121.6 85.1 122.2 84.7Q122.8 84.3 123.1 83.6Q123.4 83.0 123.4 82.3V81.3Q123.4 80.5 123.1 79.9Q122.8 79.3 122.2 78.9Q121.6 78.5 120.8 78.5Q120.0 78.5 119.4 78.9Q118.8 79.3 118.5 80.0Q118.2 80.8 118.2 81.8Q118.2 82.8 118.5 83.5Q118.8 84.3 119.4 84.7Q120.0 85.1 120.8 85.1Z M127.1 88.7V77.6H128.3L128.4 79.3H128.5Q128.8 78.5 129.5 78.0Q130.3 77.5 131.4 77.5Q132.2 77.5 132.8 77.8Q133.5 78.1 133.9 78.6Q134.4 79.2 134.6 80.0Q134.9 80.8 134.9 81.8Q134.9 83.2 134.4 84.1Q134.0 85.1 133.2 85.6Q132.4 86.1 131.4 86.1Q130.7 86.1 130.1 85.9Q129.5 85.7 129.1 85.3Q128.7 84.8 128.5 84.3H128.4V88.7ZM131.0 85.1Q131.8 85.1 132.4 84.7Q132.9 84.3 133.2 83.6Q133.6 82.8 133.6 81.8Q133.6 80.8 133.3 80.1Q132.9 79.3 132.4 78.9Q131.8 78.6 131.0 78.6Q130.2 78.6 129.6 78.9Q129.0 79.3 128.7 79.9Q128.4 80.6 128.4 81.3V82.3Q128.4 83.1 128.7 83.7Q129.0 84.3 129.6 84.7Q130.2 85.1 131.0 85.1Z M140.4 86.1Q139.2 86.1 138.3 85.6Q137.5 85.1 137.0 84.1Q136.6 83.1 136.6 81.8Q136.6 80.5 137.0 79.5Q137.5 78.5 138.3 78.0Q139.2 77.5 140.4 77.5Q141.6 77.5 142.5 78.0Q143.3 78.6 143.7 79.6Q144.0 80.7 144.0 82.0H137.9Q137.9 83.1 138.2 83.8Q138.5 84.4 139.1 84.8Q139.6 85.1 140.4 85.1Q141.3 85.1 141.9 84.7Q142.4 84.3 142.6 83.6H143.9Q143.7 84.4 143.3 85.0Q142.8 85.6 142.0 85.8Q141.3 86.1 140.4 86.1ZM137.9 81.3 137.7 81.1H142.8L142.7 81.3Q142.7 80.3 142.4 79.7Q142.1 79.1 141.6 78.8Q141.1 78.5 140.4 78.5Q139.6 78.5 139.1 78.8Q138.5 79.1 138.2 79.7Q137.9 80.4 137.9 81.3Z M145.8 86.0V77.6H146.9L147.0 79.2H147.1Q147.3 78.4 148.0 77.9Q148.7 77.5 149.6 77.5Q149.7 77.5 149.8 77.5Q150.0 77.5 150.1 77.5V78.8Q150.0 78.7 149.8 78.7Q149.7 78.7 149.6 78.7Q148.8 78.7 148.3 79.0Q147.7 79.3 147.4 79.8Q147.1 80.3 147.0 81.0V86.0Z M158.1 86.2Q157.4 86.2 156.7 86.0Q156.1 85.8 155.7 85.4Q155.2 85.1 155.0 84.6Q154.7 84.1 154.7 83.5H156.0Q156.0 84.1 156.3 84.5Q156.6 84.8 157.1 85.0Q157.6 85.2 158.2 85.2Q159.2 85.2 159.7 84.8Q160.2 84.4 160.2 83.8Q160.2 83.3 160.0 83.0Q159.7 82.7 159.3 82.5Q158.8 82.4 158.1 82.3Q157.0 82.1 156.3 81.9Q155.6 81.6 155.3 81.1Q154.9 80.7 154.9 79.9Q154.9 79.2 155.3 78.6Q155.7 78.1 156.5 77.8Q157.2 77.4 158.1 77.4Q159.1 77.4 159.8 77.8Q160.5 78.1 160.9 78.6Q161.3 79.2 161.3 80.0H160.1Q160.0 79.4 159.8 79.1Q159.6 78.7 159.1 78.6Q158.7 78.4 158.1 78.4Q157.2 78.4 156.7 78.8Q156.2 79.2 156.2 79.8Q156.2 80.2 156.5 80.5Q156.7 80.8 157.2 81.0Q157.7 81.1 158.5 81.2Q159.4 81.3 160.1 81.6Q160.8 81.9 161.2 82.3Q161.5 82.8 161.5 83.7Q161.5 84.5 161.1 85.0Q160.7 85.6 159.9 85.9Q159.2 86.2 158.1 86.2Z M166.4 86.1Q165.4 86.1 164.7 85.8Q164.0 85.4 163.7 84.6Q163.3 83.9 163.3 82.8V77.6H164.6V82.4Q164.6 83.3 164.8 83.8Q165.1 84.4 165.6 84.7Q166.0 85.0 166.8 85.0Q167.6 85.0 168.1 84.7Q168.7 84.3 169.0 83.6Q169.4 83.0 169.4 82.1V77.6H170.7V86.0H169.4L169.4 84.2H169.3Q168.9 85.1 168.2 85.6Q167.4 86.1 166.4 86.1Z M173.1 86.0V77.6H174.2L174.3 79.2H174.4Q174.7 78.4 175.3 77.9Q176.0 77.5 176.9 77.5Q177.0 77.5 177.2 77.5Q177.3 77.5 177.4 77.5V78.8Q177.3 78.7 177.2 78.7Q177.0 78.7 176.9 78.7Q176.1 78.7 175.6 79.0Q175.1 79.3 174.7 79.8Q174.4 80.3 174.4 81.0V86.0Z M181.2 86.0 178.2 77.6H179.6L181.2 82.5L182.0 85.0H182.1L182.9 82.5L184.5 77.6H185.9L182.9 86.0Z M190.5 86.1Q189.3 86.1 188.5 85.6Q187.6 85.1 187.2 84.1Q186.7 83.1 186.7 81.8Q186.7 80.5 187.2 79.5Q187.6 78.5 188.5 78.0Q189.3 77.5 190.5 77.5Q191.8 77.5 192.6 78.0Q193.4 78.6 193.8 79.6Q194.2 80.7 194.1 82.0H188.0Q188.0 83.1 188.3 83.8Q188.6 84.4 189.2 84.8Q189.8 85.1 190.5 85.1Q191.4 85.1 192.0 84.7Q192.6 84.3 192.8 83.6H194.0Q193.9 84.4 193.4 85.0Q192.9 85.6 192.2 85.8Q191.4 86.1 190.5 86.1ZM188.0 81.3 187.9 81.1H193.0L192.8 81.3Q192.8 80.3 192.6 79.7Q192.3 79.1 191.7 78.8Q191.2 78.5 190.5 78.5Q189.8 78.5 189.2 78.8Q188.7 79.1 188.4 79.7Q188.0 80.4 188.0 81.3Z M195.5 88.7V87.6H196.4Q196.7 87.6 197.0 87.5Q197.3 87.4 197.5 87.2Q197.7 86.9 197.8 86.6L198.4 85.2V85.7L194.9 77.6H196.4L198.1 82.2L198.8 84.2H198.9L199.6 82.2L201.3 77.6H202.7L199.0 86.9Q198.8 87.5 198.4 87.9Q198.1 88.3 197.6 88.5Q197.2 88.7 196.5 88.7Z M208.3 86.0V78.6H206.8V77.6H208.3V76.2Q208.3 75.3 208.8 74.8Q209.3 74.3 210.3 74.3H211.4V75.4H210.5Q210.0 75.4 209.7 75.6Q209.5 75.9 209.5 76.4V77.6H211.3V78.6H209.5V86.0Z M216.1 86.1Q215.2 86.1 214.4 85.8Q213.7 85.5 213.2 85.0Q212.6 84.4 212.3 83.6Q212.0 82.8 212.0 81.8Q212.0 80.5 212.5 79.6Q213.0 78.6 213.9 78.0Q214.9 77.5 216.1 77.5Q217.0 77.5 217.8 77.8Q218.5 78.1 219.0 78.6Q219.6 79.2 219.8 80.0Q220.1 80.8 220.1 81.8Q220.1 83.1 219.6 84.1Q219.2 85.0 218.2 85.6Q217.3 86.1 216.1 86.1ZM216.1 85.0Q216.9 85.0 217.5 84.6Q218.1 84.3 218.5 83.5Q218.8 82.8 218.8 81.8Q218.8 81.1 218.6 80.5Q218.4 79.9 218.1 79.4Q217.7 79.0 217.2 78.8Q216.7 78.6 216.1 78.6Q215.3 78.6 214.7 79.0Q214.0 79.3 213.7 80.1Q213.4 80.8 213.4 81.8Q213.4 82.6 213.5 83.2Q213.7 83.8 214.1 84.2Q214.4 84.6 215.0 84.8Q215.5 85.0 216.1 85.0Z M222.0 86.0V77.6H223.2L223.3 79.2H223.3Q223.6 78.4 224.3 77.9Q225.0 77.5 225.8 77.5Q226.0 77.5 226.1 77.5Q226.2 77.5 226.4 77.5V78.8Q226.2 78.7 226.1 78.7Q226.0 78.7 225.8 78.7Q225.1 78.7 224.6 79.0Q224.0 79.3 223.7 79.8Q223.4 80.3 223.3 81.0V86.0Z M231.7 86.0V74.3H237.1Q237.7 74.3 238.3 74.5Q238.9 74.6 239.3 74.8Q239.8 75.1 240.1 75.5Q240.4 75.9 240.5 76.3Q240.7 76.8 240.7 77.4Q240.7 78.5 240.2 79.3Q239.6 80.0 238.6 80.3V80.4Q239.3 80.5 239.7 80.8Q240.1 81.1 240.3 81.6Q240.5 82.0 240.5 82.7V84.8Q240.5 85.1 240.5 85.4Q240.5 85.7 240.7 86.0H239.3Q239.2 85.7 239.1 85.4Q239.1 85.1 239.1 84.7V83.0Q239.1 82.3 238.9 81.9Q238.7 81.5 238.2 81.3Q237.8 81.0 236.9 81.0H232.9V79.9H236.8Q238.1 79.9 238.7 79.3Q239.3 78.6 239.3 77.6Q239.3 77.1 239.1 76.7Q239.0 76.3 238.6 76.0Q238.3 75.7 237.8 75.6Q237.3 75.5 236.8 75.5H233.1V86.0Z M243.0 86.0V74.3H247.6Q249.2 74.3 250.4 75.1Q251.6 75.8 252.2 77.1Q252.8 78.4 252.8 80.2Q252.8 81.5 252.4 82.6Q252.1 83.6 251.4 84.4Q250.8 85.2 249.8 85.6Q248.8 86.0 247.6 86.0ZM244.4 84.8H247.4Q248.3 84.8 249.1 84.5Q249.8 84.2 250.3 83.6Q250.8 83.0 251.1 82.2Q251.4 81.3 251.4 80.1Q251.4 78.6 250.9 77.6Q250.4 76.6 249.5 76.0Q248.6 75.5 247.4 75.5H244.4Z M254.9 86.0V74.3H256.3V86.0ZM263.3 86.0V74.3H264.7V86.0ZM255.9 80.6V79.4H263.7V80.6Z M271.2 86.1Q269.7 86.1 268.7 85.7Q267.7 85.2 267.2 84.3Q266.7 83.5 266.7 82.4H268.1Q268.1 83.2 268.5 83.8Q268.8 84.4 269.5 84.7Q270.2 85.0 271.3 85.0Q272.2 85.0 272.8 84.8Q273.5 84.6 273.9 84.1Q274.3 83.7 274.3 82.9Q274.3 82.4 274.1 82.0Q273.9 81.6 273.5 81.4Q273.2 81.1 272.5 80.9Q271.9 80.8 271.0 80.6Q270.0 80.4 269.3 80.2Q268.5 79.9 268.0 79.6Q267.5 79.2 267.2 78.7Q267.0 78.2 267.0 77.4Q267.0 76.4 267.5 75.7Q268.0 75.0 268.9 74.6Q269.8 74.2 271.2 74.2Q272.5 74.2 273.4 74.6Q274.3 75.1 274.8 75.8Q275.3 76.6 275.3 77.6H273.9Q273.9 76.8 273.5 76.3Q273.2 75.8 272.6 75.5Q271.9 75.3 271.1 75.3Q270.2 75.3 269.6 75.5Q269.0 75.8 268.7 76.2Q268.4 76.6 268.4 77.2Q268.4 77.9 268.7 78.3Q269.0 78.7 269.7 78.9Q270.5 79.2 271.7 79.4Q272.5 79.5 273.2 79.7Q273.9 79.9 274.5 80.3Q275.0 80.7 275.4 81.3Q275.7 81.9 275.7 82.9Q275.7 83.8 275.2 84.6Q274.7 85.3 273.7 85.7Q272.7 86.1 271.2 86.1Z M286.4 86.1Q285.1 86.1 284.1 85.7Q283.1 85.3 282.3 84.5Q281.6 83.7 281.2 82.7Q280.8 81.6 280.8 80.2Q280.8 78.8 281.2 77.7Q281.6 76.6 282.4 75.8Q283.1 75.1 284.2 74.6Q285.3 74.2 286.6 74.2Q288.0 74.2 289.1 74.6Q290.2 75.1 290.9 75.9Q291.6 76.8 291.9 77.9H290.4Q290.3 77.2 289.7 76.6Q289.2 76.0 288.4 75.7Q287.6 75.4 286.6 75.4Q285.2 75.4 284.2 76.0Q283.2 76.6 282.7 77.7Q282.2 78.8 282.2 80.2Q282.2 81.3 282.5 82.2Q282.8 83.1 283.4 83.7Q283.9 84.3 284.7 84.6Q285.5 85.0 286.5 85.0Q287.7 85.0 288.6 84.5Q289.5 84.1 290.0 83.2Q290.5 82.4 290.5 81.3V80.5L290.9 80.9H286.1V79.8H292.0V86.0H290.9L290.8 83.6H290.7Q290.4 84.4 289.8 84.9Q289.2 85.5 288.3 85.8Q287.4 86.1 286.4 86.1Z M297.5 86.1Q296.7 86.1 296.1 85.8Q295.4 85.5 294.9 85.0Q294.5 84.4 294.2 83.6Q294.0 82.8 294.0 81.8Q294.0 80.4 294.4 79.5Q294.9 78.5 295.6 78.0Q296.4 77.5 297.5 77.5Q298.2 77.5 298.8 77.7Q299.4 77.9 299.8 78.3Q300.2 78.8 300.4 79.3H300.5L300.5 77.6H301.8V86.0H300.5L300.5 84.3H300.4Q300.1 85.1 299.3 85.6Q298.6 86.1 297.5 86.1ZM297.9 85.1Q298.7 85.1 299.3 84.7Q299.9 84.3 300.2 83.6Q300.5 83.0 300.5 82.3V81.3Q300.5 80.5 300.2 79.9Q299.9 79.3 299.3 78.9Q298.7 78.5 297.9 78.5Q297.1 78.5 296.5 78.9Q295.9 79.3 295.6 80.0Q295.3 80.8 295.3 81.8Q295.3 82.8 295.6 83.5Q295.9 84.3 296.5 84.7Q297.1 85.1 297.9 85.1Z M304.2 86.0V74.3H305.5V86.0Z M307.9 86.0V74.3H309.2V86.0Z M314.9 86.1Q313.7 86.1 312.8 85.6Q312.0 85.1 311.5 84.1Q311.1 83.1 311.1 81.8Q311.1 80.5 311.5 79.5Q312.0 78.5 312.8 78.0Q313.6 77.5 314.8 77.5Q316.1 77.5 316.9 78.0Q317.8 78.6 318.2 79.6Q318.5 80.7 318.4 82.0H312.3Q312.4 83.1 312.7 83.8Q313.0 84.4 313.5 84.8Q314.1 85.1 314.9 85.1Q315.8 85.1 316.4 84.7Q316.9 84.3 317.1 83.6H318.4Q318.2 84.4 317.7 85.0Q317.2 85.6 316.5 85.8Q315.8 86.1 314.9 86.1ZM312.4 81.3 312.2 81.1H317.3L317.2 81.3Q317.2 80.3 316.9 79.7Q316.6 79.1 316.1 78.8Q315.5 78.5 314.8 78.5Q314.1 78.5 313.6 78.8Q313.0 79.1 312.7 79.7Q312.4 80.4 312.4 81.3Z M319.4 88.2Q319.9 87.6 320.2 87.0Q320.6 86.3 320.6 85.8L320.7 85.9Q320.7 86.0 320.6 86.0Q320.5 86.1 320.4 86.1Q320.0 86.1 319.9 85.9Q319.7 85.7 319.7 85.4Q319.7 85.0 319.9 84.8Q320.1 84.7 320.4 84.7Q320.8 84.7 321.0 84.9Q321.2 85.1 321.2 85.6Q321.2 85.9 321.1 86.3Q321.0 86.7 320.9 87.0Q320.7 87.4 320.5 87.7Q320.3 88.0 320.1 88.2Z M329.4 86.0Q328.6 86.0 328.1 85.6Q327.6 85.2 327.6 84.2V78.7H326.0V77.6H327.6V75.1L328.9 74.9V77.6H330.9V78.7H328.9V84.0Q328.9 84.5 329.2 84.7Q329.4 84.9 329.8 84.9H330.9V86.0Z M335.5 86.1Q334.6 86.1 333.9 85.8Q333.2 85.4 332.9 84.6Q332.5 83.9 332.5 82.8V77.6H333.8V82.4Q333.8 83.3 334.0 83.8Q334.2 84.4 334.7 84.7Q335.2 85.0 336.0 85.0Q336.7 85.0 337.3 84.7Q337.9 84.3 338.2 83.6Q338.5 83.0 338.5 82.1V77.6H339.8V86.0H338.6L338.5 84.2H338.4Q338.1 85.1 337.3 85.6Q336.5 86.1 335.5 86.1Z M342.3 86.0V77.6H343.4L343.5 79.2H343.6Q343.8 78.4 344.5 77.9Q345.2 77.5 346.0 77.5Q346.2 77.5 346.3 77.5Q346.4 77.5 346.6 77.5V78.8Q346.4 78.7 346.3 78.7Q346.2 78.7 346.0 78.7Q345.3 78.7 344.8 79.0Q344.2 79.3 343.9 79.8Q343.6 80.3 343.5 81.0V86.0Z M348.1 86.0V77.6H349.3L349.4 79.3H349.5Q349.9 78.4 350.7 77.9Q351.5 77.5 352.4 77.5Q353.1 77.5 353.6 77.7Q354.2 77.9 354.6 78.3Q355.0 78.7 355.2 79.4Q355.4 80.1 355.4 81.1V86.0H354.1V81.3Q354.1 80.4 353.9 79.8Q353.7 79.2 353.2 78.9Q352.7 78.6 352.0 78.6Q351.2 78.6 350.6 78.9Q350.0 79.3 349.7 80.0Q349.4 80.6 349.4 81.5V86.0Z M361.1 86.1Q359.9 86.1 359.0 85.6Q358.2 85.1 357.7 84.1Q357.3 83.1 357.3 81.8Q357.3 80.5 357.7 79.5Q358.2 78.5 359.0 78.0Q359.8 77.5 361.0 77.5Q362.3 77.5 363.1 78.0Q364.0 78.6 364.3 79.6Q364.7 80.7 364.6 82.0H358.5Q358.5 83.1 358.9 83.8Q359.2 84.4 359.7 84.8Q360.3 85.1 361.1 85.1Q362.0 85.1 362.5 84.7Q363.1 84.3 363.3 83.6H364.6Q364.4 84.4 363.9 85.0Q363.4 85.6 362.7 85.8Q362.0 86.1 361.1 86.1ZM358.5 81.3 358.4 81.1H363.5L363.4 81.3Q363.4 80.3 363.1 79.7Q362.8 79.1 362.3 78.8Q361.7 78.5 361.0 78.5Q360.3 78.5 359.7 78.8Q359.2 79.1 358.9 79.7Q358.6 80.4 358.5 81.3Z M369.6 86.1Q368.8 86.1 368.2 85.8Q367.5 85.5 367.0 85.0Q366.6 84.4 366.3 83.6Q366.1 82.8 366.1 81.8Q366.1 80.4 366.5 79.5Q367.0 78.5 367.7 78.0Q368.5 77.5 369.6 77.5Q370.3 77.5 370.9 77.7Q371.5 77.9 371.9 78.3Q372.3 78.8 372.5 79.3H372.6V74.3H373.9V86.0H372.6L372.6 84.3H372.5Q372.2 85.1 371.4 85.6Q370.7 86.1 369.6 86.1ZM370.0 85.1Q370.8 85.1 371.4 84.7Q372.0 84.3 372.3 83.6Q372.6 83.0 372.6 82.3V81.3Q372.6 80.5 372.3 79.9Q372.0 79.3 371.4 78.9Q370.8 78.5 370.0 78.5Q369.2 78.5 368.6 78.9Q368.0 79.3 367.7 80.0Q367.4 80.8 367.4 81.8Q367.4 82.8 367.7 83.5Q368.0 84.3 368.6 84.7Q369.2 85.1 370.0 85.1Z M380.0 86.0V77.6H381.3V86.0ZM380.6 76.2Q380.3 76.2 380.0 76.0Q379.8 75.8 379.8 75.4Q379.8 75.1 380.0 74.9Q380.3 74.7 380.6 74.7Q381.0 74.7 381.2 74.9Q381.4 75.1 381.4 75.4Q381.4 75.8 381.2 76.0Q381.0 76.2 380.6 76.2Z M383.7 86.0V77.6H384.9L385.0 79.3H385.1Q385.5 78.4 386.3 77.9Q387.1 77.5 388.0 77.5Q388.7 77.5 389.2 77.7Q389.8 77.9 390.2 78.3Q390.6 78.7 390.8 79.4Q391.0 80.1 391.0 81.1V86.0H389.7V81.3Q389.7 80.4 389.5 79.8Q389.3 79.2 388.8 78.9Q388.3 78.6 387.6 78.6Q386.8 78.6 386.2 78.9Q385.6 79.3 385.3 80.0Q385.0 80.6 385.0 81.5V86.0Z M395.7 86.0Q394.8 86.0 394.4 85.6Q393.9 85.2 393.9 84.2V78.7H392.3V77.6H393.9V75.1L395.2 74.9V77.6H397.1V78.7H395.2V84.0Q395.2 84.5 395.4 84.7Q395.6 84.9 396.1 84.9H397.2V86.0Z M402.2 86.1Q401.3 86.1 400.6 85.8Q399.8 85.5 399.3 85.0Q398.8 84.4 398.5 83.6Q398.2 82.8 398.2 81.8Q398.2 80.5 398.7 79.6Q399.2 78.6 400.1 78.0Q401.0 77.5 402.2 77.5Q403.1 77.5 403.9 77.8Q404.6 78.1 405.2 78.6Q405.7 79.2 406.0 80.0Q406.3 80.8 406.3 81.8Q406.3 83.1 405.8 84.1Q405.3 85.0 404.4 85.6Q403.5 86.1 402.2 86.1ZM402.2 85.0Q403.0 85.0 403.6 84.6Q404.3 84.3 404.6 83.5Q404.9 82.8 404.9 81.8Q404.9 81.1 404.8 80.5Q404.6 79.9 404.2 79.4Q403.9 79.0 403.4 78.8Q402.9 78.6 402.2 78.6Q401.4 78.6 400.8 79.0Q400.2 79.3 399.8 80.1Q399.5 80.8 399.5 81.8Q399.5 82.6 399.7 83.2Q399.9 83.8 400.2 84.2Q400.6 84.6 401.1 84.8Q401.6 85.0 402.2 85.0Z M414.9 86.1Q414.1 86.1 413.4 85.8Q412.8 85.5 412.3 85.0Q411.9 84.4 411.6 83.6Q411.4 82.8 411.4 81.8Q411.4 80.4 411.8 79.5Q412.3 78.5 413.0 78.0Q413.8 77.5 414.9 77.5Q415.6 77.5 416.2 77.7Q416.8 77.9 417.2 78.3Q417.6 78.8 417.8 79.3H417.9L417.9 77.6H419.2V86.0H417.9L417.9 84.3H417.8Q417.5 85.1 416.7 85.6Q416.0 86.1 414.9 86.1ZM415.3 85.1Q416.1 85.1 416.7 84.7Q417.3 84.3 417.6 83.6Q417.9 83.0 417.9 82.3V81.3Q417.9 80.5 417.6 79.9Q417.2 79.3 416.7 78.9Q416.1 78.5 415.3 78.5Q414.5 78.5 413.9 78.9Q413.3 79.3 413.0 80.0Q412.7 80.8 412.7 81.8Q412.7 82.8 413.0 83.5Q413.3 84.3 413.9 84.7Q414.5 85.1 415.3 85.1Z M421.6 86.0V77.6H422.8L422.9 79.3H423.0Q423.4 78.4 424.2 77.9Q425.0 77.5 425.9 77.5Q426.6 77.5 427.1 77.7Q427.7 77.9 428.1 78.3Q428.5 78.7 428.7 79.4Q428.9 80.1 428.9 81.1V86.0H427.6V81.3Q427.6 80.4 427.4 79.8Q427.2 79.2 426.7 78.9Q426.2 78.6 425.5 78.6Q424.7 78.6 424.1 78.9Q423.5 79.3 423.2 80.0Q422.9 80.6 422.9 81.5V86.0Z M437.9 86.1Q437.1 86.1 436.5 85.8Q435.8 85.5 435.4 85.0Q434.9 84.4 434.6 83.6Q434.4 82.8 434.4 81.8Q434.4 80.4 434.8 79.5Q435.3 78.5 436.1 78.0Q436.8 77.5 437.9 77.5Q438.6 77.5 439.2 77.7Q439.8 77.9 440.2 78.3Q440.6 78.8 440.8 79.3H440.9L441.0 77.6H442.2V86.0H441.0L440.9 84.3H440.8Q440.5 85.1 439.8 85.6Q439.0 86.1 437.9 86.1ZM438.3 85.1Q439.1 85.1 439.7 84.7Q440.3 84.3 440.6 83.6Q440.9 83.0 440.9 82.3V81.3Q440.9 80.5 440.6 79.9Q440.3 79.3 439.7 78.9Q439.1 78.5 438.3 78.5Q437.5 78.5 436.9 78.9Q436.4 79.3 436.0 80.0Q435.7 80.8 435.7 81.8Q435.7 82.8 436.0 83.5Q436.4 84.3 436.9 84.7Q437.5 85.1 438.3 85.1Z M444.6 88.7V77.6H445.8L445.9 79.3H446.0Q446.3 78.5 447.1 78.0Q447.8 77.5 448.9 77.5Q449.7 77.5 450.3 77.8Q451.0 78.1 451.4 78.6Q451.9 79.2 452.2 80.0Q452.4 80.8 452.4 81.8Q452.4 83.2 452.0 84.1Q451.5 85.1 450.8 85.6Q450.0 86.1 448.9 86.1Q448.2 86.1 447.6 85.9Q447.0 85.7 446.6 85.3Q446.2 84.8 446.0 84.3H445.9V88.7ZM448.5 85.1Q449.3 85.1 449.9 84.7Q450.4 84.3 450.8 83.6Q451.1 82.8 451.1 81.8Q451.1 80.8 450.8 80.1Q450.5 79.3 449.9 78.9Q449.3 78.6 448.5 78.6Q447.7 78.6 447.1 78.9Q446.5 79.3 446.2 79.9Q445.9 80.6 445.9 81.3V82.3Q445.9 83.1 446.2 83.7Q446.5 84.3 447.1 84.7Q447.7 85.1 448.5 85.1Z M454.4 88.7V77.6H455.6L455.7 79.3H455.7Q456.0 78.5 456.8 78.0Q457.6 77.5 458.7 77.5Q459.5 77.5 460.1 77.8Q460.7 78.1 461.2 78.6Q461.7 79.2 461.9 80.0Q462.2 80.8 462.2 81.8Q462.2 83.2 461.7 84.1Q461.3 85.1 460.5 85.6Q459.7 86.1 458.7 86.1Q458.0 86.1 457.4 85.9Q456.8 85.7 456.4 85.3Q456.0 84.8 455.7 84.3H455.7V88.7ZM458.2 85.1Q459.1 85.1 459.6 84.7Q460.2 84.3 460.5 83.6Q460.8 82.8 460.8 81.8Q460.8 80.8 460.5 80.1Q460.2 79.3 459.6 78.9Q459.1 78.6 458.3 78.6Q457.4 78.6 456.9 78.9Q456.3 79.3 456.0 79.9Q455.7 80.6 455.7 81.3V82.3Q455.7 83.1 456.0 83.7Q456.3 84.3 456.9 84.7Q457.4 85.1 458.2 85.1Z M468.9 86.0 466.7 77.6H468.0L469.3 82.6L469.8 84.8H469.9L470.4 82.6L471.5 77.6H473.1L474.3 82.6L474.8 84.9H474.8L475.3 82.6L476.6 77.6H477.8L475.6 86.0H473.9L472.8 81.3L472.3 79.1H472.2L471.8 81.3L470.7 86.0Z M479.2 86.0V77.6H480.5V86.0ZM479.9 76.2Q479.5 76.2 479.3 76.0Q479.0 75.8 479.0 75.4Q479.0 75.1 479.3 74.9Q479.5 74.7 479.9 74.7Q480.2 74.7 480.4 74.9Q480.7 75.1 480.7 75.4Q480.7 75.8 480.4 76.0Q480.2 76.2 479.9 76.2Z M485.5 86.0Q484.6 86.0 484.1 85.6Q483.7 85.2 483.7 84.2V78.7H482.0V77.6H483.7V75.1L484.9 74.9V77.6H486.9V78.7H485.0V84.0Q485.0 84.5 485.2 84.7Q485.4 84.9 485.8 84.9H486.9V86.0Z M488.7 86.0V74.3H489.9V79.3H490.0Q490.4 78.4 491.2 77.9Q492.0 77.5 493.0 77.5Q493.6 77.5 494.2 77.7Q494.7 77.9 495.1 78.3Q495.5 78.7 495.8 79.4Q496.0 80.1 496.0 81.1V86.0H494.7V81.3Q494.7 80.4 494.5 79.8Q494.2 79.2 493.8 78.9Q493.3 78.6 492.5 78.6Q491.8 78.6 491.2 78.9Q490.6 79.3 490.3 80.0Q489.9 80.6 489.9 81.5V86.0Z M505.5 86.1Q504.6 86.1 503.8 85.8Q503.1 85.5 502.5 85.0Q502.0 84.4 501.7 83.6Q501.4 82.8 501.4 81.8Q501.4 80.5 501.9 79.6Q502.4 78.6 503.3 78.0Q504.2 77.5 505.5 77.5Q506.4 77.5 507.1 77.8Q507.9 78.1 508.4 78.6Q508.9 79.2 509.2 80.0Q509.5 80.8 509.5 81.8Q509.5 83.1 509.0 84.1Q508.5 85.0 507.6 85.6Q506.7 86.1 505.5 86.1ZM505.5 85.0Q506.3 85.0 506.9 84.6Q507.5 84.3 507.8 83.5Q508.2 82.8 508.2 81.8Q508.2 81.1 508.0 80.5Q507.8 79.9 507.5 79.4Q507.1 79.0 506.6 78.8Q506.1 78.6 505.5 78.6Q504.7 78.6 504.0 79.0Q503.4 79.3 503.1 80.1Q502.7 80.8 502.7 81.8Q502.7 82.6 502.9 83.2Q503.1 83.8 503.5 84.2Q503.8 84.6 504.3 84.8Q504.8 85.0 505.5 85.0Z M511.7 86.0V78.6H510.3V77.6H511.7V76.2Q511.7 75.3 512.3 74.8Q512.8 74.3 513.7 74.3H514.9V75.4H514.0Q513.4 75.4 513.2 75.6Q513.0 75.9 513.0 76.4V77.6H516.2V76.2Q516.2 75.3 516.7 74.8Q517.2 74.3 518.2 74.3H519.3V75.4H518.4Q517.9 75.4 517.6 75.6Q517.4 75.9 517.4 76.4V77.6H519.2V78.6H517.4V86.0H516.2V78.6H513.0V86.0Z M520.6 86.0V74.3H521.9V86.0Z M524.3 86.0V77.6H525.6V86.0ZM525.0 76.2Q524.6 76.2 524.4 76.0Q524.2 75.8 524.2 75.4Q524.2 75.1 524.4 74.9Q524.6 74.7 525.0 74.7Q525.4 74.7 525.6 74.9Q525.8 75.1 525.8 75.4Q525.8 75.8 525.6 76.0Q525.4 76.2 525.0 76.2Z M528.1 86.0V77.6H529.3L529.3 79.3H529.4Q529.8 78.4 530.6 77.9Q531.4 77.5 532.4 77.5Q533.0 77.5 533.6 77.7Q534.1 77.9 534.5 78.3Q534.9 78.7 535.2 79.4Q535.4 80.1 535.4 81.1V86.0H534.1V81.3Q534.1 80.4 533.9 79.8Q533.6 79.2 533.2 78.9Q532.7 78.6 532.0 78.6Q531.2 78.6 530.6 78.9Q530.0 79.3 529.7 80.0Q529.3 80.6 529.3 81.5V86.0Z M541.0 86.1Q539.8 86.1 539.0 85.6Q538.1 85.1 537.7 84.1Q537.2 83.1 537.2 81.8Q537.2 80.5 537.7 79.5Q538.1 78.5 538.9 78.0Q539.8 77.5 541.0 77.5Q542.3 77.5 543.1 78.0Q543.9 78.6 544.3 79.6Q544.7 80.7 544.6 82.0H538.5Q538.5 83.1 538.8 83.8Q539.1 84.4 539.7 84.8Q540.3 85.1 541.0 85.1Q541.9 85.1 542.5 84.7Q543.1 84.3 543.3 83.6H544.5Q544.4 84.4 543.9 85.0Q543.4 85.6 542.7 85.8Q541.9 86.1 541.0 86.1ZM538.5 81.3 538.4 81.1H543.5L543.3 81.3Q543.3 80.3 543.0 79.7Q542.8 79.1 542.2 78.8Q541.7 78.5 541.0 78.5Q540.2 78.5 539.7 78.8Q539.2 79.1 538.8 79.7Q538.5 80.4 538.5 81.3Z" fill="#9198a1"/><path d="M32.1 110.2Q31.3 110.2 30.7 110.0Q30.0 109.8 29.6 109.4Q29.2 109.1 28.9 108.6Q28.7 108.1 28.7 107.5H29.9Q30.0 108.1 30.2 108.5Q30.5 108.8 31.0 109.0Q31.5 109.2 32.1 109.2Q33.1 109.2 33.6 108.8Q34.1 108.4 34.1 107.8Q34.1 107.3 33.9 107.0Q33.7 106.7 33.2 106.5Q32.8 106.4 32.0 106.3Q31.0 106.1 30.3 105.9Q29.6 105.6 29.2 105.1Q28.9 104.7 28.9 103.9Q28.9 103.2 29.3 102.6Q29.7 102.1 30.4 101.8Q31.1 101.4 32.1 101.4Q33.1 101.4 33.8 101.8Q34.5 102.1 34.9 102.6Q35.3 103.2 35.3 104.0H34.0Q34.0 103.4 33.7 103.1Q33.5 102.7 33.1 102.6Q32.6 102.4 32.1 102.4Q31.2 102.4 30.7 102.8Q30.2 103.2 30.2 103.8Q30.2 104.2 30.4 104.5Q30.7 104.8 31.2 105.0Q31.7 105.1 32.4 105.2Q33.4 105.3 34.1 105.6Q34.7 105.9 35.1 106.3Q35.4 106.8 35.4 107.7Q35.4 108.5 35.0 109.0Q34.6 109.6 33.8 109.9Q33.1 110.2 32.1 110.2Z M37.0 112.7V111.6H37.8Q38.2 111.6 38.5 111.5Q38.8 111.4 39.0 111.2Q39.2 110.9 39.3 110.6L39.8 109.2V109.7L36.4 101.6H37.8L39.6 106.2L40.3 108.2H40.4L41.1 106.2L42.7 101.6H44.1L40.5 110.9Q40.3 111.5 39.9 111.9Q39.6 112.3 39.1 112.5Q38.7 112.7 38.0 112.7Z M45.7 110.0V101.6H46.9L46.9 103.3H47.0Q47.4 102.4 48.2 101.9Q49.0 101.5 50.0 101.5Q50.6 101.5 51.2 101.7Q51.7 101.9 52.1 102.3Q52.5 102.7 52.8 103.4Q53.0 104.1 53.0 105.1V110.0H51.7V105.3Q51.7 104.4 51.5 103.8Q51.2 103.2 50.8 102.9Q50.3 102.6 49.6 102.6Q48.8 102.6 48.2 102.9Q47.6 103.3 47.3 104.0Q46.9 104.6 46.9 105.5V110.0Z M58.9 110.1Q58.0 110.1 57.3 109.8Q56.5 109.5 56.0 109.0Q55.5 108.4 55.2 107.6Q54.9 106.8 54.9 105.8Q54.9 104.8 55.2 104.0Q55.5 103.2 56.0 102.7Q56.6 102.1 57.3 101.8Q58.1 101.5 59.0 101.5Q60.0 101.5 60.7 101.8Q61.5 102.2 62.0 102.8Q62.4 103.5 62.5 104.3H61.3Q61.2 103.7 60.8 103.3Q60.5 103.0 60.0 102.8Q59.5 102.6 58.9 102.6Q58.3 102.6 57.8 102.8Q57.3 103.0 56.9 103.5Q56.6 103.9 56.4 104.5Q56.2 105.1 56.2 105.8Q56.2 106.8 56.6 107.6Q56.9 108.3 57.5 108.7Q58.1 109.0 58.9 109.0Q59.6 109.0 60.1 108.8Q60.6 108.6 60.9 108.2Q61.2 107.7 61.3 107.2H62.6Q62.5 108.1 62.0 108.7Q61.5 109.4 60.7 109.8Q59.9 110.1 58.9 110.1Z M71.1 110.1Q70.3 110.1 69.7 109.8Q69.0 109.5 68.6 109.0Q68.1 108.4 67.8 107.6Q67.6 106.8 67.6 105.8Q67.6 104.4 68.0 103.5Q68.5 102.5 69.3 102.0Q70.0 101.5 71.1 101.5Q71.8 101.5 72.4 101.7Q73.0 101.9 73.4 102.3Q73.8 102.8 74.0 103.3H74.1L74.2 101.6H75.4V110.0H74.2L74.1 108.3H74.0Q73.7 109.1 73.0 109.6Q72.2 110.1 71.1 110.1ZM71.5 109.1Q72.3 109.1 72.9 108.7Q73.5 108.3 73.8 107.6Q74.1 107.0 74.1 106.3V105.3Q74.1 104.5 73.8 103.9Q73.5 103.3 72.9 102.9Q72.3 102.5 71.5 102.5Q70.7 102.5 70.1 102.9Q69.6 103.3 69.2 104.0Q68.9 104.8 68.9 105.8Q68.9 106.8 69.2 107.5Q69.6 108.3 70.1 108.7Q70.7 109.1 71.5 109.1Z M77.8 110.0V101.6H79.1L79.1 103.3H79.2Q79.6 102.4 80.4 101.9Q81.2 101.5 82.1 101.5Q82.8 101.5 83.3 101.7Q83.9 101.9 84.3 102.3Q84.7 102.7 84.9 103.4Q85.2 104.1 85.2 105.1V110.0H83.9V105.3Q83.9 104.4 83.6 103.8Q83.4 103.2 82.9 102.9Q82.4 102.6 81.7 102.6Q80.9 102.6 80.3 102.9Q79.7 103.3 79.4 104.0Q79.1 104.6 79.1 105.5V110.0Z M90.6 110.1Q89.8 110.1 89.1 109.8Q88.5 109.5 88.0 109.0Q87.6 108.4 87.3 107.6Q87.1 106.8 87.1 105.8Q87.1 104.4 87.5 103.5Q88.0 102.5 88.7 102.0Q89.5 101.5 90.6 101.5Q91.3 101.5 91.9 101.7Q92.5 101.9 92.9 102.3Q93.3 102.8 93.5 103.3H93.6V98.3H94.9V110.0H93.6L93.6 108.3H93.5Q93.2 109.1 92.4 109.6Q91.6 110.1 90.6 110.1ZM91.0 109.1Q91.8 109.1 92.4 108.7Q93.0 108.3 93.3 107.6Q93.6 107.0 93.6 106.3V105.3Q93.6 104.5 93.3 103.9Q92.9 103.3 92.4 102.9Q91.8 102.5 91.0 102.5Q90.2 102.5 89.6 102.9Q89.0 103.3 88.7 104.0Q88.4 104.8 88.4 105.8Q88.4 106.8 88.7 107.5Q89.0 108.3 89.6 108.7Q90.2 109.1 91.0 109.1Z M101.0 110.0V101.6H102.3V110.0ZM101.6 100.2Q101.3 100.2 101.0 100.0Q100.8 99.8 100.8 99.4Q100.8 99.1 101.0 98.9Q101.3 98.7 101.6 98.7Q102.0 98.7 102.2 98.9Q102.4 99.1 102.4 99.4Q102.4 99.8 102.2 100.0Q102.0 100.2 101.6 100.2Z M104.7 110.0V101.6H105.9L106.0 103.3H106.1Q106.4 102.4 107.2 101.9Q108.0 101.5 109.0 101.5Q109.6 101.5 110.2 101.7Q110.8 101.9 111.2 102.3Q111.6 102.7 111.8 103.4Q112.0 104.1 112.0 105.1V110.0H110.7V105.3Q110.7 104.4 110.5 103.8Q110.3 103.2 109.8 102.9Q109.3 102.6 108.6 102.6Q107.8 102.6 107.2 102.9Q106.6 103.3 106.3 104.0Q106.0 104.6 106.0 105.5V110.0Z M117.2 110.2Q116.4 110.2 115.7 110.0Q115.1 109.8 114.7 109.4Q114.2 109.1 114.0 108.6Q113.7 108.1 113.7 107.5H115.0Q115.0 108.1 115.3 108.5Q115.6 108.8 116.1 109.0Q116.6 109.2 117.2 109.2Q118.2 109.2 118.7 108.8Q119.2 108.4 119.2 107.8Q119.2 107.3 119.0 107.0Q118.8 106.7 118.3 106.5Q117.8 106.4 117.1 106.3Q116.0 106.1 115.3 105.9Q114.7 105.6 114.3 105.1Q114.0 104.7 114.0 103.9Q114.0 103.2 114.4 102.6Q114.8 102.1 115.5 101.8Q116.2 101.4 117.2 101.4Q118.1 101.4 118.8 101.8Q119.5 102.1 119.9 102.6Q120.3 103.2 120.4 104.0H119.1Q119.1 103.4 118.8 103.1Q118.6 102.7 118.1 102.6Q117.7 102.4 117.1 102.4Q116.2 102.4 115.7 102.8Q115.2 103.2 115.2 103.8Q115.2 104.2 115.5 104.5Q115.7 104.8 116.2 105.0Q116.7 105.1 117.5 105.2Q118.4 105.3 119.1 105.6Q119.8 105.9 120.2 106.3Q120.5 106.8 120.5 107.7Q120.5 108.5 120.1 109.0Q119.7 109.6 118.9 109.9Q118.2 110.2 117.2 110.2Z M125.0 110.0Q124.1 110.0 123.6 109.6Q123.2 109.2 123.2 108.2V102.7H121.5V101.6H123.2V99.1L124.4 98.9V101.6H126.4V102.7H124.5V108.0Q124.5 108.5 124.7 108.7Q124.9 108.9 125.3 108.9H126.4V110.0Z M131.0 110.1Q130.2 110.1 129.6 109.8Q128.9 109.5 128.5 109.0Q128.0 108.4 127.8 107.6Q127.5 106.8 127.5 105.8Q127.5 104.4 127.9 103.5Q128.4 102.5 129.2 102.0Q130.0 101.5 131.0 101.5Q131.7 101.5 132.3 101.7Q132.9 101.9 133.3 102.3Q133.7 102.8 133.9 103.3H134.0L134.1 101.6H135.3V110.0H134.1L134.0 108.3H133.9Q133.6 109.1 132.9 109.6Q132.1 110.1 131.0 110.1ZM131.4 109.1Q132.2 109.1 132.8 108.7Q133.4 108.3 133.7 107.6Q134.0 107.0 134.0 106.3V105.3Q134.0 104.5 133.7 103.9Q133.4 103.3 132.8 102.9Q132.2 102.5 131.4 102.5Q130.6 102.5 130.0 102.9Q129.5 103.3 129.1 104.0Q128.8 104.8 128.8 105.8Q128.8 106.8 129.1 107.5Q129.5 108.3 130.0 108.7Q130.6 109.1 131.4 109.1Z M137.7 110.0V101.6H139.0L139.0 103.3H139.1Q139.5 102.4 140.3 101.9Q141.1 101.5 142.0 101.5Q142.7 101.5 143.2 101.7Q143.8 101.9 144.2 102.3Q144.6 102.7 144.8 103.4Q145.1 104.1 145.1 105.1V110.0H143.8V105.3Q143.8 104.4 143.5 103.8Q143.3 103.2 142.8 102.9Q142.4 102.6 141.6 102.6Q140.8 102.6 140.2 102.9Q139.6 103.3 139.3 104.0Q139.0 104.6 139.0 105.5V110.0Z M149.7 110.0Q148.8 110.0 148.4 109.6Q147.9 109.2 147.9 108.2V102.7H146.3V101.6H147.9V99.1L149.2 98.9V101.6H151.2V102.7H149.2V108.0Q149.2 108.5 149.5 108.7Q149.7 108.9 150.1 108.9H151.2V110.0Z M156.7 110.0V98.3H161.2Q162.5 98.3 163.4 98.8Q164.3 99.2 164.8 100.0Q165.3 100.8 165.3 102.0Q165.3 103.1 164.8 103.9Q164.3 104.8 163.4 105.2Q162.4 105.6 161.2 105.6H157.9V104.5H161.1Q162.5 104.5 163.2 103.8Q163.9 103.1 163.9 102.0Q163.9 100.8 163.2 100.2Q162.4 99.5 161.1 99.5H157.8L158.1 99.3V110.0Z M167.3 110.0V98.3H171.9Q173.5 98.3 174.7 99.1Q175.9 99.8 176.5 101.1Q177.1 102.4 177.1 104.2Q177.1 105.5 176.8 106.6Q176.4 107.6 175.7 108.4Q175.1 109.2 174.1 109.6Q173.1 110.0 171.9 110.0ZM168.7 108.8H171.7Q172.6 108.8 173.4 108.5Q174.1 108.2 174.6 107.6Q175.2 107.0 175.4 106.2Q175.7 105.3 175.7 104.1Q175.7 102.6 175.2 101.6Q174.7 100.6 173.8 100.0Q172.9 99.5 171.7 99.5H168.7Z M179.2 110.0V98.3H187.2V99.5H180.3L180.6 99.3V110.0ZM180.1 104.8V103.7H186.6V104.8Z M192.5 110.0V101.6H193.7L193.8 103.2H193.8Q194.1 102.4 194.8 101.9Q195.5 101.5 196.3 101.5Q196.5 101.5 196.6 101.5Q196.7 101.5 196.8 101.5V102.8Q196.7 102.7 196.6 102.7Q196.5 102.7 196.3 102.7Q195.6 102.7 195.1 103.0Q194.5 103.3 194.2 103.8Q193.9 104.3 193.8 105.0V110.0Z M201.2 110.1Q200.0 110.1 199.1 109.6Q198.3 109.1 197.8 108.1Q197.4 107.1 197.4 105.8Q197.4 104.5 197.8 103.5Q198.3 102.5 199.1 102.0Q200.0 101.5 201.2 101.5Q202.4 101.5 203.3 102.0Q204.1 102.6 204.5 103.6Q204.8 104.7 204.8 106.0H198.7Q198.7 107.1 199.0 107.8Q199.3 108.4 199.9 108.8Q200.4 109.1 201.2 109.1Q202.1 109.1 202.7 108.7Q203.2 108.3 203.4 107.6H204.7Q204.5 108.4 204.1 109.0Q203.6 109.6 202.8 109.8Q202.1 110.1 201.2 110.1ZM198.7 105.3 198.5 105.1H203.6L203.5 105.3Q203.5 104.3 203.2 103.7Q202.9 103.1 202.4 102.8Q201.9 102.5 201.2 102.5Q200.4 102.5 199.9 102.8Q199.3 103.1 199.0 103.7Q198.7 104.4 198.7 105.3Z M206.6 112.7V101.6H207.8L207.8 103.3H207.9Q208.2 102.5 209.0 102.0Q209.8 101.5 210.9 101.5Q211.6 101.5 212.3 101.8Q212.9 102.1 213.4 102.6Q213.8 103.2 214.1 104.0Q214.3 104.8 214.3 105.8Q214.3 107.2 213.9 108.1Q213.5 109.1 212.7 109.6Q211.9 110.1 210.9 110.1Q210.1 110.1 209.5 109.9Q208.9 109.7 208.5 109.3Q208.1 108.8 207.9 108.3H207.9V112.7ZM210.4 109.1Q211.2 109.1 211.8 108.7Q212.4 108.3 212.7 107.6Q213.0 106.8 213.0 105.8Q213.0 104.8 212.7 104.1Q212.4 103.3 211.8 102.9Q211.2 102.6 210.4 102.6Q209.6 102.6 209.0 102.9Q208.5 103.3 208.2 103.9Q207.9 104.6 207.9 105.3V106.3Q207.9 107.1 208.2 107.7Q208.5 108.3 209.0 108.7Q209.6 109.1 210.4 109.1Z M220.2 110.1Q219.3 110.1 218.5 109.8Q217.8 109.5 217.3 109.0Q216.7 108.4 216.4 107.6Q216.1 106.8 216.1 105.8Q216.1 104.5 216.6 103.6Q217.1 102.6 218.0 102.0Q219.0 101.5 220.2 101.5Q221.1 101.5 221.8 101.8Q222.6 102.1 223.1 102.6Q223.6 103.2 223.9 104.0Q224.2 104.8 224.2 105.8Q224.2 107.1 223.7 108.1Q223.2 109.0 222.3 109.6Q221.4 110.1 220.2 110.1ZM220.2 109.0Q221.0 109.0 221.6 108.6Q222.2 108.3 222.6 107.5Q222.9 106.8 222.9 105.8Q222.9 105.1 222.7 104.5Q222.5 103.9 222.2 103.4Q221.8 103.0 221.3 102.8Q220.8 102.6 220.2 102.6Q219.4 102.6 218.8 103.0Q218.1 103.3 217.8 104.1Q217.5 104.8 217.5 105.8Q217.5 106.6 217.6 107.2Q217.8 107.8 218.2 108.2Q218.5 108.6 219.1 108.8Q219.6 109.0 220.2 109.0Z M226.1 110.0V101.6H227.3L227.4 103.2H227.4Q227.7 102.4 228.4 101.9Q229.1 101.5 229.9 101.5Q230.1 101.5 230.2 101.5Q230.3 101.5 230.4 101.5V102.8Q230.3 102.7 230.2 102.7Q230.1 102.7 229.9 102.7Q229.2 102.7 228.7 103.0Q228.1 103.3 227.8 103.8Q227.5 104.3 227.4 105.0V110.0Z M234.7 110.0Q233.8 110.0 233.4 109.6Q232.9 109.2 232.9 108.2V102.7H231.3V101.6H232.9V99.1L234.2 98.9V101.6H236.1V102.7H234.2V108.0Q234.2 108.5 234.4 108.7Q234.6 108.9 235.1 108.9H236.2V110.0Z M240.8 110.2Q240.0 110.2 239.4 110.0Q238.7 109.8 238.3 109.4Q237.8 109.1 237.6 108.6Q237.4 108.1 237.3 107.5H238.6Q238.7 108.1 238.9 108.5Q239.2 108.8 239.7 109.0Q240.2 109.2 240.8 109.2Q241.8 109.2 242.3 108.8Q242.8 108.4 242.8 107.8Q242.8 107.3 242.6 107.0Q242.4 106.7 241.9 106.5Q241.4 106.4 240.7 106.3Q239.6 106.1 239.0 105.9Q238.3 105.6 237.9 105.1Q237.6 104.7 237.6 103.9Q237.6 103.2 238.0 102.6Q238.4 102.1 239.1 101.8Q239.8 101.4 240.8 101.4Q241.7 101.4 242.4 101.8Q243.2 102.1 243.6 102.6Q244.0 103.2 244.0 104.0H242.7Q242.7 103.4 242.4 103.1Q242.2 102.7 241.8 102.6Q241.3 102.4 240.8 102.4Q239.9 102.4 239.4 102.8Q238.9 103.2 238.9 103.8Q238.9 104.2 239.1 104.5Q239.3 104.8 239.8 105.0Q240.4 105.1 241.1 105.2Q242.1 105.3 242.7 105.6Q243.4 105.9 243.8 106.3Q244.1 106.8 244.1 107.7Q244.1 108.5 243.7 109.0Q243.3 109.6 242.5 109.9Q241.8 110.2 240.8 110.2Z M246.3 110.1Q246.0 110.1 245.8 109.9Q245.6 109.7 245.6 109.4Q245.6 109.1 245.8 108.9Q246.0 108.7 246.3 108.7Q246.7 108.7 246.9 108.9Q247.1 109.1 247.1 109.4Q247.1 109.7 246.9 109.9Q246.7 110.1 246.3 110.1Z" fill="#9198a1"/><circle cx="35" cy="166" r="7" fill="#3178c6"/><path d="M53.7 171.0V161.7H54.9V171.0ZM50.4 161.8V160.8H58.2V161.8Z M58.2 173.3V172.4H59.0Q59.3 172.4 59.6 172.3Q59.8 172.2 60.0 172.0Q60.2 171.8 60.3 171.5L60.8 170.3V170.7L57.7 163.7H59.0L60.5 167.7L61.2 169.4H61.2L61.8 167.7L63.3 163.7H64.5L61.3 171.8Q61.1 172.3 60.8 172.7Q60.5 173.0 60.1 173.2Q59.7 173.3 59.2 173.3Z M65.8 173.3V163.7H66.9L67.0 165.2H67.0Q67.3 164.4 68.0 164.0Q68.7 163.5 69.6 163.5Q70.3 163.5 70.8 163.8Q71.4 164.1 71.8 164.5Q72.2 165.0 72.4 165.7Q72.7 166.4 72.7 167.3Q72.7 168.5 72.3 169.4Q71.9 170.2 71.2 170.7Q70.5 171.1 69.6 171.1Q69.0 171.1 68.5 170.9Q67.9 170.7 67.6 170.3Q67.2 170.0 67.0 169.5H67.0V173.3ZM69.2 170.2Q69.9 170.2 70.4 169.9Q70.9 169.5 71.2 168.9Q71.5 168.2 71.5 167.3Q71.5 166.4 71.2 165.8Q71.0 165.2 70.5 164.8Q70.0 164.5 69.2 164.5Q68.5 164.5 68.0 164.8Q67.5 165.1 67.2 165.7Q67.0 166.3 67.0 166.9V167.8Q67.0 168.4 67.2 169.0Q67.5 169.5 68.0 169.9Q68.5 170.2 69.2 170.2Z M77.5 171.1Q76.4 171.1 75.7 170.7Q74.9 170.2 74.5 169.3Q74.2 168.5 74.2 167.4Q74.2 166.2 74.5 165.3Q74.9 164.5 75.7 164.0Q76.4 163.5 77.4 163.5Q78.6 163.5 79.3 164.0Q80.0 164.5 80.3 165.4Q80.7 166.3 80.6 167.5H75.3Q75.3 168.4 75.5 169.0Q75.8 169.6 76.3 169.9Q76.8 170.2 77.5 170.2Q78.3 170.2 78.8 169.9Q79.3 169.5 79.4 168.9H80.5Q80.4 169.6 80.0 170.1Q79.6 170.6 78.9 170.9Q78.3 171.1 77.5 171.1ZM75.3 166.9 75.1 166.7H79.6L79.5 166.9Q79.5 166.0 79.2 165.5Q79.0 164.9 78.5 164.7Q78.1 164.4 77.4 164.4Q76.8 164.4 76.3 164.7Q75.8 165.0 75.6 165.5Q75.3 166.1 75.3 166.9Z M85.7 171.1Q84.4 171.1 83.5 170.7Q82.6 170.3 82.2 169.5Q81.8 168.8 81.8 167.8H83.0Q83.0 168.5 83.3 169.1Q83.6 169.6 84.2 169.9Q84.8 170.2 85.7 170.2Q86.5 170.2 87.1 170.0Q87.7 169.8 88.0 169.4Q88.4 169.0 88.4 168.3Q88.4 167.8 88.2 167.5Q88.1 167.2 87.7 167.0Q87.4 166.7 86.9 166.6Q86.3 166.4 85.5 166.3Q84.7 166.1 84.0 165.9Q83.3 165.7 82.9 165.4Q82.5 165.1 82.2 164.6Q82.0 164.1 82.0 163.5Q82.0 162.6 82.4 162.0Q82.9 161.4 83.7 161.0Q84.5 160.7 85.6 160.7Q86.8 160.7 87.6 161.1Q88.4 161.4 88.8 162.1Q89.3 162.7 89.3 163.6H88.1Q88.0 163.0 87.7 162.5Q87.4 162.1 86.9 161.8Q86.3 161.6 85.6 161.6Q84.8 161.6 84.3 161.8Q83.8 162.0 83.5 162.4Q83.2 162.8 83.2 163.3Q83.2 163.9 83.5 164.3Q83.8 164.6 84.4 164.8Q85.0 165.0 86.1 165.2Q86.8 165.3 87.4 165.5Q88.1 165.7 88.6 166.0Q89.0 166.3 89.3 166.9Q89.6 167.4 89.6 168.3Q89.6 169.1 89.2 169.8Q88.7 170.4 87.9 170.8Q87.0 171.1 85.7 171.1Z M94.6 171.1Q93.8 171.1 93.2 170.9Q92.5 170.6 92.0 170.1Q91.6 169.6 91.3 168.9Q91.1 168.2 91.1 167.3Q91.1 166.5 91.3 165.8Q91.6 165.1 92.1 164.6Q92.5 164.1 93.2 163.8Q93.8 163.5 94.6 163.5Q95.5 163.5 96.2 163.8Q96.8 164.2 97.3 164.7Q97.7 165.3 97.8 166.0H96.7Q96.6 165.5 96.3 165.2Q96.0 164.8 95.5 164.7Q95.1 164.5 94.6 164.5Q94.0 164.5 93.6 164.7Q93.2 164.9 92.9 165.3Q92.5 165.7 92.4 166.2Q92.2 166.7 92.2 167.3Q92.2 168.2 92.5 168.9Q92.8 169.5 93.4 169.8Q93.9 170.2 94.6 170.2Q95.2 170.2 95.6 169.9Q96.0 169.7 96.3 169.4Q96.6 169.0 96.7 168.5H97.8Q97.7 169.3 97.3 169.9Q96.9 170.5 96.2 170.8Q95.5 171.1 94.6 171.1Z M99.4 171.0V163.7H100.4L100.5 165.0H100.5Q100.8 164.3 101.4 163.9Q102.0 163.6 102.7 163.6Q102.8 163.6 102.9 163.6Q103.1 163.6 103.2 163.6V164.7Q103.1 164.6 102.9 164.6Q102.8 164.6 102.7 164.6Q102.1 164.6 101.6 164.9Q101.1 165.1 100.8 165.5Q100.6 166.0 100.5 166.6V171.0Z M104.5 171.0V163.7H105.6V171.0ZM105.1 162.4Q104.8 162.4 104.6 162.2Q104.4 162.0 104.4 161.7Q104.4 161.5 104.6 161.3Q104.8 161.1 105.1 161.1Q105.4 161.1 105.6 161.3Q105.8 161.5 105.8 161.7Q105.8 162.0 105.6 162.2Q105.4 162.4 105.1 162.4Z M107.8 173.3V163.7H108.8L108.9 165.2H109.0Q109.2 164.4 109.9 164.0Q110.6 163.5 111.5 163.5Q112.2 163.5 112.8 163.8Q113.3 164.1 113.7 164.5Q114.1 165.0 114.4 165.7Q114.6 166.4 114.6 167.3Q114.6 168.5 114.2 169.4Q113.8 170.2 113.1 170.7Q112.5 171.1 111.5 171.1Q110.9 171.1 110.4 170.9Q109.9 170.7 109.5 170.3Q109.2 170.0 109.0 169.5H108.9V173.3ZM111.2 170.2Q111.9 170.2 112.4 169.9Q112.9 169.5 113.2 168.9Q113.4 168.2 113.4 167.3Q113.4 166.4 113.2 165.8Q112.9 165.2 112.4 164.8Q111.9 164.5 111.2 164.5Q110.5 164.5 109.9 164.8Q109.4 165.1 109.2 165.7Q108.9 166.3 108.9 166.9V167.8Q108.9 168.4 109.2 169.0Q109.4 169.5 109.9 169.9Q110.5 170.2 111.2 170.2Z M118.5 171.0Q117.7 171.0 117.3 170.6Q116.9 170.3 116.9 169.4V164.6H115.5V163.7H116.9V161.5L118.0 161.3V163.7H119.7V164.6H118.0V169.2Q118.0 169.7 118.2 169.8Q118.4 170.0 118.8 170.0H119.8V171.0Z" fill="#9198a1"/><path d="M145.4 171.0V160.8H146.9L152.7 169.4H152.7L152.7 166.0V160.8H153.8V171.0H152.4L146.6 162.4H146.5L146.6 165.7V171.0Z M158.9 171.1Q157.8 171.1 157.1 170.7Q156.3 170.2 155.9 169.3Q155.5 168.5 155.5 167.4Q155.5 166.2 155.9 165.3Q156.3 164.5 157.1 164.0Q157.8 163.5 158.8 163.5Q160.0 163.5 160.7 164.0Q161.4 164.5 161.7 165.4Q162.1 166.3 162.0 167.5H156.7Q156.7 168.4 156.9 169.0Q157.2 169.6 157.7 169.9Q158.2 170.2 158.9 170.2Q159.7 170.2 160.2 169.9Q160.7 169.5 160.8 168.9H161.9Q161.8 169.6 161.4 170.1Q161.0 170.6 160.3 170.9Q159.7 171.1 158.9 171.1ZM156.7 166.9 156.5 166.7H161.0L160.9 166.9Q160.9 166.0 160.6 165.5Q160.4 164.9 159.9 164.7Q159.5 164.4 158.8 164.4Q158.2 164.4 157.7 164.7Q157.2 165.0 157.0 165.5Q156.7 166.1 156.7 166.9Z M162.6 171.0 165.5 167.2 162.9 163.7H164.2L166.0 166.2L166.2 166.5H166.3L166.4 166.2L168.2 163.7H169.5L167.0 167.2L169.8 171.0H168.5L166.4 168.1L166.2 167.8H166.2L166.0 168.1L163.8 171.0Z M173.4 171.0Q172.6 171.0 172.2 170.6Q171.8 170.3 171.8 169.4V164.6H170.4V163.7H171.8V161.5L173.0 161.3V163.7H174.7V164.6H173.0V169.2Q173.0 169.7 173.2 169.8Q173.4 170.0 173.7 170.0H174.7V171.0Z M176.6 171.1Q176.4 171.1 176.2 170.9Q176.0 170.7 176.0 170.5Q176.0 170.2 176.2 170.0Q176.4 169.8 176.6 169.8Q176.9 169.8 177.1 170.0Q177.3 170.2 177.3 170.5Q177.3 170.7 177.1 170.9Q176.9 171.1 176.6 171.1Z M177.6 173.3V172.5H178.2Q178.7 172.5 178.9 172.3Q179.1 172.0 179.1 171.5V163.7H180.2V171.6Q180.2 172.1 180.0 172.5Q179.9 172.9 179.5 173.1Q179.2 173.3 178.6 173.3ZM179.6 162.4Q179.3 162.4 179.1 162.2Q178.9 162.0 178.9 161.7Q178.9 161.5 179.1 161.3Q179.3 161.1 179.6 161.1Q180.0 161.1 180.1 161.3Q180.3 161.5 180.3 161.7Q180.3 162.0 180.1 162.2Q180.0 162.4 179.6 162.4Z M184.8 171.1Q184.2 171.1 183.6 171.0Q183.1 170.8 182.7 170.5Q182.3 170.2 182.1 169.8Q181.9 169.3 181.8 168.8H183.0Q183.0 169.3 183.2 169.6Q183.5 170.0 183.9 170.1Q184.3 170.3 184.9 170.3Q185.7 170.3 186.2 170.0Q186.6 169.6 186.6 169.1Q186.6 168.6 186.4 168.4Q186.2 168.1 185.8 168.0Q185.4 167.8 184.8 167.7Q183.9 167.6 183.3 167.4Q182.7 167.2 182.3 166.8Q182.0 166.3 182.0 165.7Q182.0 165.0 182.4 164.5Q182.7 164.1 183.4 163.8Q184.0 163.5 184.8 163.5Q185.7 163.5 186.3 163.8Q186.9 164.1 187.3 164.6Q187.6 165.1 187.6 165.7H186.5Q186.5 165.2 186.3 164.9Q186.1 164.6 185.7 164.5Q185.3 164.4 184.8 164.4Q184.0 164.4 183.6 164.7Q183.2 165.0 183.2 165.6Q183.2 166.0 183.4 166.2Q183.6 166.4 184.0 166.6Q184.5 166.7 185.1 166.8Q186.0 166.9 186.6 167.1Q187.2 167.4 187.5 167.8Q187.8 168.2 187.8 169.0Q187.8 169.7 187.4 170.1Q187.0 170.6 186.4 170.9Q185.7 171.1 184.8 171.1Z M188.8 172.9Q189.3 172.4 189.6 171.8Q189.9 171.3 189.9 170.9L190.0 170.9Q190.0 171.0 189.9 171.0Q189.8 171.1 189.7 171.1Q189.4 171.1 189.2 170.9Q189.1 170.7 189.1 170.5Q189.1 170.2 189.3 170.0Q189.5 169.8 189.8 169.8Q190.1 169.8 190.3 170.0Q190.5 170.2 190.5 170.6Q190.5 170.9 190.4 171.3Q190.3 171.6 190.1 171.9Q190.0 172.2 189.8 172.5Q189.6 172.8 189.4 172.9Z M195.5 171.0V160.8H202.5V161.8H196.5L196.7 161.6V171.0ZM196.3 166.5V165.5H201.9V166.5Z M206.3 171.1Q205.6 171.1 205.0 170.9Q204.5 170.6 204.1 170.1Q203.7 169.6 203.4 168.9Q203.2 168.2 203.2 167.3Q203.2 166.1 203.6 165.3Q204.0 164.4 204.7 164.0Q205.4 163.5 206.3 163.5Q206.9 163.5 207.4 163.7Q208.0 163.9 208.3 164.3Q208.7 164.7 208.8 165.2H208.9L209.0 163.7H210.0V171.0H209.0L208.9 169.5H208.8Q208.6 170.2 207.9 170.7Q207.2 171.1 206.3 171.1ZM206.6 170.2Q207.4 170.2 207.9 169.8Q208.4 169.5 208.6 168.9Q208.9 168.4 208.9 167.8V166.9Q208.9 166.2 208.6 165.7Q208.4 165.1 207.9 164.8Q207.4 164.5 206.6 164.5Q205.9 164.5 205.4 164.8Q204.9 165.1 204.7 165.8Q204.4 166.4 204.4 167.3Q204.4 168.2 204.7 168.8Q204.9 169.5 205.4 169.8Q205.9 170.2 206.6 170.2Z M214.7 171.1Q214.0 171.1 213.4 171.0Q212.9 170.8 212.5 170.5Q212.1 170.2 211.9 169.8Q211.7 169.3 211.7 168.8H212.8Q212.8 169.3 213.1 169.6Q213.3 170.0 213.7 170.1Q214.2 170.3 214.7 170.3Q215.6 170.3 216.0 170.0Q216.5 169.6 216.5 169.1Q216.5 168.6 216.3 168.4Q216.1 168.1 215.7 168.0Q215.3 167.8 214.6 167.7Q213.7 167.6 213.1 167.4Q212.5 167.2 212.2 166.8Q211.9 166.3 211.9 165.7Q211.9 165.0 212.2 164.5Q212.6 164.1 213.2 163.8Q213.8 163.5 214.7 163.5Q215.5 163.5 216.1 163.8Q216.8 164.1 217.1 164.6Q217.5 165.1 217.5 165.7H216.4Q216.3 165.2 216.1 164.9Q215.9 164.6 215.5 164.5Q215.2 164.4 214.7 164.4Q213.9 164.4 213.4 164.7Q213.0 165.0 213.0 165.6Q213.0 166.0 213.2 166.2Q213.4 166.4 213.9 166.6Q214.3 166.7 215.0 166.8Q215.8 166.9 216.4 167.1Q217.0 167.4 217.3 167.8Q217.6 168.2 217.6 169.0Q217.6 169.7 217.2 170.1Q216.9 170.6 216.2 170.9Q215.6 171.1 214.7 171.1Z M221.5 171.0Q220.7 171.0 220.3 170.6Q219.9 170.3 219.9 169.4V164.6H218.5V163.7H219.9V161.5L221.1 161.3V163.7H222.8V164.6H221.1V169.2Q221.1 169.7 221.3 169.8Q221.5 170.0 221.8 170.0H222.8V171.0Z M223.8 171.0 227.5 160.8H229.2L232.9 171.0H231.7L228.8 163.0L228.4 161.7H228.3L227.9 163.0L225.0 171.0ZM225.8 168.5 226.0 167.5H230.7L230.9 168.5Z M234.4 171.0V160.8H238.3Q239.5 160.8 240.3 161.2Q241.1 161.6 241.5 162.3Q241.9 163.0 241.9 164.0Q241.9 165.0 241.5 165.7Q241.0 166.4 240.2 166.8Q239.4 167.2 238.3 167.2H235.5V166.2H238.2Q239.5 166.2 240.1 165.6Q240.7 165.0 240.7 164.0Q240.7 163.0 240.1 162.4Q239.4 161.8 238.2 161.8H235.4L235.6 161.6V171.0Z M243.7 171.0V160.8H244.9V171.0Z M246.5 172.9Q246.9 172.4 247.2 171.8Q247.5 171.3 247.6 170.9L247.7 170.9Q247.6 171.0 247.6 171.0Q247.5 171.1 247.4 171.1Q247.1 171.1 246.9 170.9Q246.7 170.7 246.7 170.5Q246.7 170.2 246.9 170.0Q247.1 169.8 247.4 169.8Q247.7 169.8 247.9 170.0Q248.1 170.2 248.1 170.6Q248.1 170.9 248.0 171.3Q247.9 171.6 247.8 171.9Q247.6 172.2 247.5 172.5Q247.3 172.8 247.1 172.9Z M253.2 171.0V160.8H255.1L257.4 166.8L258.2 169.5H258.3L259.2 166.8L261.4 160.8H263.3V171.0H262.2V165.7L262.2 161.9H262.1L260.9 165.4L258.8 171.0H257.7L255.7 165.4L254.4 161.9H254.3L254.4 165.7V171.0Z M268.7 171.1Q267.9 171.1 267.2 170.9Q266.6 170.6 266.1 170.1Q265.7 169.6 265.4 168.9Q265.1 168.2 265.1 167.3Q265.1 166.2 265.6 165.4Q266.0 164.5 266.8 164.0Q267.6 163.5 268.7 163.5Q269.5 163.5 270.1 163.8Q270.8 164.1 271.3 164.6Q271.7 165.1 272.0 165.8Q272.2 166.5 272.2 167.3Q272.2 168.5 271.8 169.3Q271.4 170.2 270.6 170.6Q269.8 171.1 268.7 171.1ZM268.7 170.1Q269.4 170.1 269.9 169.8Q270.5 169.5 270.8 168.9Q271.1 168.2 271.1 167.3Q271.1 166.7 270.9 166.1Q270.7 165.6 270.4 165.3Q270.1 164.9 269.7 164.7Q269.3 164.5 268.7 164.5Q268.0 164.5 267.4 164.8Q266.9 165.2 266.6 165.8Q266.3 166.4 266.3 167.3Q266.3 168.0 266.5 168.5Q266.6 169.0 266.9 169.4Q267.3 169.8 267.7 170.0Q268.2 170.1 268.7 170.1Z M273.9 171.0V163.7H275.0L275.0 165.2H275.1Q275.4 164.4 276.1 164.0Q276.8 163.5 277.7 163.5Q278.2 163.5 278.7 163.7Q279.2 163.9 279.6 164.3Q279.9 164.6 280.1 165.2Q280.3 165.8 280.3 166.7V171.0H279.2V166.9Q279.2 166.1 279.0 165.5Q278.8 165.0 278.4 164.7Q278.0 164.5 277.3 164.5Q276.6 164.5 276.1 164.8Q275.6 165.2 275.3 165.7Q275.0 166.3 275.0 167.0V171.0Z M285.2 173.5Q284.4 173.5 283.8 173.2Q283.1 173.0 282.7 172.5Q282.4 172.1 282.3 171.4H283.4Q283.4 171.8 283.7 172.1Q283.9 172.3 284.3 172.5Q284.7 172.6 285.2 172.6Q286.0 172.6 286.5 172.4Q287.0 172.2 287.2 171.7Q287.4 171.3 287.4 170.6V169.2H287.4Q287.1 169.9 286.5 170.3Q285.8 170.7 284.9 170.7Q284.3 170.7 283.7 170.5Q283.2 170.3 282.8 169.8Q282.4 169.3 282.2 168.6Q282.0 168.0 282.0 167.1Q282.0 166.0 282.4 165.2Q282.7 164.4 283.4 163.9Q284.1 163.5 284.9 163.5Q285.8 163.5 286.5 163.9Q287.1 164.3 287.4 165.1H287.5L287.5 163.7H288.6V170.4Q288.6 171.5 288.2 172.2Q287.8 172.8 287.0 173.2Q286.3 173.5 285.2 173.5ZM285.3 169.8Q286.0 169.8 286.5 169.5Q287.0 169.2 287.2 168.7Q287.4 168.1 287.4 167.5V166.7Q287.4 166.1 287.2 165.6Q286.9 165.1 286.5 164.8Q286.0 164.5 285.3 164.5Q284.7 164.5 284.2 164.8Q283.7 165.1 283.4 165.7Q283.2 166.3 283.2 167.1Q283.2 168.0 283.4 168.6Q283.7 169.2 284.2 169.5Q284.6 169.8 285.3 169.8Z M293.8 171.1Q293.0 171.1 292.4 170.9Q291.7 170.6 291.2 170.1Q290.8 169.6 290.5 168.9Q290.3 168.2 290.3 167.3Q290.3 166.2 290.7 165.4Q291.1 164.5 291.9 164.0Q292.7 163.5 293.8 163.5Q294.6 163.5 295.3 163.8Q295.9 164.1 296.4 164.6Q296.8 165.1 297.1 165.8Q297.3 166.5 297.3 167.3Q297.3 168.5 296.9 169.3Q296.5 170.2 295.7 170.6Q294.9 171.1 293.8 171.1ZM293.8 170.1Q294.5 170.1 295.1 169.8Q295.6 169.5 295.9 168.9Q296.2 168.2 296.2 167.3Q296.2 166.7 296.0 166.1Q295.9 165.6 295.6 165.3Q295.2 164.9 294.8 164.7Q294.4 164.5 293.8 164.5Q293.1 164.5 292.6 164.8Q292.0 165.2 291.7 165.8Q291.4 166.4 291.4 167.3Q291.4 168.0 291.6 168.5Q291.7 169.0 292.1 169.4Q292.4 169.8 292.8 170.0Q293.3 170.1 293.8 170.1Z M299.1 171.0V160.8H303.1Q304.6 160.8 305.6 161.4Q306.6 162.1 307.2 163.2Q307.7 164.4 307.7 165.9Q307.7 167.1 307.4 168.0Q307.1 168.9 306.5 169.6Q305.9 170.3 305.1 170.6Q304.2 171.0 303.1 171.0ZM300.3 169.9H303.0Q303.8 169.9 304.4 169.7Q305.1 169.4 305.5 168.9Q306.0 168.4 306.3 167.6Q306.5 166.9 306.5 165.9Q306.5 164.5 306.1 163.6Q305.6 162.7 304.8 162.3Q304.0 161.8 303.0 161.8H300.3Z M309.6 171.0V160.8H314.1Q315.6 160.8 316.4 161.5Q317.2 162.2 317.2 163.4Q317.2 164.0 317.0 164.4Q316.8 164.9 316.4 165.2Q316.0 165.6 315.4 165.7V165.8Q316.1 165.9 316.5 166.2Q317.0 166.6 317.2 167.1Q317.4 167.6 317.4 168.2Q317.4 169.1 317.0 169.7Q316.6 170.3 315.9 170.7Q315.1 171.0 314.0 171.0ZM310.7 170.0H313.9Q315.1 170.0 315.7 169.5Q316.2 168.9 316.2 168.1Q316.2 167.2 315.7 166.7Q315.1 166.2 314.1 166.2H310.6V165.3H314.1Q314.7 165.3 315.1 165.1Q315.5 164.9 315.8 164.5Q316.0 164.1 316.0 163.6Q316.0 162.7 315.4 162.2Q314.8 161.8 313.9 161.8H310.7Z" fill="#9198a1"/></svg>