<svg xmlns="http://www.w3.org/2000/svg" viewBox="0 0 1200 340" width="1200" height="340" role="img" aria-labelledby="t d"><title id="t">Dihini Kandegedara</title><desc id="d">Computer Science and Engineering undergraduate at the University of Moratuwa, learning PyTorch, OpenCV and MLOps. Career workflow: full-stack apps shipped, machine learning in progress, computer vision and MLOps queued.</desc><style>.spin{transform-box:fill-box;transform-origin:center;animation:s 1.4s linear infinite}@keyframes s{to{transform:rotate(360deg)}}@media (prefers-reduced-motion:reduce){.spin{animation:none}}</style><rect x="1" y="1" width="1198" height="338" rx="12" fill="#0d1117" stroke="#30363d" stroke-width="2"/><path d="M68.3 150.0V107.7H85.9Q92.0 107.7 96.3 110.4Q100.7 113.0 102.9 117.8Q105.2 122.5 105.2 128.9Q105.2 133.6 103.9 137.5Q102.6 141.4 100.1 144.2Q97.6 147.0 94.1 148.5Q90.5 150.0 85.9 150.0ZM75.9 143.4H84.6Q87.4 143.4 89.8 142.6Q92.1 141.8 93.8 140.0Q95.4 138.2 96.4 135.4Q97.3 132.7 97.3 128.7Q97.3 123.6 95.7 120.4Q94.1 117.2 91.3 115.8Q88.4 114.3 84.6 114.3H75.9Z M111.6 150.0V119.1H118.9V150.0ZM115.3 115.0Q113.5 115.0 112.4 114.0Q111.3 113.1 111.3 111.4Q111.3 109.7 112.4 108.8Q113.5 107.9 115.3 107.9Q117.0 107.9 118.1 108.8Q119.3 109.7 119.3 111.4Q119.3 113.1 118.1 114.0Q117.0 115.0 115.3 115.0Z M126.7 150.0V107.7H133.9V125.0H134.3Q135.6 121.8 138.4 120.2Q141.1 118.6 144.4 118.6Q146.8 118.6 148.8 119.3Q150.8 120.0 152.2 121.6Q153.7 123.1 154.6 125.6Q155.4 128.0 155.4 131.5V150.0H148.2V133.1Q148.2 130.2 147.5 128.3Q146.8 126.4 145.3 125.5Q143.9 124.5 141.7 124.5Q139.2 124.5 137.5 125.7Q135.8 126.9 134.9 128.8Q133.9 130.7 133.9 133.0V150.0Z M162.7 150.0V119.1H169.9V150.0ZM166.3 115.0Q164.6 115.0 163.4 114.0Q162.3 113.1 162.3 111.4Q162.3 109.7 163.4 108.8Q164.6 107.9 166.3 107.9Q168.1 107.9 169.2 108.8Q170.3 109.7 170.3 111.4Q170.3 113.1 169.2 114.0Q168.1 115.0 166.3 115.0Z M177.7 150.0V119.1H184.7L185.0 125.0H185.3Q186.7 121.8 189.4 120.2Q192.1 118.6 195.5 118.6Q197.8 118.6 199.8 119.3Q201.8 120.0 203.3 121.6Q204.8 123.1 205.6 125.6Q206.4 128.0 206.4 131.5V150.0H199.2V133.1Q199.2 130.2 198.5 128.3Q197.8 126.4 196.4 125.5Q195.0 124.5 192.7 124.5Q190.3 124.5 188.6 125.7Q186.8 126.9 185.9 128.8Q185.0 130.7 185.0 133.0V150.0Z M213.7 150.0V119.1H220.9V150.0ZM217.4 115.0Q215.6 115.0 214.5 114.0Q213.3 113.1 213.3 111.4Q213.3 109.7 214.5 108.8Q215.6 107.9 217.4 107.9Q219.1 107.9 220.2 108.8Q221.4 109.7 221.4 111.4Q221.4 113.1 220.2 114.0Q219.1 115.0 217.4 115.0Z M268.4 150.0 256.0 130.8 249.0 138.5V129.5L268.0 107.7H277.2L261.3 125.3L277.4 150.0ZM241.8 150.0V107.7H249.5V150.0Z M292.1 150.5Q289.3 150.5 287.0 149.4Q284.6 148.4 282.9 146.3Q281.3 144.3 280.4 141.3Q279.5 138.3 279.5 134.6Q279.5 129.5 281.1 125.9Q282.7 122.3 285.5 120.4Q288.3 118.6 292.1 118.6Q294.5 118.6 296.6 119.3Q298.6 120.1 300.0 121.5Q301.4 122.9 302.1 124.7H302.5L302.8 119.1H309.6V150.0H302.8L302.5 144.4H302.1Q301.1 147.2 298.4 148.8Q295.8 150.5 292.1 150.5ZM294.7 144.6Q297.2 144.6 298.9 143.5Q300.6 142.3 301.5 140.4Q302.4 138.5 302.4 136.2V132.9Q302.4 130.5 301.5 128.6Q300.6 126.7 298.9 125.6Q297.2 124.5 294.8 124.5Q292.2 124.5 290.5 125.7Q288.7 126.9 287.8 129.1Q286.8 131.4 286.8 134.6Q286.8 137.6 287.7 139.9Q288.6 142.2 290.4 143.4Q292.1 144.6 294.7 144.6Z M317.4 150.0V119.1H324.4L324.7 125.0H325.0Q326.3 121.8 329.1 120.2Q331.8 118.6 335.2 118.6Q337.5 118.6 339.5 119.3Q341.5 120.0 343.0 121.6Q344.4 123.1 345.3 125.6Q346.1 128.0 346.1 131.5V150.0H338.9V133.1Q338.9 130.2 338.2 128.3Q337.5 126.4 336.0 125.5Q334.6 124.5 332.4 124.5Q329.9 124.5 328.2 125.7Q326.5 126.9 325.6 128.8Q324.7 130.7 324.7 133.0V150.0Z M364.8 150.5Q361.9 150.5 359.6 149.4Q357.3 148.4 355.6 146.3Q353.9 144.3 353.0 141.3Q352.1 138.3 352.1 134.6Q352.1 129.5 353.7 125.9Q355.3 122.3 358.2 120.4Q361.0 118.6 364.8 118.6Q367.2 118.6 369.2 119.3Q371.2 120.1 372.6 121.5Q374.1 122.9 374.8 124.7H375.1V107.7H382.3V150.0H375.5L375.2 144.4H374.8Q373.8 147.2 371.1 148.8Q368.4 150.5 364.8 150.5ZM367.3 144.6Q369.9 144.6 371.6 143.5Q373.3 142.3 374.2 140.4Q375.1 138.5 375.1 136.2V132.9Q375.1 130.5 374.2 128.6Q373.3 126.7 371.5 125.6Q369.8 124.5 367.5 124.5Q364.9 124.5 363.1 125.7Q361.4 126.9 360.4 129.1Q359.5 131.4 359.5 134.6Q359.5 137.6 360.4 139.9Q361.3 142.2 363.0 143.4Q364.8 144.6 367.3 144.6Z M402.9 150.5Q398.2 150.5 394.9 148.6Q391.6 146.6 389.9 143.1Q388.2 139.5 388.2 134.7Q388.2 129.8 389.9 126.2Q391.6 122.6 394.9 120.6Q398.1 118.6 402.6 118.6Q407.7 118.6 411.0 120.9Q414.3 123.1 415.7 127.0Q417.2 131.0 416.7 136.1H395.2Q395.2 139.0 396.2 141.0Q397.2 143.0 398.9 144.1Q400.6 145.1 402.9 145.1Q405.6 145.1 407.3 143.9Q409.0 142.8 409.6 140.8H416.5Q416.0 143.9 414.1 146.0Q412.3 148.2 409.4 149.4Q406.5 150.5 402.9 150.5ZM395.2 132.2 394.6 131.4H410.3L409.6 132.3Q409.7 129.4 408.9 127.6Q408.0 125.8 406.4 124.9Q404.8 124.1 402.6 124.1Q400.4 124.1 398.8 125.0Q397.2 125.9 396.2 127.8Q395.3 129.6 395.2 132.2Z M435.5 160.3Q431.6 160.3 428.8 159.1Q425.9 158.0 424.3 155.9Q422.6 153.9 422.4 151.2H429.3Q429.6 152.3 430.4 153.2Q431.3 154.1 432.6 154.6Q433.9 155.0 435.7 155.0Q438.4 155.0 440.1 154.3Q441.8 153.5 442.6 151.9Q443.4 150.3 443.4 148.0V143.0H443.0Q442.1 145.5 439.6 147.1Q437.0 148.7 433.5 148.7Q430.8 148.7 428.6 147.7Q426.4 146.6 424.8 144.7Q423.2 142.8 422.3 140.0Q421.5 137.2 421.5 133.6Q421.5 128.9 423.0 125.5Q424.5 122.2 427.2 120.4Q429.9 118.6 433.5 118.6Q436.9 118.6 439.5 120.1Q442.0 121.6 443.0 124.2H443.4L443.7 119.1H450.6V146.8Q450.6 151.6 448.8 154.6Q446.9 157.6 443.5 158.9Q440.1 160.3 435.5 160.3ZM436.2 142.8Q438.5 142.8 440.1 141.8Q441.7 140.7 442.5 139.0Q443.3 137.2 443.3 135.2V132.1Q443.3 129.9 442.5 128.2Q441.6 126.5 440.1 125.4Q438.5 124.4 436.3 124.4Q433.9 124.4 432.2 125.6Q430.6 126.7 429.7 128.7Q428.8 130.8 428.8 133.6Q428.8 136.4 429.7 138.5Q430.5 140.5 432.1 141.7Q433.8 142.8 436.2 142.8Z M471.2 150.5Q466.5 150.5 463.2 148.6Q460.0 146.6 458.2 143.1Q456.5 139.5 456.5 134.7Q456.5 129.8 458.2 126.2Q460.0 122.6 463.2 120.6Q466.5 118.6 470.9 118.6Q476.0 118.6 479.3 120.9Q482.6 123.1 484.0 127.0Q485.5 131.0 485.0 136.1H463.6Q463.6 139.0 464.5 141.0Q465.5 143.0 467.2 144.1Q468.9 145.1 471.2 145.1Q473.9 145.1 475.7 143.9Q477.4 142.8 477.9 140.8H484.8Q484.3 143.9 482.5 146.0Q480.6 148.2 477.7 149.4Q474.8 150.5 471.2 150.5ZM463.6 132.2 462.9 131.4H478.6L477.9 132.3Q478.1 129.4 477.2 127.6Q476.3 125.8 474.7 124.9Q473.1 124.1 470.9 124.1Q468.7 124.1 467.1 125.0Q465.5 125.9 464.5 127.8Q463.6 129.6 463.6 132.2Z M502.4 150.5Q499.6 150.5 497.3 149.4Q494.9 148.4 493.3 146.3Q491.6 144.3 490.7 141.3Q489.8 138.3 489.8 134.6Q489.8 129.5 491.4 125.9Q493.0 122.3 495.8 120.4Q498.7 118.6 502.4 118.6Q504.9 118.6 506.9 119.3Q508.9 120.1 510.3 121.5Q511.7 122.9 512.4 124.7H512.7V107.7H519.9V150.0H513.1L512.8 144.4H512.4Q511.4 147.2 508.7 148.8Q506.1 150.5 502.4 150.5ZM505.0 144.6Q507.5 144.6 509.2 143.5Q510.9 142.3 511.8 140.4Q512.7 138.5 512.7 136.2V132.9Q512.7 130.5 511.8 128.6Q510.9 126.7 509.2 125.6Q507.5 124.5 505.1 124.5Q502.5 124.5 500.8 125.7Q499.0 126.9 498.1 129.1Q497.1 131.4 497.1 134.6Q497.1 137.6 498.0 139.9Q498.9 142.2 500.7 143.4Q502.4 144.6 505.0 144.6Z M538.8 150.5Q535.9 150.5 533.6 149.4Q531.3 148.4 529.6 146.3Q527.9 144.3 527.0 141.3Q526.1 138.3 526.1 134.6Q526.1 129.5 527.7 125.9Q529.3 122.3 532.2 120.4Q535.0 118.6 538.8 118.6Q541.2 118.6 543.2 119.3Q545.2 120.1 546.6 121.5Q548.1 122.9 548.8 124.7H549.2L549.5 119.1H556.3V150.0H549.5L549.2 144.4H548.8Q547.8 147.2 545.1 148.8Q542.4 150.5 538.8 150.5ZM541.3 144.6Q543.9 144.6 545.6 143.5Q547.3 142.3 548.2 140.4Q549.1 138.5 549.1 136.2V132.9Q549.1 130.5 548.2 128.6Q547.3 126.7 545.5 125.6Q543.8 124.5 541.5 124.5Q538.9 124.5 537.1 125.7Q535.4 126.9 534.4 129.1Q533.5 131.4 533.5 134.6Q533.5 137.6 534.4 139.9Q535.3 142.2 537.0 143.4Q538.8 144.6 541.3 144.6Z M564.1 150.0V119.1H570.6L571.0 124.3H571.2Q572.3 121.3 574.6 120.0Q577.0 118.7 580.0 118.7Q580.5 118.7 580.9 118.7Q581.4 118.7 581.8 118.7V125.6Q581.4 125.6 580.9 125.6Q580.4 125.5 579.9 125.5Q577.1 125.5 575.2 126.4Q573.4 127.3 572.4 129.0Q571.4 130.7 571.3 133.1V150.0Z M597.0 150.5Q594.2 150.5 591.9 149.4Q589.5 148.4 587.9 146.3Q586.2 144.3 585.3 141.3Q584.4 138.3 584.4 134.6Q584.4 129.5 586.0 125.9Q587.6 122.3 590.4 120.4Q593.2 118.6 597.0 118.6Q599.5 118.6 601.5 119.3Q603.5 120.1 604.9 121.5Q606.3 122.9 607.0 124.7H607.4L607.7 119.1H614.5V150.0H607.7L607.4 144.4H607.0Q606.0 147.2 603.3 148.8Q600.7 150.5 597.0 150.5ZM599.6 144.6Q602.1 144.6 603.8 143.5Q605.5 142.3 606.4 140.4Q607.3 138.5 607.3 136.2V132.9Q607.3 130.5 606.4 128.6Q605.5 126.7 603.8 125.6Q602.1 124.5 599.7 124.5Q597.1 124.5 595.4 125.7Q593.6 126.9 592.7 129.1Q591.7 131.4 591.7 134.6Q591.7 137.6 592.6 139.9Q593.5 142.2 595.3 143.4Q597.0 144.6 599.6 144.6Z" fill="#e6edf3"/><path d="M72.5 194.2Q70.8 194.2 69.4 193.6Q68.0 193.1 67.0 192.1Q66.0 191.0 65.5 189.6Q65.0 188.1 65.0 186.4Q65.0 184.6 65.5 183.1Q66.1 181.7 67.0 180.6Q68.0 179.6 69.4 179.1Q70.8 178.5 72.5 178.5Q74.3 178.5 75.8 179.2Q77.3 179.8 78.2 181.0Q79.1 182.2 79.4 183.8H77.5Q77.3 182.7 76.6 181.9Q75.9 181.0 74.9 180.6Q73.8 180.1 72.5 180.1Q70.7 180.1 69.5 180.9Q68.2 181.6 67.5 183.0Q66.9 184.4 66.9 186.4Q66.9 187.8 67.3 189.0Q67.7 190.1 68.4 190.9Q69.1 191.8 70.1 192.2Q71.2 192.6 72.5 192.6Q73.8 192.6 74.9 192.2Q76.0 191.7 76.7 190.8Q77.3 190.0 77.5 188.9H79.4Q79.1 190.5 78.2 191.7Q77.3 192.9 75.8 193.5Q74.4 194.2 72.5 194.2Z M86.4 194.2Q85.3 194.2 84.3 193.8Q83.3 193.4 82.6 192.6Q81.9 191.9 81.5 190.8Q81.1 189.8 81.1 188.5Q81.1 186.8 81.8 185.5Q82.4 184.3 83.6 183.5Q84.8 182.8 86.4 182.8Q87.6 182.8 88.6 183.2Q89.6 183.6 90.3 184.3Q91.0 185.1 91.4 186.1Q91.7 187.2 91.7 188.5Q91.7 190.2 91.1 191.5Q90.5 192.7 89.3 193.5Q88.1 194.2 86.4 194.2ZM86.4 192.7Q87.5 192.7 88.3 192.2Q89.1 191.7 89.6 190.8Q90.0 189.8 90.0 188.5Q90.0 187.5 89.8 186.7Q89.5 185.9 89.1 185.4Q88.6 184.8 87.9 184.5Q87.3 184.2 86.4 184.2Q85.4 184.2 84.6 184.7Q83.8 185.3 83.3 186.2Q82.9 187.2 82.9 188.5Q82.9 189.5 83.1 190.3Q83.3 191.1 83.8 191.6Q84.3 192.2 85.0 192.4Q85.6 192.7 86.4 192.7Z M94.3 194.0V183.0H95.9L95.9 185.3H96.1Q96.6 184.0 97.6 183.4Q98.6 182.8 99.8 182.8Q101.1 182.8 102.1 183.4Q103.0 184.0 103.5 185.5H103.6Q104.1 184.1 105.2 183.5Q106.3 182.8 107.6 182.8Q108.7 182.8 109.6 183.3Q110.5 183.7 111.0 184.8Q111.5 185.8 111.5 187.5V194.0H109.8V187.8Q109.8 186.6 109.5 185.8Q109.2 185.0 108.6 184.6Q108.0 184.2 107.0 184.2Q106.0 184.2 105.3 184.7Q104.6 185.2 104.1 186.1Q103.7 186.9 103.7 188.0V194.0H102.0V187.8Q102.0 186.6 101.7 185.8Q101.4 185.0 100.8 184.6Q100.2 184.2 99.3 184.2Q98.3 184.2 97.5 184.7Q96.8 185.2 96.4 186.1Q95.9 186.9 95.9 188.0V194.0Z M114.5 197.5V183.0H116.1L116.1 185.3H116.2Q116.6 184.2 117.7 183.5Q118.7 182.8 120.1 182.8Q121.1 182.8 122.0 183.2Q122.8 183.6 123.4 184.3Q124.0 185.1 124.3 186.1Q124.7 187.2 124.7 188.5Q124.7 190.3 124.1 191.6Q123.5 192.8 122.5 193.5Q121.5 194.2 120.1 194.2Q119.2 194.2 118.4 193.9Q117.6 193.6 117.1 193.0Q116.5 192.5 116.2 191.7H116.2V197.5ZM119.5 192.8Q120.6 192.8 121.4 192.3Q122.1 191.8 122.5 190.8Q122.9 189.8 122.9 188.5Q122.9 187.2 122.5 186.2Q122.1 185.2 121.4 184.7Q120.6 184.2 119.6 184.2Q118.5 184.2 117.7 184.7Q117.0 185.2 116.6 186.1Q116.2 186.9 116.2 187.8V189.2Q116.2 190.1 116.6 191.0Q117.0 191.8 117.7 192.3Q118.5 192.8 119.5 192.8Z M131.2 194.2Q130.0 194.2 129.1 193.7Q128.2 193.2 127.7 192.2Q127.2 191.2 127.2 189.7V183.0H128.9V189.3Q128.9 190.4 129.2 191.2Q129.5 191.9 130.1 192.3Q130.8 192.7 131.8 192.7Q132.8 192.7 133.5 192.3Q134.3 191.8 134.7 190.9Q135.1 190.0 135.1 188.9V183.0H136.8V194.0H135.2L135.1 191.6H135.0Q134.6 192.8 133.6 193.5Q132.5 194.2 131.2 194.2Z M143.4 194.0Q142.2 194.0 141.6 193.4Q141.0 192.9 141.0 191.6V184.4H138.9V183.0H141.0V179.7L142.7 179.4V183.0H145.2V184.4H142.7V191.4Q142.7 192.0 143.0 192.3Q143.3 192.6 143.9 192.6H145.3V194.0Z M151.5 194.2Q149.9 194.2 148.8 193.5Q147.7 192.8 147.1 191.5Q146.5 190.2 146.5 188.5Q146.5 186.8 147.1 185.5Q147.7 184.2 148.8 183.5Q149.8 182.8 151.4 182.8Q153.1 182.8 154.2 183.6Q155.3 184.3 155.8 185.7Q156.3 187.0 156.1 188.8H148.1Q148.2 190.1 148.6 191.0Q149.0 192.0 149.7 192.4Q150.5 192.9 151.5 192.9Q152.7 192.9 153.4 192.3Q154.2 191.8 154.4 190.9H156.1Q155.9 191.9 155.2 192.7Q154.6 193.4 153.6 193.8Q152.7 194.2 151.5 194.2ZM148.2 187.8 148.0 187.6H154.7L154.5 187.8Q154.5 186.5 154.1 185.7Q153.8 184.9 153.1 184.5Q152.3 184.1 151.4 184.1Q150.5 184.1 149.7 184.6Q149.0 185.0 148.6 185.8Q148.2 186.6 148.2 187.8Z M158.5 194.0V183.0H160.0L160.1 185.0H160.2Q160.6 184.0 161.5 183.4Q162.4 182.8 163.5 182.8Q163.7 182.8 163.9 182.8Q164.0 182.8 164.2 182.9V184.5Q164.0 184.5 163.9 184.5Q163.7 184.4 163.5 184.4Q162.5 184.4 161.8 184.8Q161.1 185.2 160.7 185.8Q160.3 186.5 160.2 187.4V194.0Z M176.3 194.2Q174.3 194.2 173.0 193.6Q171.6 192.9 171.0 191.8Q170.3 190.7 170.3 189.2H172.2Q172.2 190.3 172.6 191.1Q173.1 191.9 174.0 192.3Q174.9 192.7 176.3 192.7Q177.5 192.7 178.4 192.4Q179.2 192.2 179.7 191.5Q180.2 190.9 180.2 190.0Q180.2 189.3 180.0 188.8Q179.8 188.3 179.3 187.9Q178.8 187.6 178.0 187.4Q177.1 187.1 176.0 186.9Q174.7 186.7 173.7 186.4Q172.7 186.0 172.0 185.6Q171.4 185.1 171.0 184.4Q170.7 183.7 170.7 182.7Q170.7 181.5 171.3 180.5Q172.0 179.6 173.2 179.0Q174.4 178.5 176.1 178.5Q177.9 178.5 179.1 179.1Q180.3 179.6 180.9 180.6Q181.6 181.6 181.6 183.0H179.8Q179.7 181.9 179.3 181.3Q178.8 180.6 178.0 180.3Q177.2 179.9 176.1 179.9Q174.9 179.9 174.2 180.2Q173.4 180.6 172.9 181.1Q172.5 181.7 172.5 182.5Q172.5 183.4 172.9 183.9Q173.3 184.4 174.3 184.7Q175.2 185.0 176.9 185.3Q177.9 185.5 178.8 185.7Q179.8 186.0 180.5 186.5Q181.2 187.0 181.7 187.8Q182.1 188.6 182.1 189.9Q182.1 191.2 181.4 192.1Q180.8 193.1 179.5 193.6Q178.2 194.2 176.3 194.2Z M189.6 194.2Q188.4 194.2 187.4 193.8Q186.4 193.4 185.7 192.6Q185.0 191.9 184.7 190.8Q184.3 189.8 184.3 188.5Q184.3 187.2 184.7 186.2Q185.0 185.1 185.8 184.4Q186.5 183.6 187.5 183.2Q188.4 182.8 189.6 182.8Q190.9 182.8 191.9 183.3Q192.9 183.7 193.6 184.6Q194.2 185.4 194.3 186.5H192.7Q192.5 185.8 192.1 185.3Q191.6 184.8 191.0 184.5Q190.4 184.3 189.6 184.3Q188.7 184.3 188.1 184.6Q187.4 184.9 187.0 185.4Q186.5 186.0 186.3 186.8Q186.0 187.6 186.0 188.5Q186.0 189.8 186.5 190.8Q186.9 191.7 187.7 192.2Q188.5 192.7 189.6 192.7Q190.4 192.7 191.1 192.4Q191.7 192.1 192.2 191.6Q192.6 191.0 192.7 190.3H194.4Q194.3 191.5 193.6 192.3Q193.0 193.2 191.9 193.7Q190.9 194.2 189.6 194.2Z M196.8 194.0V183.0H198.5V194.0ZM197.6 181.1Q197.2 181.1 196.9 180.8Q196.6 180.6 196.6 180.1Q196.6 179.7 196.9 179.4Q197.2 179.2 197.6 179.2Q198.1 179.2 198.4 179.4Q198.7 179.7 198.7 180.1Q198.7 180.6 198.4 180.8Q198.1 181.1 197.6 181.1Z M205.9 194.2Q204.3 194.2 203.2 193.5Q202.1 192.8 201.5 191.5Q200.9 190.2 200.9 188.5Q200.9 186.8 201.5 185.5Q202.1 184.2 203.1 183.5Q204.2 182.8 205.8 182.8Q207.5 182.8 208.6 183.6Q209.7 184.3 210.2 185.7Q210.7 187.0 210.5 188.8H202.5Q202.6 190.1 203.0 191.0Q203.4 192.0 204.1 192.4Q204.9 192.9 205.9 192.9Q207.1 192.9 207.8 192.3Q208.6 191.8 208.8 190.9H210.5Q210.3 191.9 209.6 192.7Q209.0 193.4 208.0 193.8Q207.1 194.2 205.9 194.2ZM202.6 187.8 202.4 187.6H209.1L208.9 187.8Q208.9 186.5 208.5 185.7Q208.1 184.9 207.4 184.5Q206.7 184.1 205.8 184.1Q204.8 184.1 204.1 184.6Q203.4 185.0 203.0 185.8Q202.6 186.6 202.6 187.8Z M212.9 194.0V183.0H214.5L214.6 185.3H214.7Q215.2 184.0 216.3 183.4Q217.3 182.8 218.6 182.8Q219.4 182.8 220.1 183.1Q220.9 183.3 221.4 183.9Q221.9 184.4 222.2 185.3Q222.5 186.2 222.5 187.5V194.0H220.8V187.8Q220.8 186.6 220.5 185.8Q220.2 185.0 219.6 184.6Q219.0 184.2 218.0 184.2Q217.0 184.2 216.2 184.7Q215.4 185.2 215.0 186.1Q214.6 186.9 214.6 188.0V194.0Z M230.3 194.2Q229.1 194.2 228.1 193.8Q227.2 193.4 226.5 192.6Q225.8 191.9 225.4 190.8Q225.0 189.8 225.0 188.5Q225.0 187.2 225.4 186.2Q225.8 185.1 226.5 184.4Q227.2 183.6 228.2 183.2Q229.2 182.8 230.4 182.8Q231.7 182.8 232.7 183.3Q233.7 183.7 234.3 184.6Q234.9 185.4 235.1 186.5H233.4Q233.2 185.8 232.8 185.3Q232.4 184.8 231.7 184.5Q231.1 184.3 230.3 184.3Q229.5 184.3 228.8 184.6Q228.2 184.9 227.7 185.4Q227.2 186.0 227.0 186.8Q226.8 187.6 226.8 188.5Q226.8 189.8 227.2 190.8Q227.7 191.7 228.5 192.2Q229.2 192.7 230.3 192.7Q231.2 192.7 231.8 192.4Q232.5 192.1 232.9 191.6Q233.3 191.0 233.5 190.3H235.1Q235.0 191.5 234.4 192.3Q233.7 193.2 232.7 193.7Q231.6 194.2 230.3 194.2Z M241.7 194.2Q240.1 194.2 239.0 193.5Q237.9 192.8 237.3 191.5Q236.7 190.2 236.7 188.5Q236.7 186.8 237.3 185.5Q237.9 184.2 239.0 183.5Q240.1 182.8 241.7 182.8Q243.3 182.8 244.4 183.6Q245.5 184.3 246.0 185.7Q246.5 187.0 246.4 188.8H238.4Q238.4 190.1 238.8 191.0Q239.2 192.0 240.0 192.4Q240.7 192.9 241.7 192.9Q242.9 192.9 243.7 192.3Q244.4 191.8 244.7 190.9H246.3Q246.1 191.9 245.5 192.7Q244.8 193.4 243.9 193.8Q242.9 194.2 241.7 194.2ZM238.4 187.8 238.2 187.6H244.9L244.7 187.8Q244.7 186.5 244.4 185.7Q244.0 184.9 243.3 184.5Q242.6 184.1 241.7 184.1Q240.7 184.1 240.0 184.6Q239.3 185.0 238.9 185.8Q238.4 186.6 238.4 187.8Z M266.5 194.1Q265.5 194.1 264.7 193.7Q263.9 193.3 263.2 192.7Q262.4 192.1 261.8 191.4L257.6 186.8Q256.8 186.0 256.4 185.3Q255.9 184.6 255.6 184.0Q255.4 183.4 255.3 183.0Q255.2 182.5 255.2 182.1Q255.2 181.0 255.7 180.2Q256.2 179.4 257.1 178.9Q258.0 178.5 259.1 178.5Q260.1 178.5 260.9 178.9Q261.7 179.3 262.2 180.0Q262.6 180.8 262.6 181.8Q262.6 182.7 262.2 183.4Q261.8 184.2 260.9 184.9Q260.1 185.5 258.9 186.1L258.1 185.2Q259.1 184.8 259.8 184.2Q260.4 183.7 260.7 183.2Q261.1 182.6 261.1 181.9Q261.1 181.0 260.5 180.4Q260.0 179.9 259.1 179.9Q258.1 179.9 257.5 180.5Q256.8 181.0 256.8 182.0Q256.8 182.4 256.9 182.8Q257.1 183.2 257.3 183.7Q257.5 184.2 258.0 184.8Q258.4 185.4 259.1 186.1L262.8 190.2Q263.7 191.1 264.3 191.7Q265.0 192.2 265.6 192.4Q266.1 192.6 266.8 192.6Q267.0 192.6 267.1 192.6Q267.3 192.6 267.5 192.5L267.4 194.0Q267.2 194.1 267.0 194.1Q266.7 194.1 266.5 194.1ZM257.2 194.2Q256.0 194.2 255.1 193.7Q254.1 193.2 253.6 192.3Q253.1 191.5 253.1 190.3Q253.1 189.3 253.6 188.4Q254.1 187.5 255.0 186.8Q255.9 186.1 257.1 185.6L257.9 186.6Q256.9 187.0 256.2 187.6Q255.5 188.1 255.1 188.8Q254.8 189.4 254.8 190.1Q254.8 191.3 255.5 192.1Q256.3 192.8 257.5 192.8Q258.9 192.8 259.9 192.2Q260.9 191.6 261.5 190.5L262.6 191.3Q262.0 192.3 261.2 192.9Q260.4 193.6 259.4 193.9Q258.3 194.2 257.2 194.2ZM263.1 190.8 262.0 189.9Q262.4 189.2 262.7 188.4Q262.9 187.7 263.0 186.9V186.3H266.4L266.6 187.7L264.3 187.7Q264.2 188.1 264.1 188.7Q263.9 189.2 263.6 189.8Q263.4 190.3 263.1 190.8Z M275.0 194.0V178.7H285.5V180.3H276.4L276.8 179.8V192.8L276.4 192.4H285.5V194.0ZM276.4 186.9V185.4H284.5V186.9Z M287.7 194.0V183.0H289.3L289.4 185.3H289.5Q290.0 184.0 291.0 183.4Q292.1 182.8 293.3 182.8Q294.2 182.8 294.9 183.1Q295.6 183.3 296.2 183.9Q296.7 184.4 297.0 185.3Q297.3 186.2 297.3 187.5V194.0H295.6V187.8Q295.6 186.6 295.3 185.8Q295.0 185.0 294.4 184.6Q293.7 184.2 292.8 184.2Q291.7 184.2 291.0 184.7Q290.2 185.2 289.8 186.1Q289.4 186.9 289.4 188.0V194.0Z M304.6 197.7Q303.4 197.7 302.5 197.3Q301.5 197.0 300.9 196.3Q300.4 195.6 300.2 194.7H301.9Q302.0 195.2 302.4 195.6Q302.7 196.0 303.3 196.2Q303.9 196.4 304.7 196.4Q305.8 196.4 306.5 196.1Q307.3 195.8 307.6 195.1Q308.0 194.4 308.0 193.4V191.3H307.9Q307.5 192.3 306.6 193.0Q305.6 193.6 304.2 193.6Q303.2 193.6 302.4 193.3Q301.6 192.9 301.0 192.2Q300.4 191.5 300.1 190.5Q299.8 189.5 299.8 188.2Q299.8 186.5 300.4 185.3Q300.9 184.1 301.9 183.4Q302.9 182.8 304.2 182.8Q305.5 182.8 306.5 183.4Q307.5 184.0 307.9 185.1H308.0L308.1 183.0H309.7V193.1Q309.7 194.7 309.1 195.8Q308.5 196.8 307.3 197.2Q306.2 197.7 304.6 197.7ZM304.8 192.2Q305.8 192.2 306.5 191.7Q307.2 191.3 307.6 190.5Q308.0 189.7 308.0 188.8V187.6Q308.0 186.7 307.6 185.9Q307.2 185.1 306.5 184.7Q305.8 184.2 304.8 184.2Q303.8 184.2 303.1 184.7Q302.3 185.1 301.9 186.0Q301.6 186.9 301.6 188.2Q301.6 189.4 301.9 190.3Q302.3 191.2 303.1 191.7Q303.8 192.2 304.8 192.2Z M312.9 194.0V183.0H314.6V194.0ZM313.8 181.1Q313.3 181.1 313.0 180.8Q312.7 180.6 312.7 180.1Q312.7 179.7 313.0 179.4Q313.3 179.2 313.8 179.2Q314.2 179.2 314.5 179.4Q314.8 179.7 314.8 180.1Q314.8 180.6 314.5 180.8Q314.2 181.1 313.8 181.1Z M317.8 194.0V183.0H319.4L319.4 185.3H319.6Q320.1 184.0 321.1 183.4Q322.2 182.8 323.4 182.8Q324.3 182.8 325.0 183.1Q325.7 183.3 326.3 183.9Q326.8 184.4 327.1 185.3Q327.4 186.2 327.4 187.5V194.0H325.7V187.8Q325.7 186.6 325.4 185.8Q325.1 185.0 324.5 184.6Q323.8 184.2 322.9 184.2Q321.8 184.2 321.1 184.7Q320.3 185.2 319.9 186.1Q319.4 186.9 319.4 188.0V194.0Z M334.8 194.2Q333.2 194.2 332.1 193.5Q331.0 192.8 330.4 191.5Q329.8 190.2 329.8 188.5Q329.8 186.8 330.4 185.5Q331.0 184.2 332.0 183.5Q333.1 182.8 334.7 182.8Q336.4 182.8 337.5 183.6Q338.6 184.3 339.1 185.7Q339.6 187.0 339.4 188.8H331.4Q331.5 190.1 331.9 191.0Q332.3 192.0 333.0 192.4Q333.8 192.9 334.8 192.9Q335.9 192.9 336.7 192.3Q337.5 191.8 337.7 190.9H339.4Q339.2 191.9 338.5 192.7Q337.9 193.4 336.9 193.8Q335.9 194.2 334.8 194.2ZM331.5 187.8 331.3 187.6H338.0L337.8 187.8Q337.8 186.5 337.4 185.7Q337.0 184.9 336.3 184.5Q335.6 184.1 334.7 184.1Q333.7 184.1 333.0 184.6Q332.3 185.0 331.9 185.8Q331.5 186.6 331.5 187.8Z M346.2 194.2Q344.6 194.2 343.5 193.5Q342.4 192.8 341.8 191.5Q341.2 190.2 341.2 188.5Q341.2 186.8 341.8 185.5Q342.4 184.2 343.5 183.5Q344.6 182.8 346.2 182.8Q347.8 182.8 348.9 183.6Q350.0 184.3 350.5 185.7Q351.0 187.0 350.9 188.8H342.9Q342.9 190.1 343.3 191.0Q343.7 192.0 344.5 192.4Q345.2 192.9 346.2 192.9Q347.4 192.9 348.2 192.3Q348.9 191.8 349.2 190.9H350.8Q350.6 191.9 350.0 192.7Q349.3 193.4 348.4 193.8Q347.4 194.2 346.2 194.2ZM342.9 187.8 342.7 187.6H349.4L349.2 187.8Q349.2 186.5 348.9 185.7Q348.5 184.9 347.8 184.5Q347.1 184.1 346.2 184.1Q345.2 184.1 344.5 184.6Q343.8 185.0 343.4 185.8Q342.9 186.6 342.9 187.8Z M353.3 194.0V183.0H354.8L354.9 185.0H355.0Q355.3 184.0 356.2 183.4Q357.1 182.8 358.2 182.8Q358.4 182.8 358.6 182.8Q358.8 182.8 358.9 182.9V184.5Q358.8 184.5 358.6 184.5Q358.4 184.4 358.2 184.4Q357.3 184.4 356.6 184.8Q355.8 185.2 355.4 185.8Q355.0 186.5 354.9 187.4V194.0Z M360.9 194.0V183.0H362.6V194.0ZM361.8 181.1Q361.3 181.1 361.0 180.8Q360.8 180.6 360.8 180.1Q360.8 179.7 361.0 179.4Q361.3 179.2 361.8 179.2Q362.3 179.2 362.6 179.4Q362.9 179.7 362.9 180.1Q362.9 180.6 362.6 180.8Q362.3 181.1 361.8 181.1Z M365.8 194.0V183.0H367.5L367.5 185.3H367.6Q368.1 184.0 369.2 183.4Q370.2 182.8 371.5 182.8Q372.3 182.8 373.1 183.1Q373.8 183.3 374.3 183.9Q374.9 184.4 375.2 185.3Q375.5 186.2 375.5 187.5V194.0H373.8V187.8Q373.8 186.6 373.4 185.8Q373.1 185.0 372.5 184.6Q371.9 184.2 370.9 184.2Q369.9 184.2 369.1 184.7Q368.4 185.2 367.9 186.1Q367.5 186.9 367.5 188.0V194.0Z M382.8 197.7Q381.6 197.7 380.6 197.3Q379.7 197.0 379.1 196.3Q378.5 195.6 378.4 194.7H380.1Q380.1 195.2 380.5 195.6Q380.9 196.0 381.5 196.2Q382.1 196.4 382.8 196.4Q384.0 196.4 384.7 196.1Q385.4 195.8 385.8 195.1Q386.1 194.4 386.1 193.4V191.3H386.1Q385.7 192.3 384.7 193.0Q383.7 193.6 382.4 193.6Q381.4 193.6 380.6 193.3Q379.8 192.9 379.2 192.2Q378.6 191.5 378.3 190.5Q378.0 189.5 378.0 188.2Q378.0 186.5 378.5 185.3Q379.1 184.1 380.1 183.4Q381.1 182.8 382.4 182.8Q383.7 182.8 384.7 183.4Q385.7 184.0 386.1 185.1H386.2L386.2 183.0H387.8V193.1Q387.8 194.7 387.2 195.8Q386.6 196.8 385.5 197.2Q384.4 197.7 382.8 197.7ZM382.9 192.2Q384.0 192.2 384.7 191.7Q385.4 191.3 385.8 190.5Q386.1 189.7 386.1 188.8V187.6Q386.1 186.7 385.8 185.9Q385.4 185.1 384.7 184.7Q384.0 184.2 383.0 184.2Q382.0 184.2 381.2 184.7Q380.5 185.1 380.1 186.0Q379.7 186.9 379.7 188.2Q379.7 189.4 380.1 190.3Q380.5 191.2 381.2 191.7Q381.9 192.2 382.9 192.2Z M399.6 194.2Q398.4 194.2 397.5 193.7Q396.6 193.2 396.1 192.2Q395.7 191.2 395.7 189.7V183.0H397.4V189.3Q397.4 190.4 397.6 191.2Q397.9 191.9 398.6 192.3Q399.2 192.7 400.2 192.7Q401.2 192.7 402.0 192.3Q402.7 191.8 403.2 190.9Q403.6 190.0 403.6 188.9V183.0H405.3V194.0H403.7L403.6 191.6H403.4Q403.0 192.8 402.0 193.5Q401.0 194.2 399.6 194.2Z M408.5 194.0V183.0H410.1L410.1 185.3H410.3Q410.8 184.0 411.8 183.4Q412.9 182.8 414.1 182.8Q415.0 182.8 415.7 183.1Q416.4 183.3 417.0 183.9Q417.5 184.4 417.8 185.3Q418.1 186.2 418.1 187.5V194.0H416.4V187.8Q416.4 186.6 416.1 185.8Q415.8 185.0 415.2 184.6Q414.5 184.2 413.6 184.2Q412.5 184.2 411.8 184.7Q411.0 185.2 410.6 186.1Q410.1 186.9 410.1 188.0V194.0Z M425.2 194.2Q424.2 194.2 423.3 193.8Q422.5 193.4 421.9 192.7Q421.3 191.9 420.9 190.9Q420.6 189.8 420.6 188.5Q420.6 186.7 421.2 185.4Q421.8 184.2 422.8 183.5Q423.8 182.8 425.2 182.8Q426.1 182.8 426.9 183.1Q427.7 183.4 428.2 183.9Q428.8 184.5 429.0 185.2H429.1V178.7H430.8V194.0H429.2L429.1 191.7H429.0Q428.6 192.8 427.6 193.5Q426.6 194.2 425.2 194.2ZM425.7 192.8Q426.8 192.8 427.6 192.2Q428.3 191.7 428.7 190.9Q429.1 190.1 429.1 189.1V187.8Q429.1 186.8 428.7 186.0Q428.3 185.2 427.6 184.7Q426.8 184.2 425.7 184.2Q424.7 184.2 423.9 184.7Q423.2 185.2 422.8 186.2Q422.3 187.1 422.3 188.5Q422.3 189.8 422.8 190.8Q423.2 191.7 423.9 192.2Q424.7 192.8 425.7 192.8Z M438.2 194.2Q436.7 194.2 435.5 193.5Q434.4 192.8 433.8 191.5Q433.2 190.2 433.2 188.5Q433.2 186.8 433.8 185.5Q434.4 184.2 435.5 183.5Q436.6 182.8 438.2 182.8Q439.9 182.8 441.0 183.6Q442.0 184.3 442.5 185.7Q443.0 187.0 442.9 188.8H434.9Q434.9 190.1 435.3 191.0Q435.7 192.0 436.5 192.4Q437.2 192.9 438.2 192.9Q439.4 192.9 440.2 192.3Q440.9 191.8 441.2 190.9H442.8Q442.6 191.9 442.0 192.7Q441.3 193.4 440.4 193.8Q439.4 194.2 438.2 194.2ZM434.9 187.8 434.7 187.6H441.4L441.2 187.8Q441.3 186.5 440.9 185.7Q440.5 184.9 439.8 184.5Q439.1 184.1 438.2 184.1Q437.2 184.1 436.5 184.6Q435.8 185.0 435.4 185.8Q435.0 186.6 434.9 187.8Z M445.3 194.0V183.0H446.8L446.9 185.0H447.0Q447.3 184.0 448.2 183.4Q449.1 182.8 450.3 182.8Q450.4 182.8 450.6 182.8Q450.8 182.8 450.9 182.9V184.5Q450.8 184.5 450.6 184.5Q450.4 184.4 450.3 184.4Q449.3 184.4 448.6 184.8Q447.9 185.2 447.4 185.8Q447.0 186.5 447.0 187.4V194.0Z M456.7 197.7Q455.5 197.7 454.5 197.3Q453.6 197.0 453.0 196.3Q452.4 195.6 452.3 194.7H453.9Q454.0 195.2 454.4 195.6Q454.8 196.0 455.4 196.2Q456.0 196.4 456.7 196.4Q457.9 196.4 458.6 196.1Q459.3 195.8 459.7 195.1Q460.0 194.4 460.0 193.4V191.3H460.0Q459.6 192.3 458.6 193.0Q457.6 193.6 456.3 193.6Q455.3 193.6 454.5 193.3Q453.7 192.9 453.1 192.2Q452.5 191.5 452.2 190.5Q451.9 189.5 451.9 188.2Q451.9 186.5 452.4 185.3Q453.0 184.1 454.0 183.4Q455.0 182.8 456.3 182.8Q457.6 182.8 458.6 183.4Q459.6 184.0 460.0 185.1H460.1L460.1 183.0H461.7V193.1Q461.7 194.7 461.1 195.8Q460.5 196.8 459.4 197.2Q458.3 197.7 456.7 197.7ZM456.8 192.2Q457.9 192.2 458.6 191.7Q459.3 191.3 459.7 190.5Q460.0 189.7 460.0 188.8V187.6Q460.0 186.7 459.7 185.9Q459.3 185.1 458.6 184.7Q457.9 184.2 456.9 184.2Q455.9 184.2 455.1 184.7Q454.4 185.1 454.0 186.0Q453.6 186.9 453.6 188.2Q453.6 189.4 454.0 190.3Q454.4 191.2 455.1 191.7Q455.8 192.2 456.8 192.2Z M464.9 194.0V183.0H466.4L466.5 185.0H466.6Q467.0 184.0 467.9 183.4Q468.8 182.8 469.9 182.8Q470.1 182.8 470.3 182.8Q470.4 182.8 470.6 182.9V184.5Q470.4 184.5 470.3 184.5Q470.1 184.4 469.9 184.4Q468.9 184.4 468.2 184.8Q467.5 185.2 467.1 185.8Q466.7 186.5 466.6 187.4V194.0Z M476.1 194.2Q475.1 194.2 474.2 193.8Q473.4 193.4 472.8 192.7Q472.2 191.9 471.8 190.9Q471.5 189.8 471.5 188.5Q471.5 186.7 472.1 185.4Q472.7 184.2 473.7 183.5Q474.7 182.8 476.1 182.8Q477.0 182.8 477.8 183.1Q478.6 183.4 479.1 183.9Q479.7 184.5 479.9 185.2H480.1L480.1 183.0H481.7V194.0H480.1L480.1 191.7H479.9Q479.5 192.8 478.5 193.5Q477.5 194.2 476.1 194.2ZM476.6 192.8Q477.7 192.8 478.5 192.2Q479.2 191.7 479.6 190.9Q480.0 190.1 480.0 189.1V187.8Q480.0 186.8 479.6 186.0Q479.2 185.2 478.5 184.7Q477.7 184.2 476.7 184.2Q475.6 184.2 474.8 184.7Q474.1 185.2 473.7 186.2Q473.2 187.1 473.2 188.5Q473.2 189.8 473.7 190.8Q474.1 191.7 474.8 192.2Q475.6 192.8 476.6 192.8Z M488.9 194.2Q487.9 194.2 487.0 193.8Q486.2 193.4 485.6 192.7Q485.0 191.9 484.6 190.9Q484.3 189.8 484.3 188.5Q484.3 186.7 484.9 185.4Q485.5 184.2 486.5 183.5Q487.5 182.8 488.9 182.8Q489.8 182.8 490.6 183.1Q491.4 183.4 492.0 183.9Q492.5 184.5 492.8 185.2H492.8V178.7H494.5V194.0H492.9L492.9 191.7H492.8Q492.4 192.8 491.3 193.5Q490.3 194.2 488.9 194.2ZM489.4 192.8Q490.5 192.8 491.3 192.2Q492.0 191.7 492.4 190.9Q492.8 190.1 492.8 189.1V187.8Q492.8 186.8 492.4 186.0Q492.0 185.2 491.3 184.7Q490.5 184.2 489.5 184.2Q488.4 184.2 487.6 184.7Q486.9 185.2 486.5 186.2Q486.1 187.1 486.1 188.5Q486.1 189.8 486.5 190.8Q486.9 191.7 487.6 192.2Q488.4 192.8 489.4 192.8Z M501.5 194.2Q500.3 194.2 499.4 193.7Q498.5 193.2 498.0 192.2Q497.5 191.2 497.5 189.7V183.0H499.2V189.3Q499.2 190.4 499.5 191.2Q499.8 191.9 500.5 192.3Q501.1 192.7 502.1 192.7Q503.1 192.7 503.9 192.3Q504.6 191.8 505.0 190.9Q505.5 190.0 505.5 188.9V183.0H507.2V194.0H505.5L505.5 191.6H505.3Q504.9 192.8 503.9 193.5Q502.9 194.2 501.5 194.2Z M514.3 194.2Q513.3 194.2 512.5 193.8Q511.6 193.4 511.0 192.7Q510.4 191.9 510.1 190.9Q509.7 189.8 509.7 188.5Q509.7 186.7 510.3 185.4Q510.9 184.2 511.9 183.5Q513.0 182.8 514.3 182.8Q515.3 182.8 516.1 183.1Q516.8 183.4 517.4 183.9Q517.9 184.5 518.2 185.2H518.3L518.4 183.0H520.0V194.0H518.4L518.3 191.7H518.2Q517.8 192.8 516.8 193.5Q515.8 194.2 514.3 194.2ZM514.9 192.8Q516.0 192.8 516.7 192.2Q517.5 191.7 517.9 190.9Q518.3 190.1 518.3 189.1V187.8Q518.3 186.8 517.9 186.0Q517.5 185.2 516.7 184.7Q516.0 184.2 514.9 184.2Q513.8 184.2 513.1 184.7Q512.3 185.2 511.9 186.2Q511.5 187.1 511.5 188.5Q511.5 189.8 511.9 190.8Q512.3 191.7 513.1 192.2Q513.8 192.8 514.9 192.8Z M526.5 194.0Q525.3 194.0 524.8 193.4Q524.2 192.9 524.2 191.6V184.4H522.0V183.0H524.2V179.7L525.8 179.4V183.0H528.4V184.4H525.9V191.4Q525.9 192.0 526.1 192.3Q526.4 192.6 527.0 192.6H528.4V194.0Z M534.6 194.2Q533.1 194.2 531.9 193.5Q530.8 192.8 530.2 191.5Q529.6 190.2 529.6 188.5Q529.6 186.8 530.2 185.5Q530.8 184.2 531.9 183.5Q533.0 182.8 534.6 182.8Q536.2 182.8 537.3 183.6Q538.4 184.3 538.9 185.7Q539.4 187.0 539.3 188.8H531.3Q531.3 190.1 531.7 191.0Q532.1 192.0 532.9 192.4Q533.6 192.9 534.6 192.9Q535.8 192.9 536.6 192.3Q537.3 191.8 537.6 190.9H539.2Q539.0 191.9 538.4 192.7Q537.7 193.4 536.8 193.8Q535.8 194.2 534.6 194.2ZM531.3 187.8 531.1 187.6H537.8L537.6 187.8Q537.7 186.5 537.3 185.7Q536.9 184.9 536.2 184.5Q535.5 184.1 534.6 184.1Q533.6 184.1 532.9 184.6Q532.2 185.0 531.8 185.8Q531.4 186.6 531.3 187.8Z M540.5 196.9Q541.2 196.1 541.6 195.2Q542.1 194.4 542.1 193.8L542.3 193.9Q542.3 194.0 542.1 194.0Q542.0 194.1 541.8 194.1Q541.4 194.1 541.2 193.8Q540.9 193.6 540.9 193.2Q540.9 192.7 541.2 192.5Q541.5 192.2 541.9 192.2Q542.4 192.2 542.7 192.5Q543.0 192.8 543.0 193.5Q543.0 193.9 542.9 194.4Q542.7 194.9 542.5 195.4Q542.3 195.8 542.0 196.2Q541.7 196.6 541.5 196.9Z M556.5 194.2Q554.5 194.2 553.2 193.5Q551.8 192.8 551.1 191.5Q550.3 190.2 550.3 188.4V178.7H552.1V188.4Q552.1 189.8 552.6 190.7Q553.2 191.6 554.1 192.1Q555.1 192.6 556.5 192.6Q557.9 192.6 558.9 192.0Q559.9 191.5 560.3 190.6Q560.8 189.6 560.8 188.4V178.7H562.6V188.4Q562.6 190.2 561.9 191.5Q561.1 192.8 559.8 193.5Q558.4 194.2 556.5 194.2Z M565.7 194.0V183.0H567.3L567.4 185.3H567.5Q568.0 184.0 569.0 183.4Q570.1 182.8 571.3 182.8Q572.2 182.8 572.9 183.1Q573.6 183.3 574.2 183.9Q574.7 184.4 575.0 185.3Q575.3 186.2 575.3 187.5V194.0H573.6V187.8Q573.6 186.6 573.3 185.8Q573.0 185.0 572.4 184.6Q571.8 184.2 570.8 184.2Q569.8 184.2 569.0 184.7Q568.2 185.2 567.8 186.1Q567.4 186.9 567.4 188.0V194.0Z M578.3 194.0V183.0H580.0V194.0ZM579.2 181.1Q578.7 181.1 578.4 180.8Q578.1 180.6 578.1 180.1Q578.1 179.7 578.4 179.4Q578.7 179.2 579.2 179.2Q579.6 179.2 579.9 179.4Q580.2 179.7 580.2 180.1Q580.2 180.6 579.9 180.8Q579.6 181.1 579.2 181.1Z M586.0 194.0 582.0 183.0H583.9L586.0 189.4L587.0 192.7H587.1L588.2 189.4L590.3 183.0H592.1L588.2 194.0Z M598.2 194.2Q596.7 194.2 595.5 193.5Q594.4 192.8 593.8 191.5Q593.2 190.2 593.2 188.5Q593.2 186.8 593.8 185.5Q594.4 184.2 595.5 183.5Q596.6 182.8 598.2 182.8Q599.9 182.8 600.9 183.6Q602.0 184.3 602.5 185.7Q603.0 187.0 602.9 188.8H594.9Q594.9 190.1 595.3 191.0Q595.7 192.0 596.5 192.4Q597.2 192.9 598.2 192.9Q599.4 192.9 600.2 192.3Q600.9 191.8 601.2 190.9H602.8Q602.6 191.9 602.0 192.7Q601.3 193.4 600.4 193.8Q599.4 194.2 598.2 194.2ZM594.9 187.8 594.7 187.6H601.4L601.2 187.8Q601.3 186.5 600.9 185.7Q600.5 184.9 599.8 184.5Q599.1 184.1 598.2 184.1Q597.2 184.1 596.5 184.6Q595.8 185.0 595.4 185.8Q595.0 186.6 594.9 187.8Z M605.3 194.0V183.0H606.8L606.9 185.0H607.0Q607.3 184.0 608.2 183.4Q609.1 182.8 610.3 182.8Q610.4 182.8 610.6 182.8Q610.8 182.8 610.9 182.9V184.5Q610.8 184.5 610.6 184.5Q610.4 184.4 610.3 184.4Q609.3 184.4 608.6 184.8Q607.9 185.2 607.4 185.8Q607.0 186.5 607.0 187.4V194.0Z M616.4 194.2Q615.4 194.2 614.6 194.0Q613.8 193.7 613.2 193.3Q612.6 192.8 612.3 192.2Q612.0 191.5 611.9 190.7H613.6Q613.7 191.5 614.0 192.0Q614.4 192.5 615.0 192.7Q615.7 192.9 616.5 192.9Q617.7 192.9 618.4 192.4Q619.1 192.0 619.1 191.1Q619.1 190.4 618.8 190.0Q618.5 189.7 617.9 189.5Q617.3 189.3 616.3 189.1Q615.0 188.9 614.1 188.6Q613.1 188.2 612.7 187.6Q612.2 187.0 612.2 186.0Q612.2 185.0 612.8 184.3Q613.3 183.6 614.2 183.2Q615.2 182.8 616.4 182.8Q617.7 182.8 618.6 183.2Q619.6 183.6 620.1 184.3Q620.6 185.1 620.6 186.1H619.0Q618.9 185.4 618.6 184.9Q618.3 184.5 617.7 184.3Q617.2 184.1 616.4 184.1Q615.2 184.1 614.6 184.6Q613.9 185.0 613.9 185.8Q613.9 186.4 614.2 186.8Q614.6 187.2 615.2 187.4Q615.9 187.6 616.9 187.7Q618.1 187.9 619.0 188.2Q619.9 188.6 620.4 189.2Q620.8 189.8 620.8 190.9Q620.8 192.0 620.3 192.7Q619.7 193.4 618.7 193.8Q617.7 194.2 616.4 194.2Z M623.4 194.0V183.0H625.1V194.0ZM624.2 181.1Q623.8 181.1 623.5 180.8Q623.2 180.6 623.2 180.1Q623.2 179.7 623.5 179.4Q623.8 179.2 624.2 179.2Q624.7 179.2 625.0 179.4Q625.3 179.7 625.3 180.1Q625.3 180.6 625.0 180.8Q624.7 181.1 624.2 181.1Z M631.6 194.0Q630.4 194.0 629.8 193.4Q629.2 192.9 629.2 191.6V184.4H627.1V183.0H629.2V179.7L630.9 179.4V183.0H633.5V184.4H630.9V191.4Q630.9 192.0 631.2 192.3Q631.5 192.6 632.1 192.6H633.5V194.0Z M635.5 197.5V196.1H636.6Q637.1 196.1 637.5 196.0Q637.8 195.8 638.1 195.5Q638.4 195.2 638.5 194.8L639.3 192.9V193.6L634.7 183.0H636.6L638.9 189.0L639.9 191.6H640.0L640.9 189.0L643.1 183.0H644.9L640.1 195.2Q639.8 196.0 639.4 196.5Q638.9 197.0 638.3 197.3Q637.7 197.5 636.9 197.5Z M656.4 194.2Q655.2 194.2 654.2 193.8Q653.2 193.4 652.5 192.6Q651.8 191.9 651.4 190.8Q651.0 189.8 651.0 188.5Q651.0 186.8 651.7 185.5Q652.3 184.3 653.5 183.5Q654.8 182.8 656.4 182.8Q657.6 182.8 658.5 183.2Q659.5 183.6 660.2 184.3Q660.9 185.1 661.3 186.1Q661.7 187.2 661.7 188.5Q661.7 190.2 661.0 191.5Q660.4 192.7 659.2 193.5Q658.0 194.2 656.4 194.2ZM656.4 192.7Q657.4 192.7 658.2 192.2Q659.0 191.7 659.5 190.8Q659.9 189.8 659.9 188.5Q659.9 187.5 659.7 186.7Q659.4 185.9 659.0 185.4Q658.5 184.8 657.9 184.5Q657.2 184.2 656.4 184.2Q655.3 184.2 654.5 184.7Q653.7 185.3 653.2 186.2Q652.8 187.2 652.8 188.5Q652.8 189.5 653.0 190.3Q653.3 191.1 653.7 191.6Q654.2 192.2 654.9 192.4Q655.5 192.7 656.4 192.7Z M664.6 194.0V184.3H662.8V183.0H664.6V181.1Q664.6 179.9 665.3 179.3Q666.0 178.7 667.2 178.7H668.7V180.1H667.6Q666.8 180.1 666.6 180.4Q666.3 180.7 666.3 181.4V183.0H668.5V184.3H666.3V194.0Z M675.4 194.0V178.7H678.3L681.7 187.7L683.0 191.7H683.1L684.4 187.7L687.8 178.7H690.7V194.0H688.9V186.0L689.0 180.3H688.8L687.0 185.6L683.9 194.0H682.2L679.1 185.7L677.3 180.3H677.1L677.2 186.0V194.0Z M698.7 194.2Q697.5 194.2 696.5 193.8Q695.5 193.4 694.8 192.6Q694.1 191.9 693.7 190.8Q693.3 189.8 693.3 188.5Q693.3 186.8 694.0 185.5Q694.7 184.3 695.9 183.5Q697.1 182.8 698.7 182.8Q699.9 182.8 700.9 183.2Q701.8 183.6 702.5 184.3Q703.2 185.1 703.6 186.1Q704.0 187.2 704.0 188.5Q704.0 190.2 703.3 191.5Q702.7 192.7 701.5 193.5Q700.3 194.2 698.7 194.2ZM698.7 192.7Q699.8 192.7 700.6 192.2Q701.4 191.7 701.8 190.8Q702.3 189.8 702.3 188.5Q702.3 187.5 702.0 186.7Q701.7 185.9 701.3 185.4Q700.8 184.8 700.2 184.5Q699.5 184.2 698.7 184.2Q697.6 184.2 696.8 184.7Q696.0 185.3 695.5 186.2Q695.1 187.2 695.1 188.5Q695.1 189.5 695.3 190.3Q695.6 191.1 696.0 191.6Q696.5 192.2 697.2 192.4Q697.9 192.7 698.7 192.7Z M706.5 194.0V183.0H708.0L708.1 185.0H708.2Q708.6 184.0 709.5 183.4Q710.4 182.8 711.5 182.8Q711.7 182.8 711.8 182.8Q712.0 182.8 712.1 182.9V184.5Q712.0 184.5 711.8 184.5Q711.7 184.4 711.5 184.4Q710.5 184.4 709.8 184.8Q709.1 185.2 708.7 185.8Q708.3 186.5 708.2 187.4V194.0Z M717.6 194.2Q716.6 194.2 715.8 193.8Q714.9 193.4 714.3 192.7Q713.7 191.9 713.4 190.9Q713.1 189.8 713.1 188.5Q713.1 186.7 713.6 185.4Q714.2 184.2 715.3 183.5Q716.3 182.8 717.6 182.8Q718.6 182.8 719.4 183.1Q720.2 183.4 720.7 183.9Q721.3 184.5 721.5 185.2H721.6L721.7 183.0H723.3V194.0H721.7L721.6 191.7H721.5Q721.1 192.8 720.1 193.5Q719.1 194.2 717.6 194.2ZM718.2 192.8Q719.3 192.8 720.0 192.2Q720.8 191.7 721.2 190.9Q721.6 190.1 721.6 189.1V187.8Q721.6 186.8 721.2 186.0Q720.8 185.2 720.0 184.7Q719.3 184.2 718.2 184.2Q717.2 184.2 716.4 184.7Q715.6 185.2 715.2 186.2Q714.8 187.1 714.8 188.5Q714.8 189.8 715.2 190.8Q715.6 191.7 716.4 192.2Q717.1 192.8 718.2 192.8Z M729.8 194.0Q728.7 194.0 728.1 193.4Q727.5 192.9 727.5 191.6V184.4H725.3V183.0H727.5V179.7L729.2 179.4V183.0H731.7V184.4H729.2V191.4Q729.2 192.0 729.5 192.3Q729.8 192.6 730.3 192.6H731.8V194.0Z M737.8 194.2Q736.6 194.2 735.7 193.7Q734.8 193.2 734.3 192.2Q733.8 191.2 733.8 189.7V183.0H735.5V189.3Q735.5 190.4 735.8 191.2Q736.1 191.9 736.8 192.3Q737.4 192.7 738.4 192.7Q739.4 192.7 740.2 192.3Q740.9 191.8 741.3 190.9Q741.8 190.0 741.8 188.9V183.0H743.5V194.0H741.8L741.8 191.6H741.6Q741.2 192.8 740.2 193.5Q739.2 194.2 737.8 194.2Z M748.1 194.0 745.2 183.0H746.9L748.6 189.5L749.3 192.5H749.4L750.0 189.5L751.5 183.0H753.5L755.1 189.5L755.8 192.5H755.9L756.5 189.5L758.1 183.0H759.8L756.9 194.0H754.7L753.2 187.8L752.5 184.9H752.4L751.8 187.8L750.4 194.0Z M765.5 194.2Q764.5 194.2 763.7 193.8Q762.8 193.4 762.2 192.7Q761.6 191.9 761.3 190.9Q760.9 189.8 760.9 188.5Q760.9 186.7 761.5 185.4Q762.1 184.2 763.1 183.5Q764.2 182.8 765.5 182.8Q766.5 182.8 767.3 183.1Q768.0 183.4 768.6 183.9Q769.1 184.5 769.4 185.2H769.5L769.6 183.0H771.2V194.0H769.6L769.5 191.7H769.4Q769.0 192.8 768.0 193.5Q767.0 194.2 765.5 194.2ZM766.1 192.8Q767.2 192.8 767.9 192.2Q768.7 191.7 769.1 190.9Q769.5 190.1 769.5 189.1V187.8Q769.5 186.8 769.1 186.0Q768.7 185.2 767.9 184.7Q767.2 184.2 766.1 184.2Q765.0 184.2 764.3 184.7Q763.5 185.2 763.1 186.2Q762.7 187.1 762.7 188.5Q762.7 189.8 763.1 190.8Q763.5 191.7 764.3 192.2Q765.0 192.8 766.1 192.8Z" fill="#9198a1"/><rect x="64" y="226" width="350" height="38" rx="19" fill="#161b22" stroke="#30363d" stroke-width="1.5"/><circle cx="86" cy="245" r="5" fill="#3fb950"/><path d="M103.3 251.0V239.3H105.0V249.8L104.7 249.4H110.6V251.0Z M115.1 251.1Q113.9 251.1 113.0 250.6Q112.1 250.1 111.6 249.1Q111.2 248.1 111.2 246.8Q111.2 245.5 111.6 244.5Q112.1 243.5 113.0 242.9Q113.8 242.4 115.0 242.4Q116.4 242.4 117.2 243.0Q118.1 243.6 118.5 244.7Q118.9 245.7 118.8 247.1H112.8Q112.8 248.0 113.1 248.6Q113.4 249.3 113.9 249.6Q114.4 249.9 115.1 249.9Q115.9 249.9 116.4 249.5Q117.0 249.1 117.1 248.5H118.7Q118.6 249.4 118.1 249.9Q117.6 250.5 116.8 250.8Q116.0 251.1 115.1 251.1ZM112.8 246.2 112.6 246.0H117.3L117.2 246.2Q117.2 245.3 116.9 244.8Q116.7 244.2 116.2 243.9Q115.7 243.7 115.0 243.7Q114.4 243.7 113.9 244.0Q113.4 244.2 113.1 244.8Q112.8 245.4 112.8 246.2Z M123.6 251.1Q122.9 251.1 122.2 250.8Q121.6 250.5 121.1 250.0Q120.7 249.4 120.4 248.6Q120.2 247.8 120.2 246.8Q120.2 245.4 120.6 244.4Q121.0 243.4 121.8 242.9Q122.6 242.4 123.6 242.4Q124.4 242.4 124.9 242.6Q125.5 242.8 125.9 243.2Q126.3 243.6 126.5 244.2H126.6L126.7 242.5H128.2V251.0H126.7L126.6 249.4H126.5Q126.2 250.2 125.5 250.6Q124.7 251.1 123.6 251.1ZM124.2 249.8Q125.0 249.8 125.5 249.4Q126.0 249.1 126.3 248.5Q126.6 247.9 126.6 247.2V246.3Q126.6 245.6 126.3 245.0Q126.0 244.4 125.5 244.1Q125.0 243.7 124.2 243.7Q123.5 243.7 123.0 244.1Q122.4 244.5 122.1 245.1Q121.9 245.8 121.9 246.8Q121.9 247.7 122.1 248.4Q122.4 249.1 122.9 249.4Q123.5 249.8 124.2 249.8Z M130.5 251.0V242.5H132.0L132.1 244.0H132.2Q132.4 243.2 133.1 242.8Q133.8 242.4 134.6 242.4Q134.8 242.4 134.9 242.4Q135.0 242.4 135.1 242.5V244.0Q135.0 244.0 134.9 244.0Q134.7 244.0 134.6 244.0Q133.8 244.0 133.3 244.2Q132.8 244.5 132.5 245.0Q132.2 245.5 132.2 246.2V251.0Z M136.6 251.0V242.5H138.2L138.2 244.2H138.3Q138.7 243.3 139.5 242.9Q140.3 242.4 141.2 242.4Q141.8 242.4 142.4 242.6Q142.9 242.8 143.4 243.2Q143.8 243.6 144.0 244.3Q144.2 245.0 144.2 246.0V251.0H142.6V246.3Q142.6 245.4 142.4 244.9Q142.1 244.3 141.7 244.0Q141.3 243.8 140.6 243.8Q139.9 243.8 139.3 244.1Q138.8 244.5 138.5 245.1Q138.2 245.6 138.2 246.4V251.0Z M146.4 251.0V242.5H148.0V251.0ZM147.2 241.2Q146.8 241.2 146.5 241.0Q146.2 240.8 146.2 240.4Q146.2 240.0 146.5 239.8Q146.8 239.5 147.2 239.5Q147.6 239.5 147.9 239.8Q148.1 240.0 148.1 240.4Q148.1 240.8 147.9 241.0Q147.6 241.2 147.2 241.2Z M150.3 251.0V242.5H151.9L151.9 244.2H152.0Q152.4 243.3 153.2 242.9Q154.0 242.4 154.9 242.4Q155.5 242.4 156.1 242.6Q156.6 242.8 157.0 243.2Q157.5 243.6 157.7 244.3Q157.9 245.0 157.9 246.0V251.0H156.3V246.3Q156.3 245.4 156.0 244.9Q155.8 244.3 155.4 244.0Q155.0 243.8 154.3 243.8Q153.6 243.8 153.0 244.1Q152.5 244.5 152.2 245.1Q151.9 245.6 151.9 246.4V251.0Z M163.5 253.8Q162.5 253.8 161.7 253.5Q161.0 253.2 160.5 252.7Q160.1 252.2 160.0 251.4H161.6Q161.6 251.8 161.9 252.0Q162.2 252.3 162.6 252.5Q163.0 252.6 163.5 252.6Q164.3 252.6 164.8 252.4Q165.4 252.2 165.6 251.7Q165.8 251.2 165.8 250.5V249.0H165.8Q165.5 249.8 164.8 250.2Q164.0 250.7 163.0 250.7Q162.3 250.7 161.7 250.4Q161.1 250.1 160.6 249.6Q160.2 249.0 159.9 248.3Q159.7 247.5 159.7 246.5Q159.7 245.2 160.1 244.3Q160.5 243.4 161.3 242.9Q162.0 242.4 163.0 242.4Q164.0 242.4 164.7 242.8Q165.5 243.3 165.8 244.1H165.9L165.9 242.5H167.5V250.2Q167.5 251.5 167.0 252.3Q166.5 253.1 165.6 253.5Q164.7 253.8 163.5 253.8ZM163.6 249.3Q164.3 249.3 164.8 249.0Q165.3 248.7 165.6 248.1Q165.8 247.6 165.8 247.0V246.1Q165.8 245.4 165.6 244.9Q165.3 244.4 164.8 244.0Q164.3 243.7 163.7 243.7Q162.9 243.7 162.4 244.1Q161.9 244.4 161.7 245.0Q161.4 245.7 161.4 246.5Q161.4 247.4 161.6 248.0Q161.9 248.6 162.4 249.0Q162.9 249.3 163.6 249.3Z M173.5 251.0V239.3H178.0Q179.4 239.3 180.3 239.8Q181.3 240.2 181.8 241.1Q182.3 241.9 182.3 243.0Q182.3 244.2 181.7 245.0Q181.2 245.9 180.3 246.3Q179.3 246.8 178.0 246.8H175.0V245.4H177.9Q179.2 245.4 179.8 244.7Q180.5 244.1 180.5 243.1Q180.5 242.0 179.8 241.4Q179.1 240.8 177.9 240.8H174.9L175.2 240.6V251.0Z M183.9 253.7V252.3H184.8Q185.2 252.3 185.5 252.2Q185.7 252.1 185.9 251.9Q186.1 251.7 186.2 251.3L186.8 250.0V250.7L183.3 242.5H185.1L186.7 247.0L187.4 248.8H187.5L188.1 247.0L189.6 242.5H191.4L187.8 251.7Q187.6 252.5 187.2 252.9Q186.8 253.3 186.3 253.5Q185.8 253.7 185.1 253.7Z M194.7 251.0V240.7H196.4V251.0ZM191.1 240.9V239.3H200.2V240.9Z M203.6 251.1Q202.7 251.1 201.9 250.8Q201.2 250.5 200.6 250.0Q200.1 249.4 199.8 248.6Q199.5 247.8 199.5 246.8Q199.5 245.5 200.0 244.5Q200.5 243.5 201.4 243.0Q202.3 242.4 203.6 242.4Q204.5 242.4 205.3 242.7Q206.0 243.0 206.6 243.6Q207.1 244.2 207.4 245.0Q207.7 245.8 207.7 246.8Q207.7 248.1 207.2 249.1Q206.7 250.0 205.8 250.6Q204.9 251.1 203.6 251.1ZM203.6 249.8Q204.3 249.8 204.9 249.4Q205.4 249.1 205.7 248.4Q206.0 247.7 206.0 246.8Q206.0 246.1 205.9 245.5Q205.7 245.0 205.4 244.6Q205.1 244.2 204.6 244.0Q204.2 243.8 203.6 243.8Q202.9 243.8 202.3 244.1Q201.8 244.5 201.4 245.1Q201.1 245.8 201.1 246.8Q201.1 247.5 201.3 248.0Q201.5 248.6 201.8 249.0Q202.1 249.4 202.6 249.6Q203.0 249.8 203.6 249.8Z M209.5 251.0V242.5H211.0L211.1 244.0H211.2Q211.4 243.2 212.1 242.8Q212.8 242.4 213.6 242.4Q213.7 242.4 213.9 242.4Q214.0 242.4 214.1 242.5V244.0Q214.0 244.0 213.9 244.0Q213.7 244.0 213.6 244.0Q212.8 244.0 212.3 244.2Q211.8 244.5 211.5 245.0Q211.2 245.5 211.2 246.2V251.0Z M218.8 251.1Q217.9 251.1 217.2 250.8Q216.4 250.5 215.9 249.9Q215.3 249.4 215.0 248.6Q214.7 247.8 214.7 246.8Q214.7 245.8 215.0 245.0Q215.3 244.2 215.9 243.6Q216.4 243.0 217.2 242.7Q218.0 242.4 218.9 242.4Q219.9 242.4 220.7 242.8Q221.5 243.1 222.0 243.8Q222.5 244.5 222.6 245.4H221.0Q220.9 244.8 220.6 244.5Q220.3 244.1 219.8 244.0Q219.4 243.8 218.9 243.8Q218.3 243.8 217.8 244.0Q217.4 244.2 217.0 244.6Q216.7 245.0 216.6 245.6Q216.4 246.1 216.4 246.8Q216.4 247.7 216.7 248.4Q217.0 249.1 217.6 249.4Q218.1 249.8 218.8 249.8Q219.5 249.8 219.9 249.6Q220.4 249.3 220.6 249.0Q220.9 248.6 221.0 248.1H222.6Q222.5 249.0 222.0 249.7Q221.5 250.4 220.7 250.8Q219.9 251.1 218.8 251.1Z M224.3 251.0V239.3H226.0V244.2H226.0Q226.4 243.3 227.2 242.9Q228.0 242.4 228.9 242.4Q229.6 242.4 230.1 242.6Q230.7 242.8 231.1 243.2Q231.5 243.6 231.7 244.3Q231.9 245.0 231.9 246.0V251.0H230.3V246.3Q230.3 245.4 230.1 244.9Q229.9 244.3 229.4 244.0Q229.0 243.8 228.3 243.8Q227.6 243.8 227.1 244.1Q226.5 244.5 226.2 245.1Q226.0 245.6 226.0 246.4V251.0Z M233.5 253.3Q234.0 252.7 234.4 252.0Q234.8 251.3 234.8 250.8L235.0 250.9Q234.9 251.0 234.8 251.0Q234.7 251.1 234.6 251.1Q234.2 251.1 234.0 250.8Q233.8 250.6 233.8 250.2Q233.8 249.8 234.0 249.6Q234.3 249.4 234.7 249.4Q235.1 249.4 235.4 249.7Q235.6 249.9 235.6 250.5Q235.6 250.8 235.5 251.2Q235.4 251.6 235.2 252.0Q235.0 252.4 234.8 252.8Q234.6 253.1 234.4 253.3Z M246.4 251.1Q245.1 251.1 244.0 250.7Q243.0 250.3 242.2 249.5Q241.4 248.8 241.0 247.7Q240.6 246.6 240.6 245.2Q240.6 243.8 241.0 242.7Q241.5 241.6 242.2 240.8Q243.0 240.0 244.0 239.6Q245.1 239.2 246.4 239.2Q247.7 239.2 248.7 239.6Q249.8 240.0 250.6 240.8Q251.3 241.6 251.7 242.7Q252.1 243.8 252.1 245.2Q252.1 246.6 251.7 247.7Q251.3 248.8 250.6 249.6Q249.8 250.3 248.7 250.7Q247.7 251.1 246.4 251.1ZM246.4 249.6Q247.6 249.6 248.5 249.1Q249.4 248.6 249.9 247.6Q250.4 246.6 250.4 245.2Q250.4 244.1 250.1 243.3Q249.8 242.5 249.3 241.9Q248.8 241.3 248.0 241.0Q247.3 240.7 246.4 240.7Q245.2 240.7 244.3 241.2Q243.4 241.8 242.9 242.8Q242.4 243.8 242.4 245.2Q242.4 246.2 242.7 247.1Q243.0 247.9 243.5 248.5Q244.0 249.0 244.7 249.3Q245.5 249.6 246.4 249.6Z M254.0 253.7V242.5H255.6L255.7 244.2H255.8Q256.0 243.4 256.8 242.9Q257.6 242.4 258.6 242.4Q259.4 242.4 260.0 242.7Q260.7 243.0 261.1 243.6Q261.6 244.1 261.8 244.9Q262.1 245.8 262.1 246.8Q262.1 248.2 261.7 249.1Q261.2 250.1 260.4 250.6Q259.7 251.1 258.6 251.1Q257.9 251.1 257.3 250.9Q256.8 250.7 256.4 250.3Q256.0 249.9 255.8 249.4H255.7V253.7ZM258.0 249.8Q258.8 249.8 259.3 249.4Q259.8 249.1 260.1 248.4Q260.4 247.7 260.4 246.8Q260.4 245.8 260.1 245.2Q259.9 244.5 259.3 244.1Q258.8 243.8 258.0 243.8Q257.3 243.8 256.8 244.1Q256.2 244.5 256.0 245.0Q255.7 245.6 255.7 246.3V247.3Q255.7 248.0 256.0 248.5Q256.2 249.1 256.8 249.5Q257.3 249.8 258.0 249.8Z M267.6 251.1Q266.4 251.1 265.5 250.6Q264.6 250.1 264.1 249.1Q263.7 248.1 263.7 246.8Q263.7 245.5 264.1 244.5Q264.6 243.5 265.5 242.9Q266.4 242.4 267.6 242.4Q268.9 242.4 269.8 243.0Q270.6 243.6 271.0 244.7Q271.4 245.7 271.3 247.1H265.3Q265.3 248.0 265.6 248.6Q265.9 249.3 266.4 249.6Q266.9 249.9 267.6 249.9Q268.4 249.9 269.0 249.5Q269.5 249.1 269.7 248.5H271.2Q271.1 249.4 270.6 249.9Q270.1 250.5 269.3 250.8Q268.6 251.1 267.6 251.1ZM265.3 246.2 265.2 246.0H269.9L269.7 246.2Q269.7 245.3 269.4 244.8Q269.2 244.2 268.7 243.9Q268.2 243.7 267.6 243.7Q266.9 243.7 266.4 244.0Q265.9 244.2 265.6 244.8Q265.3 245.4 265.3 246.2Z M273.0 251.0V242.5H274.6L274.7 244.2H274.8Q275.1 243.3 275.9 242.9Q276.7 242.4 277.6 242.4Q278.3 242.4 278.8 242.6Q279.4 242.8 279.8 243.2Q280.2 243.6 280.4 244.3Q280.6 245.0 280.6 246.0V251.0H279.0V246.3Q279.0 245.4 278.8 244.9Q278.6 244.3 278.1 244.0Q277.7 243.8 277.0 243.8Q276.3 243.8 275.8 244.1Q275.2 244.5 274.9 245.1Q274.7 245.6 274.7 246.4V251.0Z M288.2 251.1Q286.9 251.1 285.9 250.7Q284.8 250.3 284.1 249.5Q283.3 248.8 282.9 247.7Q282.5 246.6 282.5 245.2Q282.5 243.8 282.9 242.7Q283.3 241.6 284.1 240.8Q284.8 240.0 285.9 239.6Q286.9 239.2 288.2 239.2Q289.7 239.2 290.8 239.7Q291.9 240.2 292.6 241.1Q293.4 242.0 293.5 243.2H291.8Q291.6 242.5 291.1 241.9Q290.7 241.4 289.9 241.0Q289.2 240.7 288.2 240.7Q287.0 240.7 286.1 241.2Q285.2 241.8 284.8 242.8Q284.3 243.8 284.3 245.2Q284.3 246.2 284.6 247.1Q284.8 247.9 285.4 248.5Q285.9 249.0 286.6 249.3Q287.3 249.6 288.2 249.6Q289.2 249.6 289.9 249.3Q290.7 249.0 291.2 248.4Q291.6 247.8 291.8 247.0H293.5Q293.4 248.3 292.7 249.2Q292.0 250.1 290.8 250.6Q289.7 251.1 288.2 251.1Z M298.5 251.0 294.3 239.3H296.2L298.4 246.1L299.6 249.6H299.7L301.0 246.1L303.2 239.3H305.1L300.9 251.0Z M313.2 251.1Q312.5 251.1 311.8 250.8Q311.2 250.5 310.7 250.0Q310.3 249.4 310.0 248.6Q309.8 247.8 309.8 246.8Q309.8 245.4 310.2 244.4Q310.6 243.4 311.4 242.9Q312.2 242.4 313.2 242.4Q314.0 242.4 314.5 242.6Q315.1 242.8 315.5 243.2Q315.9 243.6 316.1 244.2H316.2L316.3 242.5H317.8V251.0H316.3L316.2 249.4H316.1Q315.8 250.2 315.1 250.6Q314.3 251.1 313.2 251.1ZM313.8 249.8Q314.6 249.8 315.1 249.4Q315.6 249.1 315.9 248.5Q316.2 247.9 316.2 247.2V246.3Q316.2 245.6 315.9 245.0Q315.6 244.4 315.1 244.1Q314.6 243.7 313.8 243.7Q313.1 243.7 312.6 244.1Q312.0 244.5 311.7 245.1Q311.5 245.8 311.5 246.8Q311.5 247.7 311.7 248.4Q312.0 249.1 312.5 249.4Q313.1 249.8 313.8 249.8Z M320.1 251.0V242.5H321.7L321.8 244.2H321.9Q322.2 243.3 323.0 242.9Q323.8 242.4 324.7 242.4Q325.4 242.4 325.9 242.6Q326.5 242.8 326.9 243.2Q327.3 243.6 327.5 244.3Q327.7 245.0 327.7 246.0V251.0H326.1V246.3Q326.1 245.4 325.9 244.9Q325.7 244.3 325.2 244.0Q324.8 243.8 324.1 243.8Q323.4 243.8 322.9 244.1Q322.3 244.5 322.0 245.1Q321.8 245.6 321.8 246.4V251.0Z M333.0 251.1Q332.3 251.1 331.6 250.8Q331.0 250.5 330.5 250.0Q330.0 249.4 329.8 248.6Q329.5 247.8 329.5 246.8Q329.5 245.4 330.0 244.4Q330.4 243.4 331.2 242.9Q332.0 242.4 333.0 242.4Q333.7 242.4 334.3 242.6Q334.9 242.8 335.3 243.2Q335.7 243.6 335.9 244.2H336.0V239.3H337.6V251.0H336.0L336.0 249.4H335.9Q335.6 250.2 334.8 250.6Q334.1 251.1 333.0 251.1ZM333.6 249.8Q334.4 249.8 334.9 249.4Q335.4 249.1 335.7 248.5Q336.0 247.9 336.0 247.2V246.3Q336.0 245.6 335.7 245.0Q335.4 244.4 334.9 244.1Q334.4 243.7 333.6 243.7Q332.9 243.7 332.3 244.1Q331.8 244.5 331.5 245.1Q331.2 245.8 331.2 246.8Q331.2 247.7 331.5 248.4Q331.8 249.1 332.3 249.4Q332.8 249.8 333.6 249.8Z M343.6 251.0V239.3H346.4L348.6 245.7L349.5 248.7H349.6L350.5 245.7L352.7 239.3H355.5V251.0H353.8V245.1L353.9 240.9H353.7L352.5 244.8L350.3 251.0H348.8L346.7 244.9L345.4 240.9H345.2L345.3 245.1V251.0Z M358.0 251.0V239.3H359.8V249.8L359.4 249.4H365.3V251.0Z M371.6 251.1Q370.3 251.1 369.2 250.7Q368.2 250.3 367.4 249.5Q366.6 248.8 366.2 247.7Q365.8 246.6 365.8 245.2Q365.8 243.8 366.2 242.7Q366.6 241.6 367.4 240.8Q368.2 240.0 369.2 239.6Q370.3 239.2 371.6 239.2Q372.9 239.2 373.9 239.6Q375.0 240.0 375.7 240.8Q376.5 241.6 376.9 242.7Q377.3 243.8 377.3 245.2Q377.3 246.6 376.9 247.7Q376.5 248.8 375.7 249.6Q375.0 250.3 373.9 250.7Q372.9 251.1 371.6 251.1ZM371.6 249.6Q372.8 249.6 373.7 249.1Q374.6 248.6 375.0 247.6Q375.5 246.6 375.5 245.2Q375.5 244.1 375.3 243.3Q375.0 242.5 374.5 241.9Q373.9 241.3 373.2 241.0Q372.5 240.7 371.6 240.7Q370.4 240.7 369.5 241.2Q368.6 241.8 368.1 242.8Q367.6 243.8 367.6 245.2Q367.6 246.2 367.9 247.1Q368.2 247.9 368.7 248.5Q369.2 249.0 369.9 249.3Q370.7 249.6 371.6 249.6Z M379.2 253.7V242.5H380.8L380.8 244.2H380.9Q381.2 243.4 382.0 242.9Q382.8 242.4 383.8 242.4Q384.6 242.4 385.2 242.7Q385.9 243.0 386.3 243.6Q386.8 244.1 387.0 244.9Q387.3 245.8 387.3 246.8Q387.3 248.2 386.8 249.1Q386.4 250.1 385.6 250.6Q384.8 251.1 383.8 251.1Q383.1 251.1 382.5 250.9Q382.0 250.7 381.6 250.3Q381.2 249.9 380.9 249.4H380.9V253.7ZM383.2 249.8Q384.0 249.8 384.5 249.4Q385.0 249.1 385.3 248.4Q385.6 247.7 385.6 246.8Q385.6 245.8 385.3 245.2Q385.0 244.5 384.5 244.1Q384.0 243.8 383.2 243.8Q382.5 243.8 382.0 244.1Q381.4 244.5 381.2 245.0Q380.9 245.6 380.9 246.3V247.3Q380.9 248.0 381.2 248.5Q381.4 249.1 382.0 249.5Q382.5 249.8 383.2 249.8Z M392.2 251.2Q391.4 251.2 390.7 251.0Q390.1 250.8 389.6 250.4Q389.1 250.1 388.9 249.6Q388.6 249.1 388.6 248.5H390.3Q390.3 249.0 390.5 249.3Q390.8 249.6 391.2 249.8Q391.7 250.0 392.2 250.0Q393.1 250.0 393.5 249.6Q394.0 249.3 394.0 248.7Q394.0 248.3 393.8 248.0Q393.6 247.8 393.2 247.6Q392.7 247.5 392.0 247.4Q391.0 247.2 390.3 247.0Q389.6 246.7 389.2 246.2Q388.8 245.7 388.8 244.9Q388.8 244.2 389.3 243.6Q389.7 243.0 390.4 242.7Q391.2 242.4 392.2 242.4Q393.2 242.4 393.9 242.7Q394.6 243.0 395.1 243.6Q395.5 244.2 395.5 245.0H393.9Q393.9 244.5 393.6 244.2Q393.4 243.9 393.0 243.7Q392.7 243.6 392.2 243.6Q391.4 243.6 390.9 243.9Q390.5 244.2 390.5 244.8Q390.5 245.2 390.7 245.4Q390.9 245.7 391.4 245.8Q391.9 246.0 392.6 246.1Q393.6 246.2 394.3 246.5Q395.0 246.7 395.3 247.2Q395.7 247.7 395.7 248.6Q395.7 249.4 395.2 250.0Q394.8 250.6 394.0 250.9Q393.2 251.2 392.2 251.2Z" fill="#e6edf3"/><path transform="translate(840 52) scale(0.875)" d="m11.28 3.22 4.25 4.25a.75.75 0 0 1 0 1.06l-4.25 4.25a.749.749 0 0 1-1.275-.326.749.749 0 0 1 .215-.734L13.94 8l-3.72-3.72a.749.749 0 0 1 .326-1.275.749.749 0 0 1 .734.215Zm-6.56 0a.751.751 0 0 1 1.042.018.751.751 0 0 1 .018 1.042L2.06 8l3.72 3.72a.749.749 0 0 1-.326 1.275.749.749 0 0 1-.734-.215L.47 8.53a.75.75 0 0 1 0-1.06Z" fill="#9198a1"/><path d="M866.5 64.1Q865.6 64.1 864.9 63.8Q864.2 63.5 863.7 63.0Q863.2 62.5 862.9 61.7Q862.6 61.0 862.6 60.0Q862.6 59.1 862.9 58.4Q863.2 57.6 863.7 57.1Q864.2 56.5 864.9 56.2Q865.6 55.9 866.5 55.9Q867.5 55.9 868.2 56.3Q869.0 56.6 869.4 57.3Q869.9 57.9 870.0 58.7H868.5Q868.3 58.2 868.1 57.9Q867.8 57.6 867.4 57.4Q867.0 57.2 866.5 57.2Q865.9 57.2 865.5 57.4Q865.1 57.6 864.8 58.0Q864.5 58.4 864.3 58.9Q864.2 59.4 864.2 60.1Q864.2 60.9 864.5 61.6Q864.7 62.2 865.3 62.5Q865.8 62.8 866.5 62.8Q867.0 62.8 867.4 62.6Q867.9 62.4 868.1 62.1Q868.4 61.7 868.5 61.3H870.0Q869.9 62.1 869.4 62.8Q869.0 63.4 868.2 63.8Q867.4 64.1 866.5 64.1Z M874.4 64.1Q873.7 64.1 873.1 63.9Q872.5 63.6 872.0 63.0Q871.6 62.5 871.4 61.8Q871.1 61.0 871.1 60.0Q871.1 58.7 871.6 57.8Q872.0 56.9 872.7 56.4Q873.4 55.9 874.4 55.9Q875.1 55.9 875.6 56.1Q876.2 56.4 876.5 56.7Q876.9 57.1 877.1 57.6H877.2L877.2 56.1H878.7V64.0H877.2L877.2 62.5H877.1Q876.8 63.2 876.1 63.7Q875.4 64.1 874.4 64.1ZM874.9 62.9Q875.7 62.9 876.2 62.5Q876.7 62.2 876.9 61.7Q877.2 61.1 877.2 60.5V59.6Q877.2 58.9 876.9 58.4Q876.6 57.8 876.2 57.5Q875.7 57.2 875.0 57.2Q874.3 57.2 873.8 57.5Q873.3 57.9 873.0 58.5Q872.7 59.1 872.7 60.0Q872.7 60.9 873.0 61.5Q873.2 62.2 873.7 62.5Q874.2 62.9 874.9 62.9Z M880.9 64.0V56.1H882.2L882.3 57.5H882.4Q882.7 56.7 883.3 56.3Q883.9 56.0 884.7 56.0Q884.8 56.0 884.9 56.0Q885.1 56.0 885.2 56.0V57.4Q885.1 57.4 884.9 57.4Q884.8 57.4 884.7 57.4Q884.0 57.4 883.5 57.7Q883.0 57.9 882.7 58.4Q882.4 58.8 882.4 59.5V64.0Z M889.4 64.1Q888.2 64.1 887.4 63.6Q886.6 63.1 886.1 62.2Q885.7 61.3 885.7 60.1Q885.7 58.8 886.1 57.9Q886.6 57.0 887.4 56.4Q888.2 55.9 889.3 55.9Q890.6 55.9 891.4 56.5Q892.2 57.1 892.6 58.1Q892.9 59.0 892.9 60.3H887.2Q887.2 61.2 887.5 61.8Q887.8 62.4 888.3 62.7Q888.7 63.0 889.4 63.0Q890.2 63.0 890.7 62.6Q891.1 62.3 891.3 61.7H892.8Q892.7 62.5 892.2 63.0Q891.7 63.5 891.0 63.8Q890.3 64.1 889.4 64.1ZM887.2 59.5 887.1 59.3H891.5L891.3 59.5Q891.4 58.7 891.1 58.1Q890.9 57.6 890.4 57.4Q889.9 57.1 889.3 57.1Q888.7 57.1 888.2 57.4Q887.8 57.7 887.5 58.2Q887.2 58.7 887.2 59.5Z M897.8 64.1Q896.6 64.1 895.8 63.6Q894.9 63.1 894.5 62.2Q894.1 61.3 894.1 60.1Q894.1 58.8 894.5 57.9Q894.9 57.0 895.8 56.4Q896.6 55.9 897.7 55.9Q899.0 55.9 899.8 56.5Q900.6 57.1 901.0 58.1Q901.3 59.0 901.2 60.3H895.6Q895.6 61.2 895.9 61.8Q896.1 62.4 896.6 62.7Q897.1 63.0 897.8 63.0Q898.5 63.0 899.0 62.6Q899.5 62.3 899.7 61.7H901.1Q901.0 62.5 900.6 63.0Q900.1 63.5 899.4 63.8Q898.7 64.1 897.8 64.1ZM895.6 59.5 895.4 59.3H899.9L899.7 59.5Q899.7 58.7 899.5 58.1Q899.2 57.6 898.8 57.4Q898.3 57.1 897.7 57.1Q897.1 57.1 896.6 57.4Q896.2 57.7 895.9 58.2Q895.6 58.7 895.6 59.5Z M902.8 64.0V56.1H904.2L904.3 57.5H904.4Q904.6 56.7 905.2 56.3Q905.9 56.0 906.7 56.0Q906.8 56.0 906.9 56.0Q907.0 56.0 907.1 56.0V57.4Q907.0 57.4 906.9 57.4Q906.8 57.4 906.6 57.4Q905.9 57.4 905.4 57.7Q904.9 57.9 904.7 58.4Q904.4 58.8 904.4 59.5V64.0Z M907.7 64.1Q907.3 64.1 907.1 63.9Q906.8 63.7 906.8 63.3Q906.8 62.9 907.1 62.7Q907.3 62.5 907.7 62.5Q908.1 62.5 908.3 62.7Q908.6 62.9 908.6 63.3Q908.6 63.7 908.3 63.9Q908.1 64.1 907.7 64.1Z M909.4 66.5V65.2H910.2Q910.6 65.2 910.8 65.1Q911.1 65.0 911.3 64.8Q911.5 64.6 911.6 64.3L912.0 63.1V63.7L908.8 56.1H910.5L912.0 60.3L912.6 62.0H912.7L913.3 60.3L914.7 56.1H916.4L913.0 64.7Q912.8 65.4 912.4 65.8Q912.1 66.2 911.6 66.3Q911.1 66.5 910.5 66.5Z M917.7 64.0V56.1H919.2L919.2 57.6H919.3Q919.7 56.8 920.4 56.4Q921.1 55.9 922.0 55.9Q922.8 55.9 923.5 56.4Q924.2 56.8 924.5 57.8H924.6Q925.0 56.9 925.7 56.4Q926.5 55.9 927.4 55.9Q928.2 55.9 928.8 56.3Q929.5 56.6 929.8 57.3Q930.2 58.1 930.2 59.3V64.0H928.6V59.6Q928.6 58.8 928.5 58.3Q928.3 57.7 927.9 57.5Q927.5 57.2 926.8 57.2Q926.2 57.2 925.7 57.5Q925.2 57.9 925.0 58.4Q924.7 59.0 924.7 59.7V64.0H923.2V59.6Q923.2 58.8 923.0 58.3Q922.8 57.7 922.4 57.5Q922.0 57.2 921.4 57.2Q920.7 57.2 920.2 57.5Q919.8 57.9 919.5 58.4Q919.2 59.0 919.2 59.7V64.0Z M932.2 64.0V53.1H933.7V64.0Z" fill="#9198a1"/><rect x="840" y="82" width="296" height="44" rx="8" fill="#161b22" stroke="#30363d" stroke-width="1.5"/><path transform="translate(856 96.0) scale(1.0)" d="M8 16A8 8 0 1 1 8 0a8 8 0 0 1 0 16Zm3.78-9.72a.751.751 0 0 0-.018-1.042.751.751 0 0 0-1.042-.018L6.75 9.19 5.28 7.72a.751.751 0 0 0-1.042.018.751.751 0 0 0-.018 1.042l2 2a.75.75 0 0 0 1.06 0Z" fill="#3fb950"/><path d="M885.3 109.5V97.8H893.4V99.3H886.7L887.0 99.0V109.5ZM886.5 104.5V103.1H892.8V104.5Z M897.5 109.6Q896.6 109.6 895.9 109.3Q895.2 108.9 894.8 108.1Q894.5 107.4 894.5 106.3V101.0H896.1V105.8Q896.1 106.6 896.3 107.2Q896.5 107.7 897.0 108.0Q897.4 108.3 898.1 108.3Q898.8 108.3 899.4 107.9Q899.9 107.6 900.2 107.0Q900.4 106.4 900.4 105.6V101.0H902.1V109.5H900.5L900.4 107.8H900.4Q900.0 108.7 899.3 109.1Q898.5 109.6 897.5 109.6Z M904.4 109.5V97.8H906.0V109.5Z M908.3 109.5V97.8H910.0V109.5Z M911.9 106.0V104.6H916.7V106.0Z M921.6 109.7Q920.8 109.7 920.2 109.5Q919.5 109.3 919.1 108.9Q918.6 108.6 918.4 108.1Q918.1 107.6 918.1 107.0H919.7Q919.8 107.5 920.0 107.8Q920.3 108.1 920.7 108.3Q921.1 108.5 921.7 108.5Q922.5 108.5 923.0 108.1Q923.5 107.8 923.5 107.2Q923.5 106.8 923.3 106.5Q923.1 106.3 922.6 106.1Q922.2 106.0 921.5 105.9Q920.4 105.7 919.7 105.5Q919.0 105.2 918.7 104.7Q918.3 104.2 918.3 103.4Q918.3 102.7 918.7 102.1Q919.2 101.5 919.9 101.2Q920.7 100.9 921.7 100.9Q922.7 100.9 923.4 101.2Q924.1 101.5 924.5 102.1Q924.9 102.7 925.0 103.5H923.4Q923.3 103.0 923.1 102.7Q922.9 102.4 922.5 102.2Q922.1 102.1 921.6 102.1Q920.8 102.1 920.4 102.4Q920.0 102.7 920.0 103.3Q920.0 103.7 920.2 103.9Q920.4 104.2 920.9 104.3Q921.4 104.5 922.1 104.6Q923.1 104.7 923.8 105.0Q924.4 105.2 924.8 105.7Q925.1 106.2 925.1 107.1Q925.1 107.9 924.7 108.5Q924.3 109.1 923.5 109.4Q922.7 109.7 921.6 109.7Z M929.6 109.5Q928.6 109.5 928.2 109.0Q927.7 108.6 927.7 107.6V102.4H926.1V101.0H927.7V98.6L929.3 98.4V101.0H931.2V102.4H929.3V107.3Q929.3 107.7 929.5 107.9Q929.8 108.1 930.2 108.1H931.2V109.5Z M935.8 109.6Q935.0 109.6 934.3 109.3Q933.7 109.0 933.2 108.5Q932.8 107.9 932.5 107.1Q932.3 106.3 932.3 105.3Q932.3 103.9 932.7 102.9Q933.2 101.9 933.9 101.4Q934.7 100.9 935.8 100.9Q936.5 100.9 937.0 101.1Q937.6 101.3 938.0 101.7Q938.4 102.1 938.6 102.7H938.7L938.8 101.0H940.3V109.5H938.8L938.7 107.9H938.6Q938.3 108.7 937.6 109.1Q936.8 109.6 935.8 109.6ZM936.3 108.3Q937.1 108.3 937.6 107.9Q938.1 107.6 938.4 107.0Q938.7 106.4 938.7 105.7V104.8Q938.7 104.1 938.4 103.5Q938.1 102.9 937.6 102.6Q937.1 102.2 936.4 102.2Q935.6 102.2 935.1 102.6Q934.5 103.0 934.2 103.6Q934.0 104.3 934.0 105.3Q934.0 106.2 934.2 106.9Q934.5 107.6 935.0 107.9Q935.6 108.3 936.3 108.3Z M946.2 109.6Q945.3 109.6 944.6 109.3Q943.8 109.0 943.3 108.4Q942.7 107.9 942.4 107.1Q942.1 106.3 942.1 105.3Q942.1 104.3 942.4 103.5Q942.7 102.7 943.3 102.1Q943.8 101.5 944.6 101.2Q945.4 100.9 946.3 100.9Q947.3 100.9 948.1 101.3Q948.9 101.6 949.4 102.3Q949.9 103.0 950.0 103.9H948.4Q948.3 103.3 948.0 103.0Q947.6 102.6 947.2 102.5Q946.8 102.3 946.3 102.3Q945.7 102.3 945.2 102.5Q944.8 102.7 944.4 103.1Q944.1 103.5 944.0 104.1Q943.8 104.6 943.8 105.3Q943.8 106.2 944.1 106.9Q944.4 107.6 945.0 107.9Q945.5 108.3 946.2 108.3Q946.8 108.3 947.3 108.1Q947.7 107.8 948.0 107.5Q948.3 107.1 948.4 106.6H950.0Q949.9 107.5 949.4 108.2Q948.9 108.9 948.1 109.3Q947.3 109.6 946.2 109.6Z M951.7 109.5V97.8H953.4V105.1L954.1 104.3L957.3 101.0H959.3L956.0 104.3L959.4 109.5H957.5L955.4 106.3L954.9 105.5L953.4 106.9V109.5Z M967.5 109.6Q966.7 109.6 966.1 109.3Q965.4 109.0 964.9 108.5Q964.5 107.9 964.2 107.1Q964.0 106.3 964.0 105.3Q964.0 103.9 964.4 102.9Q964.9 101.9 965.6 101.4Q966.4 100.9 967.5 100.9Q968.2 100.9 968.8 101.1Q969.3 101.3 969.7 101.7Q970.1 102.1 970.3 102.7H970.4L970.5 101.0H972.0V109.5H970.5L970.4 107.9H970.3Q970.0 108.7 969.3 109.1Q968.5 109.6 967.5 109.6ZM968.0 108.3Q968.8 108.3 969.3 107.9Q969.9 107.6 970.1 107.0Q970.4 106.4 970.4 105.7V104.8Q970.4 104.1 970.1 103.5Q969.8 102.9 969.3 102.6Q968.8 102.2 968.1 102.2Q967.3 102.2 966.8 102.6Q966.2 103.0 966.0 103.6Q965.7 104.3 965.7 105.3Q965.7 106.2 966.0 106.9Q966.2 107.6 966.8 107.9Q967.3 108.3 968.0 108.3Z M974.4 112.2V101.0H975.9L976.0 102.7H976.1Q976.4 101.9 977.1 101.4Q977.9 100.9 978.9 100.9Q979.7 100.9 980.3 101.2Q981.0 101.5 981.4 102.1Q981.9 102.6 982.2 103.4Q982.4 104.3 982.4 105.3Q982.4 106.7 982.0 107.6Q981.5 108.6 980.8 109.1Q980.0 109.6 978.9 109.6Q978.2 109.6 977.6 109.4Q977.1 109.2 976.7 108.8Q976.3 108.4 976.1 107.9H976.0V112.2ZM978.3 108.3Q979.1 108.3 979.6 107.9Q980.1 107.6 980.4 106.9Q980.7 106.2 980.7 105.3Q980.7 104.3 980.4 103.7Q980.2 103.0 979.6 102.6Q979.1 102.3 978.4 102.3Q977.6 102.3 977.1 102.6Q976.5 103.0 976.3 103.5Q976.0 104.1 976.0 104.8V105.8Q976.0 106.5 976.3 107.0Q976.5 107.6 977.1 108.0Q977.6 108.3 978.3 108.3Z M984.3 112.2V101.0H985.8L985.9 102.7H986.0Q986.3 101.9 987.0 101.4Q987.8 100.9 988.8 100.9Q989.6 100.9 990.2 101.2Q990.9 101.5 991.3 102.1Q991.8 102.6 992.1 103.4Q992.3 104.3 992.3 105.3Q992.3 106.7 991.9 107.6Q991.4 108.6 990.7 109.1Q989.9 109.6 988.8 109.6Q988.1 109.6 987.6 109.4Q987.0 109.2 986.6 108.8Q986.2 108.4 986.0 107.9H985.9V112.2ZM988.2 108.3Q989.0 108.3 989.5 107.9Q990.0 107.6 990.3 106.9Q990.6 106.2 990.6 105.3Q990.6 104.3 990.3 103.7Q990.1 103.0 989.5 102.6Q989.0 102.3 988.3 102.3Q987.5 102.3 987.0 102.6Q986.4 103.0 986.2 103.5Q985.9 104.1 985.9 104.8V105.8Q985.9 106.5 986.2 107.0Q986.4 107.6 987.0 108.0Q987.5 108.3 988.2 108.3Z M997.2 109.7Q996.4 109.7 995.7 109.5Q995.1 109.3 994.6 108.9Q994.2 108.6 993.9 108.1Q993.7 107.6 993.6 107.0H995.3Q995.3 107.5 995.6 107.8Q995.8 108.1 996.2 108.3Q996.7 108.5 997.2 108.5Q998.1 108.5 998.6 108.1Q999.0 107.8 999.0 107.2Q999.0 106.8 998.8 106.5Q998.6 106.3 998.2 106.1Q997.7 106.0 997.0 105.9Q996.0 105.7 995.3 105.5Q994.6 105.2 994.2 104.7Q993.9 104.2 993.9 103.4Q993.9 102.7 994.3 102.1Q994.7 101.5 995.5 101.2Q996.2 100.9 997.2 100.9Q998.2 100.9 998.9 101.2Q999.7 101.5 1000.1 102.1Q1000.5 102.7 1000.5 103.5H998.9Q998.9 103.0 998.7 102.7Q998.4 102.4 998.1 102.2Q997.7 102.1 997.2 102.1Q996.4 102.1 996.0 102.4Q995.5 102.7 995.5 103.3Q995.5 103.7 995.7 103.9Q996.0 104.2 996.4 104.3Q996.9 104.5 997.6 104.6Q998.6 104.7 999.3 105.0Q1000.0 105.2 1000.3 105.7Q1000.7 106.2 1000.7 107.1Q1000.7 107.9 1000.3 108.5Q999.8 109.1 999.0 109.4Q998.2 109.7 997.2 109.7Z" fill="#e6edf3"/><path d="M1071.3 109.1Q1070.6 109.1 1070.0 109.0Q1069.5 108.8 1069.1 108.5Q1068.7 108.2 1068.5 107.8Q1068.3 107.3 1068.3 106.8H1069.4Q1069.4 107.3 1069.7 107.6Q1069.9 108.0 1070.3 108.1Q1070.8 108.3 1071.3 108.3Q1072.2 108.3 1072.6 108.0Q1073.1 107.6 1073.1 107.1Q1073.1 106.6 1072.9 106.4Q1072.7 106.1 1072.3 106.0Q1071.9 105.8 1071.2 105.7Q1070.3 105.6 1069.7 105.4Q1069.1 105.2 1068.8 104.8Q1068.5 104.3 1068.5 103.7Q1068.5 103.0 1068.8 102.5Q1069.2 102.1 1069.8 101.8Q1070.4 101.5 1071.3 101.5Q1072.1 101.5 1072.8 101.8Q1073.4 102.1 1073.7 102.6Q1074.1 103.0 1074.1 103.7H1073.0Q1072.9 103.2 1072.7 102.9Q1072.5 102.6 1072.1 102.5Q1071.8 102.4 1071.3 102.4Q1070.5 102.4 1070.0 102.7Q1069.6 103.0 1069.6 103.6Q1069.6 104.0 1069.8 104.2Q1070.0 104.5 1070.5 104.6Q1070.9 104.7 1071.6 104.8Q1072.4 104.9 1073.0 105.2Q1073.6 105.4 1073.9 105.8Q1074.2 106.2 1074.2 107.0Q1074.2 107.7 1073.9 108.1Q1073.5 108.6 1072.8 108.9Q1072.2 109.1 1071.3 109.1Z M1075.9 109.0V98.8H1077.0V103.2H1077.1Q1077.4 102.4 1078.1 102.0Q1078.8 101.5 1079.7 101.5Q1080.2 101.5 1080.7 101.7Q1081.2 101.9 1081.6 102.3Q1081.9 102.6 1082.1 103.2Q1082.3 103.8 1082.3 104.7V109.0H1081.2V104.9Q1081.2 104.1 1081.0 103.5Q1080.8 103.0 1080.4 102.7Q1079.9 102.5 1079.3 102.5Q1078.6 102.5 1078.1 102.8Q1077.6 103.2 1077.3 103.7Q1077.0 104.3 1077.0 105.0V109.0Z M1084.3 109.0V101.7H1085.4V109.0ZM1084.9 100.4Q1084.6 100.4 1084.4 100.2Q1084.2 100.0 1084.2 99.7Q1084.2 99.5 1084.4 99.3Q1084.6 99.1 1084.9 99.1Q1085.2 99.1 1085.4 99.3Q1085.6 99.5 1085.6 99.7Q1085.6 100.0 1085.4 100.2Q1085.2 100.4 1084.9 100.4Z M1087.6 111.3V101.7H1088.6L1088.7 103.2H1088.8Q1089.0 102.4 1089.7 102.0Q1090.4 101.5 1091.3 101.5Q1092.0 101.5 1092.6 101.8Q1093.1 102.1 1093.5 102.5Q1093.9 103.0 1094.1 103.7Q1094.4 104.5 1094.4 105.3Q1094.4 106.5 1094.0 107.4Q1093.6 108.2 1092.9 108.7Q1092.2 109.1 1091.3 109.1Q1090.7 109.1 1090.2 108.9Q1089.6 108.7 1089.3 108.3Q1088.9 108.0 1088.8 107.5H1088.7V111.3ZM1090.9 108.2Q1091.7 108.2 1092.2 107.9Q1092.7 107.5 1092.9 106.9Q1093.2 106.2 1093.2 105.3Q1093.2 104.4 1092.9 103.8Q1092.7 103.2 1092.2 102.8Q1091.7 102.5 1091.0 102.5Q1090.2 102.5 1089.7 102.8Q1089.2 103.1 1089.0 103.7Q1088.7 104.3 1088.7 104.9V105.8Q1088.7 106.4 1089.0 107.0Q1089.2 107.5 1089.7 107.9Q1090.2 108.2 1090.9 108.2Z M1096.1 111.3V101.7H1097.2L1097.2 103.2H1097.3Q1097.5 102.4 1098.2 102.0Q1098.9 101.5 1099.9 101.5Q1100.5 101.5 1101.1 101.8Q1101.7 102.1 1102.1 102.5Q1102.5 103.0 1102.7 103.7Q1102.9 104.5 1102.9 105.3Q1102.9 106.5 1102.5 107.4Q1102.2 108.2 1101.5 108.7Q1100.8 109.1 1099.9 109.1Q1099.2 109.1 1098.7 108.9Q1098.2 108.7 1097.8 108.3Q1097.5 108.0 1097.3 107.5H1097.2V111.3ZM1099.5 108.2Q1100.2 108.2 1100.7 107.9Q1101.2 107.5 1101.5 106.9Q1101.8 106.2 1101.8 105.3Q1101.8 104.4 1101.5 103.8Q1101.2 103.2 1100.7 102.8Q1100.2 102.5 1099.5 102.5Q1098.8 102.5 1098.3 102.8Q1097.8 103.1 1097.5 103.7Q1097.2 104.3 1097.2 104.9V105.8Q1097.2 106.4 1097.5 107.0Q1097.8 107.5 1098.3 107.9Q1098.8 108.2 1099.5 108.2Z M1107.7 109.1Q1106.7 109.1 1105.9 108.7Q1105.2 108.2 1104.8 107.3Q1104.4 106.5 1104.4 105.4Q1104.4 104.2 1104.8 103.3Q1105.2 102.5 1105.9 102.0Q1106.6 101.5 1107.7 101.5Q1108.8 101.5 1109.5 102.0Q1110.3 102.5 1110.6 103.4Q1110.9 104.3 1110.8 105.5H1105.5Q1105.5 106.4 1105.8 107.0Q1106.1 107.6 1106.6 107.9Q1107.1 108.2 1107.7 108.2Q1108.5 108.2 1109.0 107.9Q1109.5 107.5 1109.7 106.9H1110.8Q1110.7 107.6 1110.2 108.1Q1109.8 108.6 1109.2 108.9Q1108.5 109.1 1107.7 109.1ZM1105.5 104.9 1105.4 104.7H1109.9L1109.7 104.9Q1109.8 104.0 1109.5 103.5Q1109.2 102.9 1108.8 102.7Q1108.3 102.4 1107.7 102.4Q1107.0 102.4 1106.6 102.7Q1106.1 103.0 1105.8 103.5Q1105.6 104.1 1105.5 104.9Z M1115.2 109.1Q1114.5 109.1 1113.9 108.9Q1113.4 108.6 1113.0 108.1Q1112.6 107.6 1112.3 106.9Q1112.1 106.2 1112.1 105.3Q1112.1 104.1 1112.5 103.3Q1112.9 102.4 1113.6 102.0Q1114.3 101.5 1115.2 101.5Q1115.8 101.5 1116.3 101.7Q1116.9 101.9 1117.2 102.3Q1117.6 102.7 1117.7 103.2H1117.8V98.8H1118.9V109.0H1117.9L1117.8 107.5H1117.7Q1117.5 108.2 1116.8 108.7Q1116.1 109.1 1115.2 109.1ZM1115.5 108.2Q1116.3 108.2 1116.8 107.8Q1117.3 107.5 1117.5 106.9Q1117.8 106.4 1117.8 105.8V104.9Q1117.8 104.2 1117.5 103.7Q1117.3 103.1 1116.8 102.8Q1116.3 102.5 1115.5 102.5Q1114.8 102.5 1114.3 102.8Q1113.8 103.1 1113.6 103.8Q1113.3 104.4 1113.3 105.3Q1113.3 106.2 1113.6 106.8Q1113.8 107.5 1114.3 107.8Q1114.8 108.2 1115.5 108.2Z" fill="#9198a1"/><line x1="864" y1="126" x2="864" y2="140" stroke="#30363d" stroke-width="2"/><rect x="840" y="140" width="296" height="44" rx="8" fill="#161b22" stroke="#30363d" stroke-width="1.5"/><circle cx="864" cy="162.0" r="7" fill="none" stroke="#d29922" stroke-opacity=".3" stroke-width="2"/><circle class="spin" cx="864" cy="162.0" r="7" fill="none" stroke="#d29922" stroke-width="2" stroke-linecap="round" stroke-dasharray="14 40"/><path d="M885.3 167.5V155.8H888.0L890.3 162.2L891.2 165.2H891.3L892.1 162.2L894.4 155.8H897.2V167.5H895.5V161.6L895.5 157.4H895.4L894.1 161.3L892.0 167.5H890.4L888.3 161.4L887.0 157.4H886.9L887.0 161.6V167.5Z M902.6 167.6Q901.8 167.6 901.2 167.3Q900.5 167.0 900.1 166.5Q899.6 165.9 899.4 165.1Q899.1 164.3 899.1 163.3Q899.1 161.9 899.5 160.9Q900.0 159.9 900.8 159.4Q901.6 158.9 902.6 158.9Q903.3 158.9 903.9 159.1Q904.4 159.3 904.9 159.7Q905.3 160.1 905.4 160.7H905.5L905.6 159.0H907.2V167.5H905.6L905.5 165.9H905.4Q905.2 166.7 904.4 167.1Q903.6 167.6 902.6 167.6ZM903.2 166.3Q903.9 166.3 904.4 165.9Q905.0 165.6 905.2 165.0Q905.5 164.4 905.5 163.7V162.8Q905.5 162.1 905.2 161.5Q905.0 160.9 904.4 160.6Q903.9 160.2 903.2 160.2Q902.4 160.2 901.9 160.6Q901.4 161.0 901.1 161.6Q900.8 162.3 900.8 163.3Q900.8 164.2 901.1 164.9Q901.3 165.6 901.9 165.9Q902.4 166.3 903.2 166.3Z M913.1 167.6Q912.1 167.6 911.4 167.3Q910.6 167.0 910.1 166.4Q909.6 165.9 909.3 165.1Q909.0 164.3 909.0 163.3Q909.0 162.3 909.3 161.5Q909.6 160.7 910.1 160.1Q910.7 159.5 911.4 159.2Q912.2 158.9 913.1 158.9Q914.1 158.9 914.9 159.3Q915.7 159.6 916.2 160.3Q916.7 161.0 916.8 161.9H915.2Q915.1 161.3 914.8 161.0Q914.5 160.6 914.0 160.5Q913.6 160.3 913.1 160.3Q912.5 160.3 912.0 160.5Q911.6 160.7 911.3 161.1Q911.0 161.5 910.8 162.1Q910.6 162.6 910.6 163.3Q910.6 164.2 910.9 164.9Q911.2 165.6 911.8 165.9Q912.3 166.3 913.1 166.3Q913.7 166.3 914.1 166.1Q914.6 165.8 914.9 165.5Q915.2 165.1 915.2 164.6H916.8Q916.8 165.5 916.2 166.2Q915.7 166.9 914.9 167.3Q914.1 167.6 913.1 167.6Z M918.5 167.5V155.8H920.2V160.7H920.3Q920.6 159.8 921.4 159.4Q922.2 158.9 923.1 158.9Q923.8 158.9 924.3 159.1Q924.9 159.3 925.3 159.7Q925.7 160.1 925.9 160.8Q926.2 161.5 926.2 162.5V167.5H924.5V162.8Q924.5 161.9 924.3 161.4Q924.1 160.8 923.7 160.5Q923.2 160.3 922.5 160.3Q921.8 160.3 921.3 160.6Q920.8 161.0 920.5 161.6Q920.2 162.1 920.2 162.9V167.5Z M928.3 167.5V159.0H930.0V167.5ZM929.1 157.7Q928.7 157.7 928.4 157.5Q928.2 157.3 928.2 156.9Q928.2 156.5 928.4 156.3Q928.7 156.0 929.1 156.0Q929.6 156.0 929.8 156.3Q930.1 156.5 930.1 156.9Q930.1 157.3 929.8 157.5Q929.6 157.7 929.1 157.7Z M932.2 167.5V159.0H933.8L933.9 160.7H934.0Q934.3 159.8 935.1 159.4Q935.9 158.9 936.8 158.9Q937.5 158.9 938.0 159.1Q938.6 159.3 939.0 159.7Q939.4 160.1 939.6 160.8Q939.9 161.5 939.9 162.5V167.5H938.2V162.8Q938.2 161.9 938.0 161.4Q937.8 160.8 937.4 160.5Q936.9 160.3 936.2 160.3Q935.5 160.3 935.0 160.6Q934.4 161.0 934.2 161.6Q933.9 162.1 933.9 162.9V167.5Z M945.5 167.6Q944.3 167.6 943.4 167.1Q942.5 166.6 942.0 165.6Q941.6 164.6 941.6 163.3Q941.6 162.0 942.0 161.0Q942.5 160.0 943.4 159.4Q944.2 158.9 945.5 158.9Q946.8 158.9 947.7 159.5Q948.5 160.1 948.9 161.2Q949.3 162.2 949.2 163.6H943.2Q943.2 164.5 943.5 165.1Q943.8 165.8 944.3 166.1Q944.8 166.4 945.5 166.4Q946.3 166.4 946.9 166.0Q947.4 165.6 947.6 165.0H949.1Q949.0 165.9 948.5 166.4Q948.0 167.0 947.2 167.3Q946.5 167.6 945.5 167.6ZM943.2 162.7 943.0 162.5H947.7L947.6 162.7Q947.6 161.8 947.3 161.3Q947.1 160.7 946.6 160.4Q946.1 160.2 945.5 160.2Q944.8 160.2 944.3 160.5Q943.8 160.7 943.5 161.3Q943.2 161.9 943.2 162.7Z M954.5 167.5V155.8H956.2V167.5Z M961.8 167.6Q960.6 167.6 959.7 167.1Q958.8 166.6 958.4 165.6Q957.9 164.6 957.9 163.3Q957.9 162.0 958.4 161.0Q958.8 160.0 959.7 159.4Q960.6 158.9 961.8 158.9Q963.1 158.9 964.0 159.5Q964.8 160.1 965.2 161.2Q965.6 162.2 965.5 163.6H959.5Q959.5 164.5 959.8 165.1Q960.1 165.8 960.6 166.1Q961.1 166.4 961.8 166.4Q962.7 166.4 963.2 166.0Q963.7 165.6 963.9 165.0H965.4Q965.3 165.9 964.8 166.4Q964.3 167.0 963.6 167.3Q962.8 167.6 961.8 167.6ZM959.5 162.7 959.4 162.5H964.1L963.9 162.7Q963.9 161.8 963.7 161.3Q963.4 160.7 962.9 160.4Q962.4 160.2 961.8 160.2Q961.1 160.2 960.6 160.5Q960.1 160.7 959.8 161.3Q959.5 161.9 959.5 162.7Z M970.4 167.6Q969.6 167.6 969.0 167.3Q968.3 167.0 967.9 166.5Q967.4 165.9 967.1 165.1Q966.9 164.3 966.9 163.3Q966.9 161.9 967.3 160.9Q967.8 159.9 968.6 159.4Q969.3 158.9 970.4 158.9Q971.1 158.9 971.7 159.1Q972.2 159.3 972.6 159.7Q973.1 160.1 973.2 160.7H973.3L973.4 159.0H975.0V167.5H973.4L973.3 165.9H973.2Q972.9 166.7 972.2 167.1Q971.4 167.6 970.4 167.6ZM970.9 166.3Q971.7 166.3 972.2 165.9Q972.8 165.6 973.0 165.0Q973.3 164.4 973.3 163.7V162.8Q973.3 162.1 973.0 161.5Q972.8 160.9 972.2 160.6Q971.7 160.2 971.0 160.2Q970.2 160.2 969.7 160.6Q969.2 161.0 968.9 161.6Q968.6 162.3 968.6 163.3Q968.6 164.2 968.9 164.9Q969.1 165.6 969.7 165.9Q970.2 166.3 970.9 166.3Z M977.3 167.5V159.0H978.7L978.8 160.5H978.9Q979.2 159.7 979.8 159.3Q980.5 158.9 981.3 158.9Q981.5 158.9 981.6 158.9Q981.7 158.9 981.8 159.0V160.5Q981.7 160.5 981.6 160.5Q981.5 160.5 981.3 160.5Q980.6 160.5 980.0 160.7Q979.5 161.0 979.2 161.5Q978.9 162.0 978.9 162.7V167.5Z M983.3 167.5V159.0H984.9L985.0 160.7H985.1Q985.4 159.8 986.2 159.4Q987.0 158.9 987.9 158.9Q988.6 158.9 989.1 159.1Q989.7 159.3 990.1 159.7Q990.5 160.1 990.7 160.8Q990.9 161.5 990.9 162.5V167.5H989.3V162.8Q989.3 161.9 989.1 161.4Q988.9 160.8 988.4 160.5Q988.0 160.3 987.3 160.3Q986.6 160.3 986.1 160.6Q985.5 161.0 985.2 161.6Q985.0 162.1 985.0 162.9V167.5Z M993.1 167.5V159.0H994.7V167.5ZM993.9 157.7Q993.5 157.7 993.2 157.5Q993.0 157.3 993.0 156.9Q993.0 156.5 993.2 156.3Q993.5 156.0 993.9 156.0Q994.3 156.0 994.6 156.3Q994.9 156.5 994.9 156.9Q994.9 157.3 994.6 157.5Q994.3 157.7 993.9 157.7Z M997.0 167.5V159.0H998.6L998.7 160.7H998.8Q999.1 159.8 999.9 159.4Q1000.7 158.9 1001.6 158.9Q1002.3 158.9 1002.8 159.1Q1003.4 159.3 1003.8 159.7Q1004.2 160.1 1004.4 160.8Q1004.6 161.5 1004.6 162.5V167.5H1003.0V162.8Q1003.0 161.9 1002.8 161.4Q1002.6 160.8 1002.1 160.5Q1001.7 160.3 1001.0 160.3Q1000.3 160.3 999.8 160.6Q999.2 161.0 998.9 161.6Q998.7 162.1 998.7 162.9V167.5Z M1010.2 170.3Q1009.2 170.3 1008.5 170.0Q1007.7 169.7 1007.3 169.2Q1006.8 168.7 1006.7 167.9H1008.3Q1008.4 168.3 1008.6 168.5Q1008.9 168.8 1009.3 169.0Q1009.7 169.1 1010.3 169.1Q1011.1 169.1 1011.6 168.9Q1012.1 168.7 1012.3 168.2Q1012.6 167.7 1012.6 167.0V165.5H1012.5Q1012.2 166.3 1011.5 166.7Q1010.8 167.2 1009.8 167.2Q1009.0 167.2 1008.4 166.9Q1007.8 166.6 1007.4 166.1Q1006.9 165.5 1006.7 164.8Q1006.4 164.0 1006.4 163.0Q1006.4 161.7 1006.9 160.8Q1007.3 159.9 1008.0 159.4Q1008.8 158.9 1009.8 158.9Q1010.8 158.9 1011.5 159.3Q1012.2 159.8 1012.5 160.6H1012.6L1012.6 159.0H1014.2V166.7Q1014.2 168.0 1013.7 168.8Q1013.2 169.6 1012.4 170.0Q1011.5 170.3 1010.2 170.3ZM1010.4 165.8Q1011.1 165.8 1011.6 165.5Q1012.1 165.2 1012.3 164.6Q1012.6 164.1 1012.6 163.5V162.6Q1012.6 161.9 1012.3 161.4Q1012.0 160.9 1011.6 160.5Q1011.1 160.2 1010.4 160.2Q1009.7 160.2 1009.2 160.6Q1008.7 160.9 1008.4 161.5Q1008.1 162.2 1008.1 163.0Q1008.1 163.9 1008.4 164.5Q1008.6 165.1 1009.1 165.5Q1009.6 165.8 1010.4 165.8Z" fill="#e6edf3"/><path d="M1049.2 167.0V159.7H1050.3V167.0ZM1049.8 158.4Q1049.5 158.4 1049.3 158.2Q1049.1 158.0 1049.1 157.7Q1049.1 157.5 1049.3 157.3Q1049.5 157.1 1049.8 157.1Q1050.1 157.1 1050.3 157.3Q1050.5 157.5 1050.5 157.7Q1050.5 158.0 1050.3 158.2Q1050.1 158.4 1049.8 158.4Z M1052.5 167.0V159.7H1053.5L1053.6 161.2H1053.7Q1054.0 160.4 1054.7 160.0Q1055.4 159.5 1056.2 159.5Q1056.8 159.5 1057.3 159.7Q1057.8 159.9 1058.1 160.3Q1058.5 160.6 1058.7 161.2Q1058.9 161.8 1058.9 162.7V167.0H1057.7V162.9Q1057.7 162.1 1057.5 161.5Q1057.3 161.0 1056.9 160.7Q1056.5 160.5 1055.9 160.5Q1055.2 160.5 1054.7 160.8Q1054.1 161.2 1053.9 161.7Q1053.6 162.3 1053.6 163.0V167.0Z M1064.1 169.3V159.7H1065.1L1065.2 161.2H1065.3Q1065.5 160.4 1066.2 160.0Q1066.9 159.5 1067.8 159.5Q1068.5 159.5 1069.1 159.8Q1069.6 160.1 1070.0 160.5Q1070.4 161.0 1070.7 161.7Q1070.9 162.4 1070.9 163.3Q1070.9 164.5 1070.5 165.4Q1070.1 166.2 1069.4 166.7Q1068.7 167.1 1067.8 167.1Q1067.2 167.1 1066.7 166.9Q1066.2 166.7 1065.8 166.3Q1065.4 166.0 1065.3 165.5H1065.2V169.3ZM1067.4 166.2Q1068.2 166.2 1068.7 165.9Q1069.2 165.5 1069.4 164.9Q1069.7 164.2 1069.7 163.3Q1069.7 162.4 1069.5 161.8Q1069.2 161.2 1068.7 160.8Q1068.2 160.5 1067.5 160.5Q1066.7 160.5 1066.2 160.8Q1065.7 161.1 1065.5 161.7Q1065.2 162.3 1065.2 162.9V163.8Q1065.2 164.4 1065.5 165.0Q1065.7 165.5 1066.2 165.9Q1066.7 166.2 1067.4 166.2Z M1072.6 167.0V159.7H1073.6L1073.7 161.0H1073.7Q1074.0 160.3 1074.6 159.9Q1075.2 159.6 1075.9 159.6Q1076.1 159.6 1076.2 159.6Q1076.3 159.6 1076.4 159.6V160.7Q1076.3 160.6 1076.2 160.6Q1076.1 160.6 1075.9 160.6Q1075.3 160.6 1074.8 160.9Q1074.3 161.1 1074.1 161.5Q1073.8 162.0 1073.7 162.6V167.0Z M1080.5 167.1Q1079.7 167.1 1079.0 166.9Q1078.4 166.6 1077.9 166.1Q1077.4 165.6 1077.2 164.9Q1076.9 164.2 1076.9 163.3Q1076.9 162.2 1077.4 161.4Q1077.8 160.5 1078.6 160.0Q1079.4 159.5 1080.5 159.5Q1081.3 159.5 1081.9 159.8Q1082.6 160.1 1083.0 160.6Q1083.5 161.1 1083.8 161.8Q1084.0 162.5 1084.0 163.3Q1084.0 164.5 1083.6 165.3Q1083.2 166.2 1082.4 166.6Q1081.6 167.1 1080.5 167.1ZM1080.5 166.1Q1081.2 166.1 1081.7 165.8Q1082.3 165.5 1082.6 164.9Q1082.9 164.2 1082.9 163.3Q1082.9 162.7 1082.7 162.1Q1082.5 161.6 1082.2 161.3Q1081.9 160.9 1081.5 160.7Q1081.0 160.5 1080.5 160.5Q1079.8 160.5 1079.2 160.8Q1078.7 161.2 1078.4 161.8Q1078.1 162.4 1078.1 163.3Q1078.1 164.0 1078.2 164.5Q1078.4 165.0 1078.7 165.4Q1079.0 165.8 1079.5 166.0Q1079.9 166.1 1080.5 166.1Z M1088.8 169.5Q1087.9 169.5 1087.3 169.2Q1086.7 169.0 1086.3 168.5Q1085.9 168.1 1085.8 167.4H1086.9Q1087.0 167.8 1087.2 168.1Q1087.5 168.3 1087.9 168.5Q1088.3 168.6 1088.8 168.6Q1089.5 168.6 1090.0 168.4Q1090.5 168.2 1090.8 167.7Q1091.0 167.3 1091.0 166.6V165.2H1090.9Q1090.7 165.9 1090.0 166.3Q1089.4 166.7 1088.5 166.7Q1087.8 166.7 1087.3 166.5Q1086.7 166.3 1086.4 165.8Q1086.0 165.3 1085.8 164.6Q1085.5 164.0 1085.5 163.1Q1085.5 162.0 1085.9 161.2Q1086.3 160.4 1086.9 159.9Q1087.6 159.5 1088.5 159.5Q1089.4 159.5 1090.0 159.9Q1090.7 160.3 1090.9 161.1H1091.0L1091.0 159.7H1092.1V166.4Q1092.1 167.5 1091.7 168.2Q1091.3 168.8 1090.6 169.2Q1089.8 169.5 1088.8 169.5ZM1088.8 165.8Q1089.5 165.8 1090.0 165.5Q1090.5 165.2 1090.7 164.7Q1091.0 164.1 1091.0 163.5V162.7Q1091.0 162.1 1090.7 161.6Q1090.5 161.1 1090.0 160.8Q1089.5 160.5 1088.9 160.5Q1088.2 160.5 1087.7 160.8Q1087.2 161.1 1087.0 161.7Q1086.7 162.3 1086.7 163.1Q1086.7 164.0 1087.0 164.6Q1087.2 165.2 1087.7 165.5Q1088.2 165.8 1088.8 165.8Z M1094.3 167.0V159.7H1095.3L1095.3 161.0H1095.4Q1095.6 160.3 1096.2 159.9Q1096.8 159.6 1097.6 159.6Q1097.7 159.6 1097.8 159.6Q1097.9 159.6 1098.0 159.6V160.7Q1097.9 160.6 1097.8 160.6Q1097.7 160.6 1097.6 160.6Q1096.9 160.6 1096.5 160.9Q1096.0 161.1 1095.7 161.5Q1095.4 162.0 1095.4 162.6V167.0Z M1101.8 167.1Q1100.8 167.1 1100.0 166.7Q1099.3 166.2 1098.9 165.3Q1098.5 164.5 1098.5 163.4Q1098.5 162.2 1098.9 161.3Q1099.3 160.5 1100.0 160.0Q1100.7 159.5 1101.8 159.5Q1102.9 159.5 1103.6 160.0Q1104.4 160.5 1104.7 161.4Q1105.0 162.3 1104.9 163.5H1099.6Q1099.6 164.4 1099.9 165.0Q1100.2 165.6 1100.7 165.9Q1101.2 166.2 1101.8 166.2Q1102.6 166.2 1103.1 165.9Q1103.6 165.5 1103.8 164.9H1104.9Q1104.8 165.6 1104.3 166.1Q1103.9 166.6 1103.3 166.9Q1102.6 167.1 1101.8 167.1ZM1099.6 162.9 1099.5 162.7H1104.0L1103.8 162.9Q1103.8 162.0 1103.6 161.5Q1103.3 160.9 1102.9 160.7Q1102.4 160.4 1101.8 160.4Q1101.1 160.4 1100.7 160.7Q1100.2 161.0 1099.9 161.5Q1099.6 162.1 1099.6 162.9Z M1109.1 167.1Q1108.5 167.1 1107.9 167.0Q1107.4 166.8 1107.0 166.5Q1106.6 166.2 1106.4 165.8Q1106.2 165.3 1106.2 164.8H1107.3Q1107.3 165.3 1107.5 165.6Q1107.8 166.0 1108.2 166.1Q1108.6 166.3 1109.2 166.3Q1110.0 166.3 1110.5 166.0Q1110.9 165.6 1110.9 165.1Q1110.9 164.6 1110.7 164.4Q1110.5 164.1 1110.1 164.0Q1109.7 163.8 1109.1 163.7Q1108.2 163.6 1107.6 163.4Q1107.0 163.2 1106.7 162.8Q1106.3 162.3 1106.3 161.7Q1106.3 161.0 1106.7 160.5Q1107.0 160.1 1107.7 159.8Q1108.3 159.5 1109.1 159.5Q1110.0 159.5 1110.6 159.8Q1111.2 160.1 1111.6 160.6Q1111.9 161.1 1111.9 161.7H1110.8Q1110.8 161.2 1110.6 160.9Q1110.4 160.6 1110.0 160.5Q1109.6 160.4 1109.1 160.4Q1108.4 160.4 1107.9 160.7Q1107.5 161.0 1107.5 161.6Q1107.5 162.0 1107.7 162.2Q1107.9 162.4 1108.3 162.6Q1108.8 162.7 1109.5 162.8Q1110.3 162.9 1110.9 163.1Q1111.5 163.4 1111.8 163.8Q1112.1 164.2 1112.1 165.0Q1112.1 165.7 1111.7 166.1Q1111.4 166.6 1110.7 166.9Q1110.0 167.1 1109.1 167.1Z M1116.4 167.1Q1115.8 167.1 1115.2 167.0Q1114.7 166.8 1114.3 166.5Q1113.9 166.2 1113.7 165.8Q1113.5 165.3 1113.4 164.8H1114.6Q1114.6 165.3 1114.8 165.6Q1115.1 166.0 1115.5 166.1Q1115.9 166.3 1116.5 166.3Q1117.3 166.3 1117.8 166.0Q1118.2 165.6 1118.2 165.1Q1118.2 164.6 1118.0 164.4Q1117.8 164.1 1117.4 164.0Q1117.0 163.8 1116.4 163.7Q1115.5 163.6 1114.9 163.4Q1114.3 163.2 1114.0 162.8Q1113.6 162.3 1113.6 161.7Q1113.6 161.0 1114.0 160.5Q1114.3 160.1 1115.0 159.8Q1115.6 159.5 1116.4 159.5Q1117.3 159.5 1117.9 159.8Q1118.5 160.1 1118.9 160.6Q1119.2 161.1 1119.2 161.7H1118.1Q1118.1 161.2 1117.9 160.9Q1117.7 160.6 1117.3 160.5Q1116.9 160.4 1116.4 160.4Q1115.6 160.4 1115.2 160.7Q1114.8 161.0 1114.8 161.6Q1114.8 162.0 1115.0 162.2Q1115.2 162.4 1115.6 162.6Q1116.1 162.7 1116.8 162.8Q1117.6 162.9 1118.2 163.1Q1118.8 163.4 1119.1 163.8Q1119.4 164.2 1119.4 165.0Q1119.4 165.7 1119.0 166.1Q1118.7 166.6 1118.0 166.9Q1117.3 167.1 1116.4 167.1Z" fill="#9198a1"/><line x1="864" y1="184" x2="864" y2="198" stroke="#30363d" stroke-width="2"/><rect x="840" y="198" width="296" height="44" rx="8" fill="#161b22" stroke="#30363d" stroke-width="1.5"/><circle cx="864" cy="220.0" r="7" fill="none" stroke="#9198a1" stroke-width="2" stroke-dasharray="2.5 3"/><path d="M890.4 225.6Q889.2 225.6 888.1 225.2Q887.0 224.8 886.3 224.0Q885.5 223.3 885.1 222.2Q884.7 221.1 884.7 219.7Q884.7 218.3 885.1 217.2Q885.5 216.1 886.3 215.3Q887.0 214.5 888.1 214.1Q889.2 213.7 890.4 213.7Q891.9 213.7 893.0 214.2Q894.1 214.7 894.9 215.6Q895.6 216.5 895.7 217.7H894.0Q893.8 217.0 893.3 216.4Q892.9 215.9 892.1 215.5Q891.4 215.2 890.4 215.2Q889.2 215.2 888.3 215.7Q887.5 216.3 887.0 217.3Q886.5 218.3 886.5 219.7Q886.5 220.7 886.8 221.6Q887.1 222.4 887.6 223.0Q888.1 223.5 888.8 223.8Q889.5 224.1 890.4 224.1Q891.4 224.1 892.1 223.8Q892.9 223.5 893.4 222.9Q893.8 222.3 894.0 221.5H895.7Q895.6 222.8 894.9 223.7Q894.2 224.6 893.0 225.1Q891.9 225.6 890.4 225.6Z M901.1 225.6Q900.2 225.6 899.4 225.3Q898.7 225.0 898.1 224.5Q897.6 223.9 897.3 223.1Q897.0 222.3 897.0 221.3Q897.0 220.0 897.5 219.0Q898.0 218.0 898.9 217.5Q899.9 216.9 901.1 216.9Q902.0 216.9 902.8 217.2Q903.6 217.5 904.1 218.1Q904.7 218.7 905.0 219.5Q905.2 220.3 905.2 221.3Q905.2 222.6 904.8 223.6Q904.3 224.5 903.3 225.1Q902.4 225.6 901.1 225.6ZM901.1 224.3Q901.9 224.3 902.4 223.9Q903.0 223.6 903.3 222.9Q903.6 222.2 903.6 221.3Q903.6 220.6 903.4 220.0Q903.2 219.5 902.9 219.1Q902.6 218.7 902.1 218.5Q901.7 218.3 901.1 218.3Q900.4 218.3 899.8 218.6Q899.3 219.0 899.0 219.6Q898.7 220.3 898.7 221.3Q898.7 222.0 898.8 222.5Q899.0 223.1 899.3 223.5Q899.6 223.9 900.1 224.1Q900.6 224.3 901.1 224.3Z M907.0 225.5V217.0H908.6L908.7 218.7H908.8Q909.1 217.8 909.9 217.4Q910.6 216.9 911.6 216.9Q912.5 216.9 913.2 217.4Q914.0 217.8 914.3 218.9H914.4Q914.8 217.9 915.6 217.4Q916.4 216.9 917.4 216.9Q918.2 216.9 918.9 217.3Q919.6 217.6 920.0 218.4Q920.3 219.2 920.3 220.5V225.5H918.7V220.8Q918.7 219.9 918.5 219.4Q918.3 218.8 917.9 218.5Q917.5 218.3 916.8 218.3Q916.1 218.3 915.6 218.6Q915.1 219.0 914.8 219.6Q914.5 220.1 914.5 220.9V225.5H912.9V220.8Q912.9 219.9 912.7 219.4Q912.4 218.8 912.0 218.5Q911.6 218.3 911.0 218.3Q910.3 218.3 909.7 218.6Q909.2 219.0 909.0 219.6Q908.7 220.1 908.7 220.9V225.5Z M922.5 228.2V217.0H924.0L924.1 218.7H924.2Q924.5 217.9 925.2 217.4Q926.0 216.9 927.0 216.9Q927.8 216.9 928.5 217.2Q929.1 217.5 929.6 218.1Q930.0 218.6 930.3 219.4Q930.5 220.3 930.5 221.3Q930.5 222.7 930.1 223.6Q929.7 224.6 928.9 225.1Q928.1 225.6 927.0 225.6Q926.4 225.6 925.8 225.4Q925.2 225.2 924.8 224.8Q924.4 224.4 924.2 223.9H924.1V228.2ZM926.4 224.3Q927.2 224.3 927.7 223.9Q928.3 223.6 928.6 222.9Q928.8 222.2 928.8 221.3Q928.8 220.3 928.6 219.7Q928.3 219.0 927.8 218.6Q927.2 218.3 926.5 218.3Q925.7 218.3 925.2 218.6Q924.7 219.0 924.4 219.5Q924.1 220.1 924.1 220.8V221.8Q924.1 222.5 924.4 223.0Q924.7 223.6 925.2 224.0Q925.7 224.3 926.4 224.3Z M935.4 225.6Q934.4 225.6 933.7 225.3Q933.0 224.9 932.7 224.1Q932.3 223.4 932.3 222.3V217.0H934.0V221.8Q934.0 222.6 934.2 223.2Q934.4 223.7 934.8 224.0Q935.3 224.3 936.0 224.3Q936.7 224.3 937.2 223.9Q937.7 223.6 938.0 223.0Q938.3 222.4 938.3 221.6V217.0H940.0V225.5H938.4L938.3 223.8H938.2Q937.9 224.7 937.1 225.1Q936.4 225.6 935.4 225.6Z M944.9 225.5Q944.0 225.5 943.5 225.0Q943.0 224.6 943.0 223.6V218.4H941.4V217.0H943.0V214.6L944.7 214.4V217.0H946.5V218.4H944.7V223.3Q944.7 223.7 944.9 223.9Q945.1 224.1 945.5 224.1H946.6V225.5Z M951.4 225.6Q950.2 225.6 949.3 225.1Q948.4 224.6 948.0 223.6Q947.5 222.6 947.5 221.3Q947.5 220.0 948.0 219.0Q948.4 218.0 949.3 217.4Q950.2 216.9 951.4 216.9Q952.7 216.9 953.6 217.5Q954.4 218.1 954.8 219.2Q955.2 220.2 955.1 221.6H949.1Q949.1 222.5 949.4 223.1Q949.7 223.8 950.2 224.1Q950.7 224.4 951.4 224.4Q952.3 224.4 952.8 224.0Q953.3 223.6 953.5 223.0H955.0Q954.9 223.9 954.4 224.4Q953.9 225.0 953.2 225.3Q952.4 225.6 951.4 225.6ZM949.1 220.7 949.0 220.5H953.7L953.5 220.7Q953.5 219.8 953.3 219.3Q953.0 218.7 952.5 218.4Q952.0 218.2 951.4 218.2Q950.7 218.2 950.2 218.5Q949.7 218.7 949.4 219.3Q949.1 219.9 949.1 220.7Z M956.8 225.5V217.0H958.3L958.4 218.5H958.5Q958.7 217.7 959.4 217.3Q960.1 216.9 960.9 216.9Q961.1 216.9 961.2 216.9Q961.3 216.9 961.4 217.0V218.5Q961.3 218.5 961.2 218.5Q961.0 218.5 960.9 218.5Q960.1 218.5 959.6 218.7Q959.1 219.0 958.8 219.5Q958.5 220.0 958.5 220.7V225.5Z M968.6 225.5 965.6 217.0H967.4L968.9 222.0L969.6 224.2H969.7L970.4 222.0L971.9 217.0H973.7L970.7 225.5Z M975.1 225.5V217.0H976.8V225.5ZM976.0 215.7Q975.6 215.7 975.3 215.5Q975.0 215.3 975.0 214.9Q975.0 214.5 975.3 214.3Q975.6 214.0 976.0 214.0Q976.4 214.0 976.7 214.3Q976.9 214.5 976.9 214.9Q976.9 215.3 976.7 215.5Q976.4 215.7 976.0 215.7Z M982.0 225.7Q981.2 225.7 980.6 225.5Q980.0 225.3 979.5 224.9Q979.0 224.6 978.8 224.1Q978.5 223.6 978.5 223.0H980.1Q980.2 223.5 980.4 223.8Q980.7 224.1 981.1 224.3Q981.6 224.5 982.1 224.5Q983.0 224.5 983.4 224.1Q983.9 223.8 983.9 223.2Q983.9 222.8 983.7 222.5Q983.5 222.3 983.0 222.1Q982.6 222.0 981.9 221.9Q980.8 221.7 980.1 221.5Q979.4 221.2 979.1 220.7Q978.7 220.2 978.7 219.4Q978.7 218.7 979.2 218.1Q979.6 217.5 980.3 217.2Q981.1 216.9 982.1 216.9Q983.1 216.9 983.8 217.2Q984.5 217.5 984.9 218.1Q985.4 218.7 985.4 219.5H983.8Q983.7 219.0 983.5 218.7Q983.3 218.4 982.9 218.2Q982.6 218.1 982.0 218.1Q981.3 218.1 980.8 218.4Q980.4 218.7 980.4 219.3Q980.4 219.7 980.6 219.9Q980.8 220.2 981.3 220.3Q981.8 220.5 982.5 220.6Q983.5 220.7 984.2 221.0Q984.9 221.2 985.2 221.7Q985.6 222.2 985.6 223.1Q985.6 223.9 985.1 224.5Q984.7 225.1 983.9 225.4Q983.1 225.7 982.0 225.7Z M987.3 225.5V217.0H989.0V225.5ZM988.2 215.7Q987.8 215.7 987.5 215.5Q987.2 215.3 987.2 214.9Q987.2 214.5 987.5 214.3Q987.8 214.0 988.2 214.0Q988.6 214.0 988.9 214.3Q989.1 214.5 989.1 214.9Q989.1 215.3 988.9 215.5Q988.6 215.7 988.2 215.7Z M994.9 225.6Q994.0 225.6 993.2 225.3Q992.5 225.0 991.9 224.5Q991.4 223.9 991.1 223.1Q990.8 222.3 990.8 221.3Q990.8 220.0 991.3 219.0Q991.8 218.0 992.7 217.5Q993.6 216.9 994.9 216.9Q995.8 216.9 996.6 217.2Q997.4 217.5 997.9 218.1Q998.4 218.7 998.7 219.5Q999.0 220.3 999.0 221.3Q999.0 222.6 998.5 223.6Q998.0 224.5 997.1 225.1Q996.2 225.6 994.9 225.6ZM994.9 224.3Q995.6 224.3 996.2 223.9Q996.8 223.6 997.1 222.9Q997.4 222.2 997.4 221.3Q997.4 220.6 997.2 220.0Q997.0 219.5 996.7 219.1Q996.4 218.7 995.9 218.5Q995.5 218.3 994.9 218.3Q994.2 218.3 993.6 218.6Q993.1 219.0 992.8 219.6Q992.4 220.3 992.4 221.3Q992.4 222.0 992.6 222.5Q992.8 223.1 993.1 223.5Q993.4 223.9 993.9 224.1Q994.4 224.3 994.9 224.3Z M1000.8 225.5V217.0H1002.4L1002.5 218.7H1002.6Q1002.9 217.8 1003.7 217.4Q1004.5 216.9 1005.4 216.9Q1006.1 216.9 1006.6 217.1Q1007.2 217.3 1007.6 217.7Q1008.0 218.1 1008.2 218.8Q1008.4 219.5 1008.4 220.5V225.5H1006.8V220.8Q1006.8 219.9 1006.6 219.4Q1006.4 218.8 1006.0 218.5Q1005.5 218.3 1004.8 218.3Q1004.1 218.3 1003.6 218.6Q1003.0 219.0 1002.8 219.6Q1002.5 220.1 1002.5 220.9V225.5Z" fill="#e6edf3"/><path d="M1077.3 227.3V223.5H1077.2Q1077.0 224.2 1076.3 224.7Q1075.6 225.1 1074.7 225.1Q1074.0 225.1 1073.4 224.9Q1072.9 224.6 1072.5 224.1Q1072.1 223.6 1071.8 222.9Q1071.6 222.2 1071.6 221.3Q1071.6 220.1 1072.0 219.3Q1072.4 218.4 1073.1 218.0Q1073.8 217.5 1074.7 217.5Q1075.3 217.5 1075.8 217.7Q1076.3 217.9 1076.7 218.3Q1077.1 218.7 1077.2 219.2H1077.3L1077.4 217.7H1078.4V227.3ZM1075.0 224.2Q1075.8 224.2 1076.3 223.8Q1076.8 223.5 1077.0 222.9Q1077.3 222.4 1077.3 221.8V220.9Q1077.3 220.2 1077.0 219.7Q1076.8 219.1 1076.3 218.8Q1075.8 218.5 1075.0 218.5Q1074.3 218.5 1073.8 218.8Q1073.3 219.1 1073.1 219.8Q1072.8 220.4 1072.8 221.3Q1072.8 222.2 1073.1 222.8Q1073.3 223.5 1073.8 223.8Q1074.3 224.2 1075.0 224.2Z M1083.1 225.1Q1082.3 225.1 1081.7 224.8Q1081.1 224.5 1080.8 223.8Q1080.4 223.1 1080.4 222.2V217.7H1081.6V221.9Q1081.6 222.6 1081.8 223.1Q1082.0 223.6 1082.4 223.9Q1082.8 224.2 1083.5 224.2Q1084.1 224.2 1084.7 223.8Q1085.2 223.5 1085.4 222.9Q1085.7 222.3 1085.7 221.6V217.7H1086.8V225.0H1085.8L1085.7 223.4H1085.6Q1085.4 224.2 1084.7 224.7Q1084.0 225.1 1083.1 225.1Z M1091.8 225.1Q1090.7 225.1 1090.0 224.7Q1089.2 224.2 1088.8 223.3Q1088.5 222.5 1088.5 221.4Q1088.5 220.2 1088.8 219.3Q1089.2 218.5 1090.0 218.0Q1090.7 217.5 1091.7 217.5Q1092.9 217.5 1093.6 218.0Q1094.3 218.5 1094.7 219.4Q1095.0 220.3 1094.9 221.5H1089.6Q1089.6 222.4 1089.9 223.0Q1090.1 223.6 1090.6 223.9Q1091.1 224.2 1091.8 224.2Q1092.6 224.2 1093.1 223.9Q1093.6 223.5 1093.8 222.9H1094.8Q1094.7 223.6 1094.3 224.1Q1093.9 224.6 1093.2 224.9Q1092.6 225.1 1091.8 225.1ZM1089.6 220.9 1089.5 220.7H1093.9L1093.8 220.9Q1093.8 220.0 1093.6 219.5Q1093.3 218.9 1092.8 218.7Q1092.4 218.4 1091.7 218.4Q1091.1 218.4 1090.6 218.7Q1090.2 219.0 1089.9 219.5Q1089.6 220.1 1089.6 220.9Z M1099.0 225.1Q1098.2 225.1 1097.6 224.8Q1097.0 224.5 1096.7 223.8Q1096.4 223.1 1096.4 222.2V217.7H1097.5V221.9Q1097.5 222.6 1097.7 223.1Q1097.9 223.6 1098.3 223.9Q1098.8 224.2 1099.4 224.2Q1100.1 224.2 1100.6 223.8Q1101.1 223.5 1101.4 222.9Q1101.7 222.3 1101.7 221.6V217.7H1102.8V225.0H1101.7L1101.7 223.4H1101.6Q1101.3 224.2 1100.6 224.7Q1099.9 225.1 1099.0 225.1Z M1107.7 225.1Q1106.7 225.1 1105.9 224.7Q1105.2 224.2 1104.8 223.3Q1104.4 222.5 1104.4 221.4Q1104.4 220.2 1104.8 219.3Q1105.2 218.5 1105.9 218.0Q1106.6 217.5 1107.7 217.5Q1108.8 217.5 1109.5 218.0Q1110.3 218.5 1110.6 219.4Q1110.9 220.3 1110.8 221.5H1105.5Q1105.5 222.4 1105.8 223.0Q1106.1 223.6 1106.6 223.9Q1107.1 224.2 1107.7 224.2Q1108.5 224.2 1109.0 223.9Q1109.5 223.5 1109.7 222.9H1110.8Q1110.7 223.6 1110.2 224.1Q1109.8 224.6 1109.2 224.9Q1108.5 225.1 1107.7 225.1ZM1105.5 220.9 1105.4 220.7H1109.9L1109.7 220.9Q1109.8 220.0 1109.5 219.5Q1109.2 218.9 1108.8 218.7Q1108.3 218.4 1107.7 218.4Q1107.1 218.4 1106.6 218.7Q1106.1 219.0 1105.8 219.5Q1105.6 220.1 1105.5 220.9Z M1115.2 225.1Q1114.5 225.1 1113.9 224.9Q1113.4 224.6 1113.0 224.1Q1112.6 223.6 1112.3 222.9Q1112.1 222.2 1112.1 221.3Q1112.1 220.1 1112.5 219.3Q1112.9 218.4 1113.6 218.0Q1114.3 217.5 1115.2 217.5Q1115.8 217.5 1116.3 217.7Q1116.9 217.9 1117.2 218.3Q1117.6 218.7 1117.7 219.2H1117.8V214.8H1118.9V225.0H1117.9L1117.8 223.5H1117.7Q1117.5 224.2 1116.8 224.7Q1116.1 225.1 1115.2 225.1ZM1115.5 224.2Q1116.3 224.2 1116.8 223.8Q1117.3 223.5 1117.5 222.9Q1117.8 222.4 1117.8 221.8V220.9Q1117.8 220.2 1117.5 219.7Q1117.3 219.1 1116.8 218.8Q1116.3 218.5 1115.5 218.5Q1114.8 218.5 1114.3 218.8Q1113.8 219.1 1113.6 219.8Q1113.3 220.4 1113.3 221.3Q1113.3 222.2 1113.6 222.8Q1113.8 223.5 1114.3 223.8Q1114.8 224.2 1115.5 224.2Z" fill="#9198a1"/><line x1="864" y1="242" x2="864" y2="256" stroke="#30363d" stroke-width="2"/><rect x="840" y="256" width="296" height="44" rx="8" fill="#161b22" stroke="#30363d" stroke-width="1.5"/><circle cx="864" cy="278.0" r="7" fill="none" stroke="#9198a1" stroke-width="2" stroke-dasharray="2.5 3"/><path d="M885.3 283.5V271.8H888.0L890.3 278.2L891.2 281.2H891.3L892.1 278.2L894.4 271.8H897.2V283.5H895.5V277.6L895.5 273.4H895.4L894.1 277.3L892.0 283.5H890.4L888.3 277.4L887.0 273.4H886.9L887.0 277.6V283.5Z M899.7 283.5V271.8H901.4V282.3L901.1 281.9H907.0V283.5Z M913.2 283.6Q911.9 283.6 910.9 283.2Q909.8 282.8 909.1 282.0Q908.3 281.3 907.9 280.2Q907.5 279.1 907.5 277.7Q907.5 276.3 907.9 275.2Q908.3 274.1 909.1 273.3Q909.8 272.5 910.9 272.1Q911.9 271.7 913.2 271.7Q914.5 271.7 915.6 272.1Q916.6 272.5 917.4 273.3Q918.2 274.1 918.6 275.2Q919.0 276.3 919.0 277.7Q919.0 279.1 918.6 280.2Q918.2 281.3 917.4 282.1Q916.6 282.8 915.6 283.2Q914.5 283.6 913.2 283.6ZM913.2 282.1Q914.4 282.1 915.3 281.6Q916.2 281.1 916.7 280.1Q917.2 279.1 917.2 277.7Q917.2 276.6 916.9 275.8Q916.6 275.0 916.1 274.4Q915.6 273.8 914.9 273.5Q914.1 273.2 913.2 273.2Q912.0 273.2 911.1 273.7Q910.2 274.3 909.8 275.3Q909.3 276.3 909.3 277.7Q909.3 278.7 909.6 279.6Q909.8 280.4 910.4 281.0Q910.9 281.5 911.6 281.8Q912.3 282.1 913.2 282.1Z M920.9 286.2V275.0H922.4L922.5 276.7H922.6Q922.9 275.9 923.7 275.4Q924.4 274.9 925.5 274.9Q926.2 274.9 926.9 275.2Q927.5 275.5 928.0 276.1Q928.4 276.6 928.7 277.4Q928.9 278.3 928.9 279.3Q928.9 280.7 928.5 281.6Q928.1 282.6 927.3 283.1Q926.5 283.6 925.5 283.6Q924.8 283.6 924.2 283.4Q923.6 283.2 923.2 282.8Q922.8 282.4 922.6 281.9H922.5V286.2ZM924.9 282.3Q925.6 282.3 926.2 281.9Q926.7 281.6 927.0 280.9Q927.3 280.2 927.3 279.3Q927.3 278.3 927.0 277.7Q926.7 277.0 926.2 276.6Q925.6 276.3 924.9 276.3Q924.1 276.3 923.6 276.6Q923.1 277.0 922.8 277.5Q922.5 278.1 922.5 278.8V279.8Q922.5 280.5 922.8 281.0Q923.1 281.6 923.6 282.0Q924.1 282.3 924.9 282.3Z M933.8 283.7Q933.0 283.7 932.4 283.5Q931.7 283.3 931.3 282.9Q930.8 282.6 930.6 282.1Q930.3 281.6 930.3 281.0H931.9Q932.0 281.5 932.2 281.8Q932.4 282.1 932.9 282.3Q933.3 282.5 933.9 282.5Q934.7 282.5 935.2 282.1Q935.6 281.8 935.6 281.2Q935.6 280.8 935.4 280.5Q935.2 280.3 934.8 280.1Q934.4 280.0 933.7 279.9Q932.6 279.7 931.9 279.5Q931.2 279.2 930.9 278.7Q930.5 278.2 930.5 277.4Q930.5 276.7 930.9 276.1Q931.3 275.5 932.1 275.2Q932.8 274.9 933.9 274.9Q934.8 274.9 935.6 275.2Q936.3 275.5 936.7 276.1Q937.1 276.7 937.2 277.5H935.6Q935.5 277.0 935.3 276.7Q935.1 276.4 934.7 276.2Q934.3 276.1 933.8 276.1Q933.0 276.1 932.6 276.4Q932.2 276.7 932.2 277.3Q932.2 277.7 932.4 277.9Q932.6 278.2 933.1 278.3Q933.6 278.5 934.3 278.6Q935.3 278.7 936.0 279.0Q936.6 279.2 937.0 279.7Q937.3 280.2 937.3 281.1Q937.3 281.9 936.9 282.5Q936.5 283.1 935.7 283.4Q934.9 283.7 933.8 283.7Z" fill="#e6edf3"/><path d="M1077.3 285.3V281.5H1077.2Q1077.0 282.2 1076.3 282.7Q1075.6 283.1 1074.7 283.1Q1074.0 283.1 1073.4 282.9Q1072.9 282.6 1072.5 282.1Q1072.1 281.6 1071.8 280.9Q1071.6 280.2 1071.6 279.3Q1071.6 278.1 1072.0 277.3Q1072.4 276.4 1073.1 276.0Q1073.8 275.5 1074.7 275.5Q1075.3 275.5 1075.8 275.7Q1076.3 275.9 1076.7 276.3Q1077.1 276.7 1077.2 277.2H1077.3L1077.4 275.6H1078.4V285.3ZM1075.0 282.2Q1075.8 282.2 1076.3 281.8Q1076.8 281.5 1077.0 280.9Q1077.3 280.4 1077.3 279.8V278.9Q1077.3 278.2 1077.0 277.7Q1076.8 277.1 1076.3 276.8Q1075.8 276.5 1075.0 276.5Q1074.3 276.5 1073.8 276.8Q1073.3 277.1 1073.1 277.8Q1072.8 278.4 1072.8 279.3Q1072.8 280.2 1073.1 280.8Q1073.3 281.5 1073.8 281.8Q1074.3 282.2 1075.0 282.2Z M1083.1 283.1Q1082.3 283.1 1081.7 282.8Q1081.1 282.5 1080.8 281.8Q1080.4 281.1 1080.4 280.2V275.6H1081.6V279.9Q1081.6 280.6 1081.8 281.1Q1082.0 281.6 1082.4 281.9Q1082.8 282.2 1083.5 282.2Q1084.1 282.2 1084.7 281.8Q1085.2 281.5 1085.4 280.9Q1085.7 280.3 1085.7 279.6V275.6H1086.8V283.0H1085.8L1085.7 281.4H1085.6Q1085.4 282.2 1084.7 282.7Q1084.0 283.1 1083.1 283.1Z M1091.8 283.1Q1090.7 283.1 1090.0 282.7Q1089.2 282.2 1088.8 281.3Q1088.5 280.5 1088.5 279.4Q1088.5 278.2 1088.8 277.3Q1089.2 276.5 1090.0 276.0Q1090.7 275.5 1091.7 275.5Q1092.9 275.5 1093.6 276.0Q1094.3 276.5 1094.7 277.4Q1095.0 278.3 1094.9 279.5H1089.6Q1089.6 280.4 1089.9 281.0Q1090.1 281.6 1090.6 281.9Q1091.1 282.2 1091.8 282.2Q1092.6 282.2 1093.1 281.9Q1093.6 281.5 1093.8 280.9H1094.8Q1094.7 281.6 1094.3 282.1Q1093.9 282.6 1093.2 282.9Q1092.6 283.1 1091.8 283.1ZM1089.6 278.9 1089.5 278.7H1093.9L1093.8 278.9Q1093.8 278.0 1093.6 277.5Q1093.3 276.9 1092.8 276.7Q1092.4 276.4 1091.7 276.4Q1091.1 276.4 1090.6 276.7Q1090.2 277.0 1089.9 277.5Q1089.6 278.1 1089.6 278.9Z M1099.0 283.1Q1098.2 283.1 1097.6 282.8Q1097.0 282.5 1096.7 281.8Q1096.4 281.1 1096.4 280.2V275.6H1097.5V279.9Q1097.5 280.6 1097.7 281.1Q1097.9 281.6 1098.3 281.9Q1098.8 282.2 1099.4 282.2Q1100.1 282.2 1100.6 281.8Q1101.1 281.5 1101.4 280.9Q1101.7 280.3 1101.7 279.6V275.6H1102.8V283.0H1101.7L1101.7 281.4H1101.6Q1101.3 282.2 1100.6 282.7Q1099.9 283.1 1099.0 283.1Z M1107.7 283.1Q1106.7 283.1 1105.9 282.7Q1105.2 282.2 1104.8 281.3Q1104.4 280.5 1104.4 279.4Q1104.4 278.2 1104.8 277.3Q1105.2 276.5 1105.9 276.0Q1106.6 275.5 1107.7 275.5Q1108.8 275.5 1109.5 276.0Q1110.3 276.5 1110.6 277.4Q1110.9 278.3 1110.8 279.5H1105.5Q1105.5 280.4 1105.8 281.0Q1106.1 281.6 1106.6 281.9Q1107.1 282.2 1107.7 282.2Q1108.5 282.2 1109.0 281.9Q1109.5 281.5 1109.7 280.9H1110.8Q1110.7 281.6 1110.2 282.1Q1109.8 282.6 1109.2 282.9Q1108.5 283.1 1107.7 283.1ZM1105.5 278.9 1105.4 278.7H1109.9L1109.7 278.9Q1109.8 278.0 1109.5 277.5Q1109.2 276.9 1108.8 276.7Q1108.3 276.4 1107.7 276.4Q1107.1 276.4 1106.6 276.7Q1106.1 277.0 1105.8 277.5Q1105.6 278.1 1105.5 278.9Z M1115.2 283.1Q1114.5 283.1 1113.9 282.9Q1113.4 282.6 1113.0 282.1Q1112.6 281.6 1112.3 280.9Q1112.1 280.2 1112.1 279.3Q1112.1 278.1 1112.5 277.3Q1112.9 276.4 1113.6 276.0Q1114.3 275.5 1115.2 275.5Q1115.8 275.5 1116.3 275.7Q1116.9 275.9 1117.2 276.3Q1117.6 276.7 1117.7 277.2H1117.8V272.8H1118.9V283.0H1117.9L1117.8 281.5H1117.7Q1117.5 282.2 1116.8 282.7Q1116.1 283.1 1115.2 283.1ZM1115.5 282.2Q1116.3 282.2 1116.8 281.8Q1117.3 281.5 1117.5 280.9Q1117.8 280.4 1117.8 279.8V278.9Q1117.8 278.2 1117.5 277.7Q1117.3 277.1 1116.8 276.8Q1116.3 276.5 1115.5 276.5Q1114.8 276.5 1114.3 276.8Q1113.8 277.1 1113.6 277.8Q1113.3 278.4 1113.3 279.3Q1113.3 280.2 1113.6 280.8Q1113.8 281.5 1114.3 281.8Q1114.8 282.2 1115.5 282.2Z" fill="#9198a1"/></svg>